<svg width="64" height="64" viewBox="0 0 64 64" fill="none" xmlns="http://www.w3.org/2000/svg">
<circle cx="32" cy="32" r="32" fill="white" fill-opacity="0.05"/>
<rect x="18" y="18" width="28" height="28" fill="#FB7C33"/>
<rect x="19" y="19" width="26" height="26" fill="#261302"/>
<path d="M27.9701 35.1606L27.0339 38.874C27.0145 38.9754 26.9758 39 26.8582 39H25.1227C25.0065 39 24.9872 38.9594 25.0065 38.816L28.3614 26.501C28.4195 26.2764 28.4596 26.0823 28.479 25.4694C28.479 25.3883 28.5177 25.3463 28.5772 25.3463H31.0539C31.1314 25.3463 31.1715 25.3666 31.1908 25.4694L34.955 38.8363C34.9744 38.9377 34.955 39 34.8569 39H32.907C32.8102 39 32.7507 38.9754 32.7314 38.8942L31.7564 35.1606H27.9701ZM31.2655 33.1482L29.8619 27.3283L28.4776 33.1482H31.2655ZM36.5827 26.2663C36.5827 25.4694 37.1096 25 37.7914 25C38.5132 25 39 25.5114 39 26.2663C39 27.0834 38.4925 27.5325 37.772 27.5325C37.0695 27.5325 36.5827 27.0834 36.5827 26.2663ZM36.7155 29.0813C36.7155 28.9785 36.7542 28.9379 36.8524 28.9379H38.7068C38.805 28.9379 38.8437 28.9785 38.8437 29.0813V38.8566C38.8437 38.9594 38.8244 39 38.7068 39H36.8717C36.7542 39 36.7155 38.9391 36.7155 38.8363V29.0813Z" fill="#FB7C33"/>
</svg>
