<svg width="32" height="33" viewBox="0 0 32 33" fill="none" xmlns="http://www.w3.org/2000/svg">
<path d="M21.787 3.50195C26.307 3.50195 29.3337 6.67529 29.3337 11.3953V22.29C29.3337 26.9953 26.307 30.1686 21.787 30.1686H10.227C5.70699 30.1686 2.66699 26.9953 2.66699 22.29V11.3953C2.66699 6.67529 5.70699 3.50195 10.227 3.50195H21.787ZM21.5737 12.8353C21.1203 12.382 20.3737 12.382 19.9203 12.8353L14.4137 18.342L12.0803 16.0086C11.627 15.5553 10.8803 15.5553 10.427 16.0086C9.97366 16.462 9.97366 17.1953 10.427 17.662L13.6003 20.822C13.827 21.0486 14.1203 21.1553 14.4137 21.1553C14.7203 21.1553 15.0137 21.0486 15.2403 20.822L21.5737 14.4886C22.027 14.0353 22.027 13.302 21.5737 12.8353Z" fill="#2D93DD"/>
</svg>
