<svg width="24" height="24" viewBox="0 0 24 24" fill="none" xmlns="http://www.w3.org/2000/svg">
<circle cx="12" cy="12.001" r="10" fill="#050623"/>
<path fill-rule="evenodd" clip-rule="evenodd" d="M24 12.001C24 18.6284 18.6274 24.001 12 24.001C5.37258 24.001 0 18.6284 0 12.001C0 5.37356 5.37258 0.000976562 12 0.000976562C18.6274 0.000976562 24 5.37356 24 12.001ZM18.0455 7.45548C17.6061 7.01614 16.8938 7.01614 16.4545 7.45548C16.4439 7.46609 16.4339 7.47733 16.4247 7.48913L11.2161 14.1261L8.07581 10.9858C7.63647 10.5465 6.92416 10.5465 6.48482 10.9858C6.04548 11.4252 6.04548 12.1375 6.48482 12.5768L10.4545 16.5465C10.8938 16.9858 11.6061 16.9858 12.0455 16.5465C12.0553 16.5367 12.0645 16.5264 12.0731 16.5156L18.0615 9.03018C18.4848 8.5897 18.4794 7.88943 18.0455 7.45548Z" fill="#C3C4E6"/>
</svg>
