<svg width="32" height="32" viewBox="0 0 32 32" fill="none" xmlns="http://www.w3.org/2000/svg">
<path d="M21.787 2.66602C26.307 2.66602 29.3337 5.83935 29.3337 10.5593V21.454C29.3337 26.1593 26.307 29.3327 21.787 29.3327H10.227C5.70699 29.3327 2.66699 26.1593 2.66699 21.454V10.5593C2.66699 5.83935 5.70699 2.66602 10.227 2.66602H21.787ZM21.5737 11.9993C21.1203 11.546 20.3737 11.546 19.9203 11.9993L14.4137 17.506L12.0803 15.1727C11.627 14.7193 10.8803 14.7193 10.427 15.1727C9.97366 15.626 9.97366 16.3593 10.427 16.826L13.6003 19.986C13.827 20.2127 14.1203 20.3193 14.4137 20.3193C14.7203 20.3193 15.0137 20.2127 15.2403 19.986L21.5737 13.6527C22.027 13.1993 22.027 12.466 21.5737 11.9993Z" fill="white"/>
</svg>
