<svg width="64" height="64" viewBox="0 0 64 64" fill="none" xmlns="http://www.w3.org/2000/svg">
<circle cx="32" cy="32" r="32" fill="white" fill-opacity="0.05"/>
<path fill-rule="evenodd" clip-rule="evenodd" d="M21.716 45.2178L18.2766 40.9331C17.4491 39.9023 17 38.6346 17 37.3299V21.815C17 19.8606 18.5636 18.239 20.5807 18.1013L36.5321 17.0122C37.691 16.9331 38.8428 17.2411 39.7948 17.8847L45.3992 21.6739C46.4025 22.3522 47 23.461 47 24.6443V42.2832C47 44.1958 45.4626 45.7793 43.4876 45.9009L25.7833 46.9907C24.2073 47.0877 22.684 46.4237 21.716 45.2178Z" fill="white"/>
<path d="M27.2481 29.5782V29.3751C27.2481 28.8602 27.6605 28.4332 28.192 28.3977L32.0633 28.1392L37.417 36.023V29.1037L36.039 28.92V28.8235C36.039 28.3025 36.4608 27.8727 36.9991 27.8451L40.5216 27.6647V28.1716C40.5216 28.4096 40.3446 28.6131 40.1021 28.6541L39.2544 28.7975V40.0032L38.1906 40.3691C37.3018 40.6747 36.3124 40.3475 35.8036 39.5798L30.6061 31.7367V39.2225L32.2058 39.5286L32.1836 39.677C32.1137 40.1418 31.7124 40.4934 31.227 40.515L27.2481 40.6921C27.1955 40.1923 27.5701 39.7451 28.0869 39.6908L28.6103 39.6358V29.6548L27.2481 29.5782Z" fill="black"/>
<path fill-rule="evenodd" clip-rule="evenodd" d="M36.6749 18.9663L20.7235 20.0554C19.768 20.1206 19.0273 20.8888 19.0273 21.8145V37.3294C19.0273 38.1992 19.3268 39.0443 19.8784 39.7316L23.3178 44.0162C23.8739 44.709 24.749 45.0904 25.6544 45.0347L43.3586 43.9449C44.266 43.889 44.9724 43.1614 44.9724 42.2827V24.6438C44.9724 24.1001 44.6979 23.5907 44.2369 23.279L38.6325 19.4898C38.0613 19.1036 37.3702 18.9188 36.6749 18.9663ZM21.5145 22.0565C21.2926 21.8923 21.3982 21.5501 21.6769 21.5301L36.7822 20.4466C37.2635 20.4121 37.7417 20.5446 38.1309 20.8204L41.1617 22.9676C41.2767 23.0492 41.2228 23.2251 41.0803 23.2329L25.0839 24.1029C24.5998 24.1292 24.1219 23.987 23.737 23.702L21.5145 22.0565ZM24.3336 26.8302C24.3336 26.3105 24.7534 25.8813 25.2903 25.852L42.203 24.931C42.7263 24.9025 43.1667 25.3048 43.1667 25.8113V41.0848C43.1667 41.6035 42.7484 42.0323 42.2126 42.0628L25.4069 43.019C24.8246 43.0522 24.3336 42.6047 24.3336 42.041V26.8302Z" fill="black"/>
</svg>
