<svg width="70" height="70" viewBox="0 0 70 70" fill="none" xmlns="http://www.w3.org/2000/svg">
<path d="M34.8514 42.4071C44.859 42.4071 53.4042 43.9936 53.4042 50.3425C53.4042 56.6888 44.9139 58.3332 34.8514 58.3332C24.8438 58.3332 16.2987 56.7466 16.2987 50.4003C16.2987 44.0514 24.789 42.4071 34.8514 42.4071ZM50.8524 38.5841C54.6784 38.5131 58.7916 39.0385 60.3116 39.4115C63.5317 40.0446 65.6497 41.3369 66.5272 43.2151C67.2688 44.757 67.2688 46.5458 66.5272 48.0851C65.1848 50.9982 60.8574 51.9333 59.1755 52.175C58.8282 52.2275 58.5487 51.9254 58.5853 51.5761C59.4445 43.504 52.61 39.6768 50.8419 38.7968C50.7662 38.7574 50.7505 38.697 50.7584 38.6602C50.7636 38.634 50.7949 38.592 50.8524 38.5841ZM18.4293 38.5786L19.1497 38.5851C19.2072 38.593 19.2359 38.635 19.2412 38.6587C19.249 38.6981 19.2333 38.7559 19.1602 38.7979C17.3895 39.6779 10.555 43.5051 11.4142 51.5745C11.4508 51.9265 11.1739 52.2259 10.8266 52.176C9.14474 51.9344 4.81733 50.9992 3.47498 48.0862C2.73067 46.5442 2.73067 44.758 3.47498 43.2161C4.35247 41.338 6.46786 40.0456 9.68795 39.4099C11.2105 39.0396 15.3212 38.5142 19.1497 38.5851L18.4293 38.5786ZM34.8514 11.6665C41.6651 11.6665 47.1285 17.1565 47.1285 24.0123C47.1285 30.8656 41.6651 36.3608 34.8514 36.3608C28.0378 36.3608 22.5743 30.8656 22.5743 24.0123C22.5743 17.1565 28.0378 11.6665 34.8514 11.6665ZM51.5183 13.7254C58.0996 13.7254 63.2679 19.9534 61.5077 26.8907C60.3194 31.5611 56.0181 34.6634 51.2258 34.5373C50.7453 34.5241 50.2726 34.4795 49.8156 34.4007C49.4839 34.3429 49.3168 33.9673 49.5048 33.6888C51.3329 30.9832 52.3749 27.7287 52.3749 24.2351C52.3749 20.5891 51.2363 17.1901 49.2593 14.4031C49.1966 14.3164 49.1496 14.1824 49.2123 14.0826C49.2645 14.0012 49.3612 13.9591 49.4526 13.9381C50.1185 13.8015 50.8028 13.7254 51.5183 13.7254ZM18.4799 13.7251C19.1955 13.7251 19.8797 13.8013 20.5483 13.9379C20.6371 13.9589 20.7363 14.0035 20.7885 14.0823C20.8486 14.1822 20.8042 14.3161 20.7415 14.4028C18.7645 17.1898 17.6259 20.5889 17.6259 24.2348C17.6259 27.7284 18.6679 30.983 20.496 33.6886C20.6841 33.967 20.5169 34.3426 20.1852 34.4004C19.7256 34.4818 19.2555 34.5239 18.775 34.537C13.9827 34.6631 9.68142 31.5609 8.49315 26.8905C6.73032 19.9532 11.8987 13.7251 18.4799 13.7251Z" fill="white"/>
</svg>
