<svg width="297" height="32" viewBox="0 0 297 32" fill="none" xmlns="http://www.w3.org/2000/svg">
<path d="M11.2812 6.2832L5.09375 25.1426H0.109375L8.5625 2.39258H11.7344L11.2812 6.2832ZM16.4219 25.1426L10.2188 6.2832L9.71875 2.39258H12.9219L21.4219 25.1426H16.4219ZM16.1406 16.6738V20.3457H4.125V16.6738H16.1406ZM32.375 21.3301V13.7988C32.375 13.2572 32.2865 12.7936 32.1094 12.4082C31.9323 12.0124 31.6562 11.7051 31.2812 11.4863C30.9167 11.2676 30.4427 11.1582 29.8594 11.1582C29.3594 11.1582 28.9271 11.2467 28.5625 11.4238C28.1979 11.5905 27.9167 11.8353 27.7188 12.1582C27.5208 12.4707 27.4219 12.8405 27.4219 13.2676H22.9219C22.9219 12.5488 23.0885 11.8665 23.4219 11.2207C23.7552 10.5749 24.2396 10.0072 24.875 9.51758C25.5104 9.01758 26.2656 8.62695 27.1406 8.3457C28.026 8.06445 29.0156 7.92383 30.1094 7.92383C31.4219 7.92383 32.5885 8.14258 33.6094 8.58008C34.6302 9.01758 35.4323 9.67383 36.0156 10.5488C36.6094 11.4238 36.9062 12.5176 36.9062 13.8301V21.0645C36.9062 21.9915 36.9635 22.752 37.0781 23.3457C37.1927 23.929 37.3594 24.4395 37.5781 24.877V25.1426H33.0312C32.8125 24.6842 32.6458 24.1113 32.5312 23.4238C32.4271 22.7259 32.375 22.028 32.375 21.3301ZM32.9688 14.8457L33 17.3926H30.4844C29.8906 17.3926 29.375 17.4603 28.9375 17.5957C28.5 17.7311 28.1406 17.9238 27.8594 18.1738C27.5781 18.4134 27.3698 18.6947 27.2344 19.0176C27.1094 19.3405 27.0469 19.6947 27.0469 20.0801C27.0469 20.4655 27.1354 20.8145 27.3125 21.127C27.4896 21.429 27.7448 21.6686 28.0781 21.8457C28.4115 22.0124 28.8021 22.0957 29.25 22.0957C29.9271 22.0957 30.5156 21.9603 31.0156 21.6895C31.5156 21.4186 31.901 21.0853 32.1719 20.6895C32.4531 20.2936 32.599 19.9186 32.6094 19.5645L33.7969 21.4707C33.6302 21.8978 33.401 22.3405 33.1094 22.7988C32.8281 23.2572 32.4688 23.6895 32.0312 24.0957C31.5938 24.4915 31.0677 24.8197 30.4531 25.0801C29.8385 25.3301 29.1094 25.4551 28.2656 25.4551C27.1927 25.4551 26.2188 25.2415 25.3438 24.8145C24.4792 24.377 23.7917 23.778 23.2812 23.0176C22.7812 22.2467 22.5312 21.3717 22.5312 20.3926C22.5312 19.5072 22.6979 18.7207 23.0312 18.0332C23.3646 17.3457 23.8542 16.7676 24.5 16.2988C25.1562 15.8197 25.974 15.4603 26.9531 15.2207C27.9323 14.9707 29.0677 14.8457 30.3594 14.8457H32.9688ZM49.5625 15.1582H43.7188L43.6875 11.9395H48.5938C49.4583 11.9395 50.1667 11.8301 50.7188 11.6113C51.2708 11.3822 51.6823 11.054 51.9531 10.627C52.2344 10.1895 52.375 9.6582 52.375 9.0332C52.375 8.32487 52.2396 7.75195 51.9688 7.31445C51.7083 6.87695 51.2969 6.55924 50.7344 6.36133C50.1823 6.16341 49.4688 6.06445 48.5938 6.06445H45.3438V25.1426H40.6562V2.39258H48.5938C49.9167 2.39258 51.099 2.51758 52.1406 2.76758C53.1927 3.01758 54.0833 3.39779 54.8125 3.9082C55.5417 4.41862 56.099 5.06445 56.4844 5.8457C56.8698 6.61654 57.0625 7.5332 57.0625 8.5957C57.0625 9.5332 56.849 10.3978 56.4219 11.1895C56.0052 11.9811 55.3438 12.627 54.4375 13.127C53.5417 13.627 52.3698 13.903 50.9219 13.9551L49.5625 15.1582ZM49.3594 25.1426H42.4375L44.2656 21.4863H49.3594C50.1823 21.4863 50.8542 21.3561 51.375 21.0957C51.8958 20.8249 52.2812 20.4603 52.5312 20.002C52.7812 19.5436 52.9062 19.0176 52.9062 18.4238C52.9062 17.7572 52.7917 17.179 52.5625 16.6895C52.3438 16.1999 51.9896 15.8249 51.5 15.5645C51.0104 15.2936 50.3646 15.1582 49.5625 15.1582H45.0469L45.0781 11.9395H50.7031L51.7812 13.2051C53.1667 13.1842 54.2812 13.429 55.125 13.9395C55.9792 14.4395 56.599 15.0905 56.9844 15.8926C57.3802 16.6947 57.5781 17.554 57.5781 18.4707C57.5781 19.929 57.2604 21.1582 56.625 22.1582C55.9896 23.1478 55.0573 23.8926 53.8281 24.3926C52.6094 24.8926 51.1198 25.1426 49.3594 25.1426ZM60.8125 1.14258H65.3125V21.2676L64.8594 25.1426H60.8125V1.14258ZM76.0156 16.5176V16.8457C76.0156 18.1061 75.8802 19.2624 75.6094 20.3145C75.349 21.3665 74.9427 22.278 74.3906 23.0488C73.8385 23.8092 73.151 24.403 72.3281 24.8301C71.5156 25.2467 70.5573 25.4551 69.4531 25.4551C68.4219 25.4551 67.526 25.2467 66.7656 24.8301C66.0156 24.4134 65.3854 23.8249 64.875 23.0645C64.3646 22.304 63.9531 21.4134 63.6406 20.3926C63.3281 19.3717 63.0938 18.2572 62.9375 17.0488V16.3301C63.0938 15.1217 63.3281 14.0072 63.6406 12.9863C63.9531 11.9655 64.3646 11.0749 64.875 10.3145C65.3854 9.55404 66.0156 8.96549 66.7656 8.54883C67.5156 8.13216 68.401 7.92383 69.4219 7.92383C70.5365 7.92383 71.5052 8.13737 72.3281 8.56445C73.1615 8.98112 73.849 9.57487 74.3906 10.3457C74.9427 11.1061 75.349 12.0124 75.6094 13.0645C75.8802 14.1061 76.0156 15.2572 76.0156 16.5176ZM71.5156 16.8457V16.5176C71.5156 15.8301 71.4635 15.1842 71.3594 14.5801C71.2656 13.9655 71.099 13.429 70.8594 12.9707C70.6198 12.502 70.2917 12.1322 69.875 11.8613C69.4688 11.5905 68.9427 11.4551 68.2969 11.4551C67.6823 11.4551 67.1615 11.5592 66.7344 11.7676C66.3073 11.9759 65.9531 12.2676 65.6719 12.6426C65.401 13.0176 65.1979 13.4655 65.0625 13.9863C64.9271 14.4967 64.8438 15.0592 64.8125 15.6738V17.7207C64.8438 18.5436 64.9792 19.2728 65.2188 19.9082C65.4688 20.5332 65.8438 21.028 66.3438 21.3926C66.8542 21.7467 67.5156 21.9238 68.3281 21.9238C68.9635 21.9238 69.4896 21.7988 69.9062 21.5488C70.3229 21.2988 70.6458 20.9447 70.875 20.4863C71.1146 20.028 71.2812 19.4915 71.375 18.877C71.4688 18.252 71.5156 17.5749 71.5156 16.8457ZM92.2812 17.5957H96.9531C96.8594 19.127 96.4375 20.4863 95.6875 21.6738C94.9479 22.8613 93.9115 23.7884 92.5781 24.4551C91.2552 25.1217 89.6615 25.4551 87.7969 25.4551C86.3385 25.4551 85.0312 25.2051 83.875 24.7051C82.7188 24.1947 81.7292 23.4655 80.9062 22.5176C80.0938 21.5697 79.474 20.4238 79.0469 19.0801C78.6198 17.7363 78.4062 16.2311 78.4062 14.5645V12.9863C78.4062 11.3197 78.625 9.81445 79.0625 8.4707C79.5104 7.11654 80.1458 5.96549 80.9688 5.01758C81.8021 4.06966 82.7969 3.34049 83.9531 2.83008C85.1094 2.31966 86.401 2.06445 87.8281 2.06445C89.724 2.06445 91.3229 2.4082 92.625 3.0957C93.9375 3.7832 94.9531 4.73112 95.6719 5.93945C96.401 7.14779 96.8385 8.52279 96.9844 10.0645H92.2969C92.2448 9.14779 92.0625 8.37174 91.75 7.73633C91.4375 7.09049 90.9635 6.60612 90.3281 6.2832C89.7031 5.94987 88.8698 5.7832 87.8281 5.7832C87.0469 5.7832 86.3646 5.92904 85.7812 6.2207C85.1979 6.51237 84.7083 6.95508 84.3125 7.54883C83.9167 8.14258 83.6198 8.89258 83.4219 9.79883C83.2344 10.6947 83.1406 11.7467 83.1406 12.9551V14.5645C83.1406 15.7415 83.2292 16.778 83.4062 17.6738C83.5833 18.5592 83.8542 19.3092 84.2188 19.9238C84.5938 20.528 85.0729 20.9863 85.6562 21.2988C86.25 21.6009 86.9635 21.752 87.7969 21.752C88.776 21.752 89.5833 21.5957 90.2188 21.2832C90.8542 20.9707 91.3385 20.5072 91.6719 19.8926C92.0156 19.278 92.2188 18.5124 92.2812 17.5957ZM106.734 21.9395C107.286 21.9395 107.776 21.8353 108.203 21.627C108.63 21.4082 108.964 21.1061 109.203 20.7207C109.453 20.3249 109.583 19.8613 109.594 19.3301H113.828C113.818 20.5176 113.5 21.5749 112.875 22.502C112.25 23.4186 111.411 24.1426 110.359 24.6738C109.307 25.1947 108.13 25.4551 106.828 25.4551C105.516 25.4551 104.37 25.2363 103.391 24.7988C102.422 24.3613 101.615 23.7572 100.969 22.9863C100.323 22.2051 99.8385 21.2988 99.5156 20.2676C99.1927 19.2259 99.0312 18.1113 99.0312 16.9238V16.4707C99.0312 15.2728 99.1927 14.1582 99.5156 13.127C99.8385 12.0853 100.323 11.179 100.969 10.4082C101.615 9.62695 102.422 9.01758 103.391 8.58008C104.359 8.14258 105.495 7.92383 106.797 7.92383C108.182 7.92383 109.396 8.18945 110.438 8.7207C111.49 9.25195 112.312 10.0124 112.906 11.002C113.51 11.9811 113.818 13.1426 113.828 14.4863H109.594C109.583 13.9238 109.464 13.4134 109.234 12.9551C109.016 12.4967 108.693 12.1322 108.266 11.8613C107.849 11.5801 107.333 11.4395 106.719 11.4395C106.062 11.4395 105.526 11.5801 105.109 11.8613C104.693 12.1322 104.37 12.5072 104.141 12.9863C103.911 13.4551 103.75 13.9915 103.656 14.5957C103.573 15.1895 103.531 15.8145 103.531 16.4707V16.9238C103.531 17.5801 103.573 18.2103 103.656 18.8145C103.74 19.4186 103.896 19.9551 104.125 20.4238C104.365 20.8926 104.693 21.2624 105.109 21.5332C105.526 21.804 106.068 21.9395 106.734 21.9395ZM123.703 25.1426H118.75L118.781 21.4863H123.703C124.932 21.4863 125.969 21.2103 126.812 20.6582C127.656 20.0957 128.292 19.278 128.719 18.2051C129.156 17.1322 129.375 15.8353 129.375 14.3145V13.2051C129.375 12.0384 129.25 11.0124 129 10.127C128.76 9.24154 128.401 8.49674 127.922 7.89258C127.443 7.28841 126.854 6.83529 126.156 6.5332C125.458 6.2207 124.656 6.06445 123.75 6.06445H118.656V2.39258H123.75C125.271 2.39258 126.661 2.65299 127.922 3.17383C129.193 3.68424 130.292 4.41862 131.219 5.37695C132.146 6.33529 132.859 7.48112 133.359 8.81445C133.87 10.1374 134.125 11.6113 134.125 13.2363V14.3145C134.125 15.929 133.87 17.403 133.359 18.7363C132.859 20.0697 132.146 21.2155 131.219 22.1738C130.302 23.1217 129.203 23.8561 127.922 24.377C126.651 24.8874 125.245 25.1426 123.703 25.1426ZM121.406 2.39258V25.1426H116.719V2.39258H121.406ZM147.234 21.4551V1.14258H151.766V25.1426H147.688L147.234 21.4551ZM136.547 16.8926V16.5645C136.547 15.2728 136.693 14.1009 136.984 13.0488C137.276 11.9863 137.703 11.0749 138.266 10.3145C138.828 9.55404 139.521 8.96549 140.344 8.54883C141.167 8.13216 142.104 7.92383 143.156 7.92383C144.146 7.92383 145.01 8.13216 145.75 8.54883C146.5 8.96549 147.135 9.55924 147.656 10.3301C148.188 11.0905 148.615 11.9915 148.938 13.0332C149.26 14.0645 149.495 15.1947 149.641 16.4238V17.1426C149.495 18.3197 149.26 19.4134 148.938 20.4238C148.615 21.4342 148.188 22.3197 147.656 23.0801C147.135 23.8301 146.5 24.4134 145.75 24.8301C145 25.2467 144.125 25.4551 143.125 25.4551C142.073 25.4551 141.135 25.2415 140.312 24.8145C139.5 24.3874 138.812 23.7884 138.25 23.0176C137.698 22.2467 137.276 21.3405 136.984 20.2988C136.693 19.2572 136.547 18.1217 136.547 16.8926ZM141.047 16.5645V16.8926C141.047 17.5905 141.099 18.2415 141.203 18.8457C141.318 19.4499 141.5 19.9863 141.75 20.4551C142.01 20.9134 142.344 21.2728 142.75 21.5332C143.167 21.7832 143.672 21.9082 144.266 21.9082C145.036 21.9082 145.672 21.7363 146.172 21.3926C146.672 21.0384 147.052 20.554 147.312 19.9395C147.583 19.3249 147.74 18.6165 147.781 17.8145V15.7676C147.75 15.1113 147.656 14.5228 147.5 14.002C147.354 13.4707 147.135 13.0176 146.844 12.6426C146.562 12.2676 146.208 11.9759 145.781 11.7676C145.365 11.5592 144.87 11.4551 144.297 11.4551C143.714 11.4551 143.214 11.5905 142.797 11.8613C142.38 12.1217 142.042 12.4811 141.781 12.9395C141.531 13.3978 141.344 13.9395 141.219 14.5645C141.104 15.179 141.047 15.8457 141.047 16.5645ZM170.828 21.4863V25.1426H158.719V21.4863H170.828ZM160.25 2.39258V25.1426H155.562V2.39258H160.25ZM169.25 11.6582V15.2207H158.719V11.6582H169.25ZM170.812 2.39258V6.06445H158.719V2.39258H170.812ZM180.75 25.4551C179.438 25.4551 178.26 25.2467 177.219 24.8301C176.177 24.403 175.292 23.8145 174.562 23.0645C173.844 22.3145 173.292 21.4447 172.906 20.4551C172.521 19.4551 172.328 18.3926 172.328 17.2676V16.6426C172.328 15.3613 172.51 14.1895 172.875 13.127C173.24 12.0645 173.76 11.1426 174.438 10.3613C175.125 9.58008 175.958 8.98112 176.938 8.56445C177.917 8.13737 179.021 7.92383 180.25 7.92383C181.448 7.92383 182.51 8.12174 183.438 8.51758C184.365 8.91341 185.141 9.47591 185.766 10.2051C186.401 10.9342 186.88 11.8092 187.203 12.8301C187.526 13.8405 187.688 14.9655 187.688 16.2051V18.0801H174.25V15.0801H183.266V14.7363C183.266 14.1113 183.151 13.554 182.922 13.0645C182.703 12.5645 182.37 12.1686 181.922 11.877C181.474 11.5853 180.901 11.4395 180.203 11.4395C179.609 11.4395 179.099 11.5697 178.672 11.8301C178.245 12.0905 177.896 12.4551 177.625 12.9238C177.365 13.3926 177.167 13.9447 177.031 14.5801C176.906 15.2051 176.844 15.8926 176.844 16.6426V17.2676C176.844 17.9447 176.938 18.5697 177.125 19.1426C177.323 19.7155 177.599 20.2103 177.953 20.627C178.318 21.0436 178.755 21.3665 179.266 21.5957C179.786 21.8249 180.375 21.9395 181.031 21.9395C181.844 21.9395 182.599 21.7832 183.297 21.4707C184.005 21.1478 184.615 20.6634 185.125 20.0176L187.312 22.3926C186.958 22.903 186.474 23.3926 185.859 23.8613C185.255 24.3301 184.526 24.7155 183.672 25.0176C182.818 25.3092 181.844 25.4551 180.75 25.4551ZM195.219 2.39258V25.1426H190.531V2.39258H195.219ZM204.281 12.1113V15.7676H193.938V12.1113H204.281ZM205.375 2.39258V6.06445H193.938V2.39258H205.375ZM213.547 25.1426H209.016V6.73633C209.016 5.45508 209.266 4.37695 209.766 3.50195C210.276 2.61654 210.99 1.94987 211.906 1.50195C212.833 1.04362 213.932 0.814453 215.203 0.814453C215.62 0.814453 216.021 0.845703 216.406 0.908203C216.792 0.960286 217.167 1.02799 217.531 1.11133L217.484 4.50195C217.286 4.44987 217.078 4.41341 216.859 4.39258C216.641 4.37174 216.385 4.36133 216.094 4.36133C215.552 4.36133 215.089 4.45508 214.703 4.64258C214.328 4.81966 214.042 5.08529 213.844 5.43945C213.646 5.79362 213.547 6.22591 213.547 6.73633V25.1426ZM216.922 8.23633V11.4238H206.5V8.23633H216.922ZM237.594 13.252V22.2676C237.24 22.6947 236.693 23.1582 235.953 23.6582C235.214 24.1478 234.26 24.5697 233.094 24.9238C231.927 25.278 230.516 25.4551 228.859 25.4551C227.391 25.4551 226.052 25.2155 224.844 24.7363C223.635 24.2467 222.594 23.5332 221.719 22.5957C220.854 21.6582 220.188 20.5124 219.719 19.1582C219.25 17.7936 219.016 16.2363 219.016 14.4863V13.0645C219.016 11.3145 219.24 9.75716 219.688 8.39258C220.146 7.02799 220.797 5.87695 221.641 4.93945C222.484 4.00195 223.49 3.28841 224.656 2.79883C225.823 2.30924 227.12 2.06445 228.547 2.06445C230.526 2.06445 232.151 2.38737 233.422 3.0332C234.693 3.66862 235.661 4.55404 236.328 5.68945C237.005 6.81445 237.422 8.10612 237.578 9.56445H233.031C232.917 8.79362 232.698 8.12174 232.375 7.54883C232.052 6.97591 231.589 6.52799 230.984 6.20508C230.391 5.88216 229.62 5.7207 228.672 5.7207C227.891 5.7207 227.193 5.88216 226.578 6.20508C225.974 6.51758 225.464 6.98112 225.047 7.5957C224.63 8.21029 224.312 8.9707 224.094 9.87695C223.875 10.7832 223.766 11.8353 223.766 13.0332V14.4863C223.766 15.6738 223.88 16.7259 224.109 17.6426C224.339 18.5488 224.677 19.3145 225.125 19.9395C225.583 20.554 226.146 21.0176 226.812 21.3301C227.479 21.6426 228.255 21.7988 229.141 21.7988C229.88 21.7988 230.495 21.7363 230.984 21.6113C231.484 21.4863 231.885 21.3353 232.188 21.1582C232.5 20.9707 232.74 20.7936 232.906 20.627V16.5957H228.625V13.252H237.594ZM251.797 8.23633H255.875V24.5801C255.875 26.1217 255.531 27.429 254.844 28.502C254.167 29.5853 253.219 30.403 252 30.9551C250.781 31.5176 249.365 31.7988 247.75 31.7988C247.042 31.7988 246.292 31.7051 245.5 31.5176C244.719 31.3301 243.969 31.0384 243.25 30.6426C242.542 30.2467 241.948 29.7467 241.469 29.1426L243.453 26.4863C243.974 27.0905 244.578 27.5592 245.266 27.8926C245.953 28.2363 246.714 28.4082 247.547 28.4082C248.359 28.4082 249.047 28.2572 249.609 27.9551C250.172 27.6634 250.604 27.2311 250.906 26.6582C251.208 26.0957 251.359 25.4134 251.359 24.6113V12.1426L251.797 8.23633ZM240.422 16.8926V16.5645C240.422 15.2728 240.578 14.1009 240.891 13.0488C241.214 11.9863 241.667 11.0749 242.25 10.3145C242.844 9.55404 243.562 8.96549 244.406 8.54883C245.25 8.13216 246.203 7.92383 247.266 7.92383C248.391 7.92383 249.333 8.13216 250.094 8.54883C250.854 8.96549 251.479 9.55924 251.969 10.3301C252.458 11.0905 252.839 11.9915 253.109 13.0332C253.391 14.0645 253.609 15.1947 253.766 16.4238V17.1426C253.609 18.3197 253.375 19.4134 253.062 20.4238C252.75 21.4342 252.339 22.3197 251.828 23.0801C251.318 23.8301 250.682 24.4134 249.922 24.8301C249.172 25.2467 248.276 25.4551 247.234 25.4551C246.193 25.4551 245.25 25.2415 244.406 24.8145C243.573 24.3874 242.859 23.7884 242.266 23.0176C241.672 22.2467 241.214 21.3405 240.891 20.2988C240.578 19.2572 240.422 18.1217 240.422 16.8926ZM244.922 16.5645V16.8926C244.922 17.5905 244.99 18.2415 245.125 18.8457C245.26 19.4499 245.469 19.9863 245.75 20.4551C246.042 20.9134 246.401 21.2728 246.828 21.5332C247.266 21.7832 247.781 21.9082 248.375 21.9082C249.198 21.9082 249.87 21.7363 250.391 21.3926C250.911 21.0384 251.302 20.554 251.562 19.9395C251.823 19.3249 251.974 18.6165 252.016 17.8145V15.7676C251.995 15.1113 251.906 14.5228 251.75 14.002C251.594 13.4707 251.375 13.0176 251.094 12.6426C250.812 12.2676 250.448 11.9759 250 11.7676C249.552 11.5592 249.021 11.4551 248.406 11.4551C247.812 11.4551 247.297 11.5905 246.859 11.8613C246.432 12.1217 246.073 12.4811 245.781 12.9395C245.5 13.3978 245.286 13.9395 245.141 14.5645C244.995 15.179 244.922 15.8457 244.922 16.5645ZM274.828 11.6582V15.3145H262.953V11.6582H274.828ZM264.344 2.39258V25.1426H259.656V2.39258H264.344ZM278.172 2.39258V25.1426H273.5V2.39258H278.172ZM286.359 1.14258V25.1426H281.859V1.14258H286.359ZM285.719 16.0957H284.484C284.495 14.9186 284.651 13.8353 284.953 12.8457C285.255 11.8457 285.688 10.9811 286.25 10.252C286.812 9.51237 287.484 8.93945 288.266 8.5332C289.057 8.12695 289.932 7.92383 290.891 7.92383C291.724 7.92383 292.479 8.04362 293.156 8.2832C293.844 8.51237 294.432 8.88737 294.922 9.4082C295.422 9.91862 295.807 10.5905 296.078 11.4238C296.349 12.2572 296.484 13.2676 296.484 14.4551V25.1426H291.953V14.4238C291.953 13.6738 291.844 13.0853 291.625 12.6582C291.417 12.2207 291.109 11.9134 290.703 11.7363C290.307 11.5488 289.818 11.4551 289.234 11.4551C288.589 11.4551 288.036 11.5749 287.578 11.8145C287.13 12.054 286.771 12.3874 286.5 12.8145C286.229 13.2311 286.031 13.7207 285.906 14.2832C285.781 14.8457 285.719 15.4499 285.719 16.0957Z" fill="white"/>
</svg>
