<svg width="537" height="116" fill="none" xmlns="http://www.w3.org/2000/svg"><rect width="537" height="116" rx="10" fill="#F8F8F8" fill-opacity=".1"/><path d="M60.011 46.727V70h-4.92V51.398h-.136l-5.33 3.34v-4.363l5.761-3.648h4.625zm7.157 23.569c-.75 0-1.394-.266-1.932-.796a2.655 2.655 0 0 1-.796-1.932c0-.742.266-1.379.796-1.909a2.655 2.655 0 0 1 1.932-.795c.727 0 1.363.265 1.909.795.545.53.818 1.167.818 1.91 0 .5-.129.957-.386 1.374-.25.41-.58.739-.99.989-.408.242-.859.364-1.351.364zm6.304-4.387v-3.875l9.716-15.307h3.34v5.364h-1.977l-6.125 9.693v.182h13.807v3.943H73.472zM84.642 70v-5.273l.091-1.716V46.727h4.614V70h-4.705zm21.051-24.364-7.5 27.864h-4.17l7.5-27.864h4.17zm10.787 24.682c-1.606 0-3.038-.295-4.295-.886-1.25-.591-2.243-1.406-2.978-2.443-.734-1.038-1.117-2.228-1.147-3.569h4.772c.053.902.432 1.633 1.137 2.194.704.56 1.541.84 2.511.84.773 0 1.455-.17 2.046-.51a3.658 3.658 0 0 0 1.397-1.444c.341-.621.512-1.333.512-2.136 0-.819-.175-1.538-.523-2.16a3.69 3.69 0 0 0-1.421-1.454c-.606-.349-1.299-.526-2.079-.534-.682 0-1.345.14-1.989.42-.636.28-1.132.663-1.488 1.148L108.56 59l1.102-12.273h14.227v4.023h-10.17l-.603 5.83h.137c.409-.576 1.026-1.053 1.852-1.432.826-.38 1.75-.569 2.773-.569 1.401 0 2.651.33 3.75.99a7.12 7.12 0 0 1 2.602 2.715c.636 1.144.951 2.462.943 3.955.008 1.568-.356 2.962-1.091 4.182-.727 1.212-1.746 2.166-3.056 2.863-1.303.69-2.819 1.034-4.546 1.034z" fill="#fff"/><path d="M146.972 61.273V70h-1.057v-7.62h-.051l-2.131 1.415v-1.073l2.182-1.45h1.057zm5.237 8.846c-.5 0-.95-.1-1.351-.298a2.502 2.502 0 0 1-.963-.818 2.218 2.218 0 0 1-.396-1.185h1.022c.04.395.219.722.537.98.321.256.705.384 1.151.384.358 0 .676-.084.954-.252a1.77 1.77 0 0 0 .661-.69c.162-.295.243-.63.243-1.001 0-.381-.084-.72-.252-1.019a1.843 1.843 0 0 0-.681-.712 1.928 1.928 0 0 0-.993-.264 2.732 2.732 0 0 0-.823.124 2.276 2.276 0 0 0-.694.32l-.989-.12.528-4.295h4.534v.937h-3.647l-.307 2.574h.051a2.27 2.27 0 0 1 .673-.354c.27-.093.551-.14.844-.14a2.681 2.681 0 0 1 2.416 1.423c.242.44.362.943.362 1.509 0 .556-.125 1.054-.375 1.491a2.743 2.743 0 0 1-1.022 1.031c-.435.25-.929.375-1.483.375zm7.42 0c-.642 0-1.189-.174-1.641-.524-.451-.352-.797-.862-1.035-1.53-.239-.67-.358-1.48-.358-2.429 0-.943.119-1.748.358-2.416.241-.67.588-1.182 1.04-1.534.454-.355 1-.533 1.636-.533.636 0 1.18.178 1.632.533.455.352.801.864 1.04 1.534.241.668.362 1.473.362 2.416 0 .95-.119 1.759-.358 2.43-.239.667-.584 1.177-1.035 1.53-.452.349-.999.523-1.641.523zm0-.937c.636 0 1.131-.307 1.483-.92.352-.614.528-1.49.528-2.626 0-.755-.081-1.399-.243-1.93-.159-.531-.389-.936-.69-1.215a1.524 1.524 0 0 0-1.078-.417c-.631 0-1.124.31-1.479.933-.355.62-.532 1.496-.532 2.63 0 .755.079 1.397.238 1.925.159.529.388.93.686 1.207.301.275.664.413 1.087.413zm7.227-.716V62.84h.955v5.625h-.955zm-2.335-2.335v-.955h5.625v.955h-5.625zm11.2 3.869v-8.727h2.949c.682 0 1.241.116 1.679.35.437.23.761.546.971.95.211.403.316.862.316 1.376 0 .514-.105.97-.316 1.368-.21.398-.532.71-.967.937-.435.225-.99.337-1.666.337H176.3v-.955h2.353c.466 0 .841-.068 1.125-.204.287-.136.494-.33.622-.58a1.94 1.94 0 0 0 .196-.903c0-.35-.065-.655-.196-.916a1.339 1.339 0 0 0-.627-.605c-.286-.145-.666-.218-1.137-.218h-1.858V70h-1.057zm4.108-3.92 2.148 3.92h-1.228l-2.113-3.92h1.193zm5.357 4.073a2.66 2.66 0 0 1-1.129-.234 1.939 1.939 0 0 1-.805-.686c-.199-.301-.299-.665-.299-1.091 0-.375.074-.679.222-.912.148-.236.345-.42.592-.554.248-.133.52-.233.819-.298.301-.068.603-.122.907-.162.398-.051.72-.09.968-.115.25-.029.431-.075.545-.14.117-.066.175-.18.175-.342v-.034c0-.42-.115-.747-.345-.98-.228-.233-.573-.35-1.036-.35-.48 0-.856.106-1.129.316-.273.21-.465.435-.575.673l-.955-.34c.17-.398.398-.708.682-.93.287-.224.599-.38.937-.468.341-.091.676-.137 1.006-.137.21 0 .452.026.724.077.276.048.542.15.797.303.259.153.473.384.644.694.17.31.255.725.255 1.245V70h-1.005v-.886h-.051a1.791 1.791 0 0 1-.341.456 1.97 1.97 0 0 1-.635.413c-.264.114-.587.17-.968.17zm.154-.903c.398 0 .733-.078 1.006-.234.275-.157.482-.358.622-.606.142-.247.213-.507.213-.78v-.92c-.043.051-.137.098-.281.14-.143.04-.307.076-.495.107a22.013 22.013 0 0 1-.963.128c-.261.034-.506.09-.733.166a1.263 1.263 0 0 0-.545.337c-.137.148-.205.35-.205.605 0 .35.129.614.388.793.261.176.592.264.993.264zm7.529-5.795v.852h-3.392v-.852h3.392zm-2.404-1.569h1.006v6.239c0 .284.041.497.123.64.086.138.194.232.324.28.134.046.274.069.422.069.111 0 .202-.006.273-.017l.17-.034.205.903a2.017 2.017 0 0 1-.286.077 2.1 2.1 0 0 1-.464.042c-.284 0-.563-.06-.835-.183a1.66 1.66 0 0 1-.674-.558c-.176-.25-.264-.566-.264-.946v-6.512zM194.381 70v-6.545h1.006V70h-1.006zm.512-7.636a.715.715 0 0 1-.507-.2.641.641 0 0 1-.209-.482.64.64 0 0 1 .209-.482.715.715 0 0 1 .507-.2c.196 0 .363.067.503.2a.637.637 0 0 1 .213.482.638.638 0 0 1-.213.481.702.702 0 0 1-.503.2zm3.342 3.699V70h-1.006v-6.545h.972v1.022h.085c.153-.332.386-.6.699-.8.312-.205.716-.308 1.21-.308.443 0 .831.091 1.163.273.333.179.591.452.776.818.185.364.277.824.277 1.38V70h-1.006v-4.09c0-.515-.133-.916-.4-1.203-.267-.29-.634-.434-1.1-.434-.321 0-.608.07-.861.209-.25.139-.447.342-.592.609-.145.267-.217.59-.217.972zm8.656 6.528c-.486 0-.904-.063-1.253-.188a2.656 2.656 0 0 1-.874-.485 2.674 2.674 0 0 1-.55-.64l.802-.562c.091.12.206.256.345.409.139.156.329.291.571.405.244.116.564.174.959.174.528 0 .964-.127 1.308-.383.344-.256.515-.656.515-1.202v-1.33h-.085a5.54 5.54 0 0 1-.315.444 1.794 1.794 0 0 1-.58.464c-.25.134-.588.2-1.014.2a2.73 2.73 0 0 1-1.423-.374 2.626 2.626 0 0 1-.993-1.091c-.241-.478-.362-1.057-.362-1.739 0-.67.118-1.254.353-1.751.236-.5.564-.887.985-1.16.42-.275.906-.413 1.457-.413.426 0 .764.071 1.014.213.253.14.446.299.58.478a7 7 0 0 1 .315.434h.103v-1.04h.971v6.733c0 .563-.128 1.02-.383 1.373a2.185 2.185 0 0 1-1.023.78 3.86 3.86 0 0 1-1.423.25zm-.034-3.597c.403 0 .744-.092 1.022-.277.279-.184.49-.45.635-.796.145-.347.218-.762.218-1.245 0-.472-.071-.888-.214-1.248a1.875 1.875 0 0 0-.63-.849c-.279-.204-.622-.306-1.031-.306-.427 0-.782.108-1.066.324a1.974 1.974 0 0 0-.635.869 3.365 3.365 0 0 0-.209 1.21c0 .455.071.857.214 1.206.144.347.357.62.639.818.284.196.636.294 1.057.294zm9.34-4.073-.903.255a1.706 1.706 0 0 0-.251-.439 1.219 1.219 0 0 0-.444-.358c-.187-.094-.427-.14-.72-.14-.4 0-.734.092-1.001.277-.264.181-.396.413-.396.694 0 .25.09.448.272.593.182.144.466.265.853.362l.971.238c.585.142 1.021.36 1.308.652.287.29.431.664.431 1.121 0 .375-.108.71-.324 1.006a2.145 2.145 0 0 1-.895.699c-.384.17-.83.255-1.338.255-.668 0-1.22-.144-1.658-.434-.437-.29-.714-.713-.831-1.27l.955-.239c.091.353.263.617.515.793.256.176.59.264 1.002.264.469 0 .841-.1 1.116-.298.279-.202.418-.444.418-.725a.762.762 0 0 0-.239-.57c-.159-.157-.403-.273-.733-.35l-1.091-.256c-.599-.142-1.039-.362-1.321-.66-.278-.302-.417-.678-.417-1.13 0-.369.104-.696.311-.98a2.12 2.12 0 0 1 .856-.669 3.011 3.011 0 0 1 1.236-.243c.648 0 1.157.142 1.526.426.372.284.636.66.792 1.126z" fill="#CECECE"/><path d="M269.42 32.08c-.333 0-.633-.067-.9-.2a1.673 1.673 0 0 1-.642-.545 1.484 1.484 0 0 1-.264-.79h.681a.937.937 0 0 0 .358.654c.214.17.47.255.767.255a1.185 1.185 0 0 0 1.077-.628c.108-.196.162-.419.162-.667 0-.254-.056-.48-.168-.679a1.224 1.224 0 0 0-.454-.474 1.285 1.285 0 0 0-.662-.177 1.818 1.818 0 0 0-.548.083 1.518 1.518 0 0 0-.463.213l-.659-.08.352-2.863h3.023v.625h-2.432l-.205 1.716h.034a1.706 1.706 0 0 1 1.012-.33c.356 0 .673.085.951.256.281.168.5.4.659.693.161.294.242.629.242 1.006 0 .37-.083.702-.25.994-.165.29-.392.519-.682.688-.29.166-.619.25-.989.25zM267.466 45.807v-.58l2.557-4.045h.42v.898h-.284l-1.932 3.056v.046h3.443v.625h-4.204zM270.205 47v-5.818h.67V47h-.67zM269.568 62.08c-.375 0-.709-.065-1.003-.194a1.727 1.727 0 0 1-.696-.537 1.445 1.445 0 0 1-.278-.803h.716c.015.187.079.349.193.485.114.135.262.239.446.313.184.074.387.11.611.11.25 0 .471-.043.665-.13.193-.087.344-.209.454-.364a.91.91 0 0 0 .165-.54c0-.214-.053-.402-.159-.565a1.056 1.056 0 0 0-.466-.386 1.811 1.811 0 0 0-.75-.14H269v-.624h.466c.231 0 .434-.042.608-.125a.98.98 0 0 0 .412-.353c.1-.151.15-.33.15-.534a.984.984 0 0 0-.13-.514.895.895 0 0 0-.37-.34 1.19 1.19 0 0 0-.556-.123 1.47 1.47 0 0 0-.569.11c-.176.073-.32.178-.431.316a.817.817 0 0 0-.182.494h-.682c.011-.305.103-.572.275-.8.173-.232.398-.412.677-.54.28-.13.588-.194.923-.194.36 0 .668.073.926.219.258.144.456.334.594.571.138.237.207.492.207.767 0 .328-.086.607-.258.838a1.315 1.315 0 0 1-.696.48v.046c.367.06.654.217.86.468.207.25.31.56.31.93 0 .316-.086.6-.258.852-.171.25-.404.447-.699.59a2.276 2.276 0 0 1-1.009.217zM267.602 77v-.511l1.921-2.103c.225-.246.411-.46.557-.642.145-.183.253-.356.323-.517.072-.163.108-.333.108-.511a.947.947 0 0 0-.147-.531.964.964 0 0 0-.398-.347 1.29 1.29 0 0 0-.568-.122c-.224 0-.419.046-.586.14a.963.963 0 0 0-.383.383 1.202 1.202 0 0 0-.134.58h-.67c0-.342.079-.641.236-.898.157-.258.371-.459.642-.603.273-.144.578-.216.917-.216.341 0 .643.072.907.216.263.144.469.338.619.583.15.244.224.516.224.815 0 .214-.038.423-.116.628a2.765 2.765 0 0 1-.398.679c-.187.248-.448.55-.781.909l-1.307 1.397v.046h2.705V77h-3.671zM269.648 86.182V92h-.705v-5.08h-.034l-1.42.944v-.716l1.454-.966h.705z" fill="#fff"/><rect x="281" y="25" width="208" height="7" rx="3.5" fill="#fff"/><rect x="281" y="40" width="208" height="7" rx="3.5" fill="#fff"/><rect x="281" y="55" width="208" height="7" rx="3.5" fill="#fff"/><rect x="281" y="70" width="208" height="7" rx="3.5" fill="#fff"/><rect x="281" y="85" width="208" height="7" rx="3.5" fill="#fff"/><rect x="281" y="25" width="51" height="7" rx="3.5" fill="#fff"/><rect x="281" y="25" width="51" height="7" rx="3.5" fill="#01EB64"/><rect x="281" y="55" width="20" height="7" rx="3.5" fill="#fff"/><rect x="281" y="55" width="20" height="7" rx="3.5" fill="#01EB64"/><rect x="281" y="70" width="33" height="7" rx="3.5" fill="#fff"/><rect x="281" y="70" width="33" height="7" rx="3.5" fill="#01EB64"/><rect x="281" y="85" width="150" height="7" rx="3.5" fill="#fff"/><rect x="281" y="85" width="150" height="7" rx="3.5" fill="#01EB64"/></svg>