<svg width="538" height="440" fill="none" xmlns="http://www.w3.org/2000/svg"><rect width="538" height="440" rx="16.06" fill="#F8F8F8"/><path d="M107.379 402.767v-1.118l3.458-3.583c.369-.389.673-.73.913-1.023.243-.296.424-.577.544-.843.12-.266.18-.549.18-.848 0-.34-.08-.632-.24-.879a1.57 1.57 0 0 0-.654-.573 2.07 2.07 0 0 0-.933-.205c-.366 0-.685.075-.958.225a1.54 1.54 0 0 0-.629.633 2.001 2.001 0 0 0-.219.958h-1.472c0-.622.143-1.166.429-1.631a2.91 2.91 0 0 1 1.177-1.083c.499-.26 1.067-.389 1.702-.389.642 0 1.208.128 1.697.384.492.253.876.599 1.152 1.038.277.436.415.928.415 1.477 0 .379-.072.75-.215 1.113-.14.362-.384.766-.734 1.212-.349.443-.835.98-1.457 1.612l-2.031 2.126v.075h4.601v1.322h-6.726zm12.176.17c-.789-.004-1.463-.211-2.021-.624-.559-.413-.987-1.013-1.283-1.801-.296-.789-.444-1.739-.444-2.85 0-1.108.148-2.054.444-2.839.299-.785.729-1.384 1.287-1.797.563-.412 1.235-.618 2.017-.618.781 0 1.452.207 2.011.623.558.413.986 1.012 1.282 1.797.299.782.449 1.726.449 2.834 0 1.115-.148 2.066-.444 2.855-.296.785-.724 1.385-1.282 1.801-.559.412-1.231.619-2.016.619zm0-1.333c.691 0 1.232-.337 1.621-1.013.393-.675.589-1.651.589-2.929 0-.848-.09-1.565-.269-2.151-.177-.588-.431-1.034-.764-1.337a1.67 1.67 0 0 0-1.177-.459c-.689 0-1.23.339-1.622 1.018-.393.679-.591 1.655-.594 2.929 0 .852.088 1.572.264 2.161.18.585.435 1.03.764 1.332a1.7 1.7 0 0 0 1.188.449zm9.39-9.057v10.22h-1.547v-8.673h-.06l-2.445 1.597v-1.477l2.55-1.667h1.502zm6.332 10.36a4.118 4.118 0 0 1-1.347-.25 3.163 3.163 0 0 1-1.198-.798c-.359-.373-.647-.873-.863-1.502-.213-.629-.319-1.414-.319-2.355 0-.892.088-1.684.264-2.376.18-.692.438-1.276.774-1.751a3.418 3.418 0 0 1 1.217-1.093 3.392 3.392 0 0 1 1.602-.374c.609 0 1.149.119 1.622.359.472.239.855.57 1.147.993.297.422.485.903.564 1.442h-1.522a1.967 1.967 0 0 0-.613-1.043c-.306-.269-.706-.404-1.198-.404-.749 0-1.332.326-1.752.978-.415.652-.625 1.559-.628 2.72h.074c.177-.29.393-.536.649-.739.26-.206.549-.364.868-.474.323-.113.663-.17 1.018-.17.593 0 1.128.145 1.607.434.483.287.867.682 1.153 1.188.286.506.429 1.085.429 1.737 0 .652-.148 1.242-.444 1.771a3.263 3.263 0 0 1-1.237 1.258c-.533.306-1.155.455-1.867.449zm-.005-1.298c.393 0 .744-.096 1.053-.289.31-.193.554-.452.734-.779.179-.326.269-.69.269-1.092 0-.393-.088-.751-.264-1.073a2 2 0 0 0-.719-.769 1.92 1.92 0 0 0-1.038-.284c-.296 0-.57.056-.823.17-.25.113-.469.269-.659.469-.19.199-.339.429-.449.688-.107.256-.16.528-.16.814a2.167 2.167 0 0 0 .998 1.851c.313.196.666.294 1.058.294zM259.819 402.767v-1.118l3.458-3.583c.369-.389.674-.73.913-1.023.243-.296.425-.577.544-.843.12-.266.18-.549.18-.848 0-.34-.08-.632-.24-.879a1.561 1.561 0 0 0-.653-.573 2.07 2.07 0 0 0-.933-.205c-.366 0-.686.075-.959.225a1.538 1.538 0 0 0-.628.633 1.99 1.99 0 0 0-.22.958h-1.472c0-.622.143-1.166.429-1.631a2.913 2.913 0 0 1 1.178-1.083c.499-.26 1.066-.389 1.701-.389.643 0 1.208.128 1.697.384a2.89 2.89 0 0 1 1.153 1.038c.276.436.414.928.414 1.477 0 .379-.071.75-.215 1.113-.139.362-.384.766-.733 1.212-.349.443-.835.98-1.457 1.612l-2.031 2.126v.075h4.601v1.322h-6.727zm12.176.17c-.789-.004-1.462-.211-2.021-.624-.559-.413-.986-1.013-1.283-1.801-.296-.789-.444-1.739-.444-2.85 0-1.108.148-2.054.444-2.839.3-.785.729-1.384 1.288-1.797.562-.412 1.234-.618 2.016-.618s1.452.207 2.011.623c.559.413.986 1.012 1.282 1.797.3.782.45 1.726.45 2.834 0 1.115-.148 2.066-.445 2.855-.296.785-.723 1.385-1.282 1.801-.559.412-1.231.619-2.016.619zm0-1.333c.692 0 1.233-.337 1.622-1.013.392-.675.589-1.651.589-2.929 0-.848-.09-1.565-.27-2.151-.176-.588-.431-1.034-.763-1.337a1.672 1.672 0 0 0-1.178-.459c-.689 0-1.229.339-1.622 1.018-.392.679-.59 1.655-.594 2.929 0 .852.088 1.572.265 2.161.179.585.434 1.03.763 1.332.33.3.726.449 1.188.449zm9.39-9.057v10.22h-1.547v-8.673h-.06l-2.445 1.597v-1.477l2.55-1.667h1.502zm6.218 10.36c-.715 0-1.347-.123-1.896-.369-.546-.247-.973-.586-1.283-1.018a2.456 2.456 0 0 1-.459-1.478 2.6 2.6 0 0 1 1.008-2.105 2.29 2.29 0 0 1 1.048-.469v-.06a2.062 2.062 0 0 1-1.223-.819 2.395 2.395 0 0 1-.454-1.457 2.396 2.396 0 0 1 .414-1.397 2.89 2.89 0 0 1 1.163-.973c.493-.236 1.053-.354 1.682-.354.622 0 1.178.119 1.667.359.492.236.879.56 1.162.973.283.409.426.873.429 1.392a2.42 2.42 0 0 1-.469 1.457 2.077 2.077 0 0 1-1.207.819v.06c.382.066.727.222 1.033.469.309.242.555.547.738.913.187.362.281.76.285 1.192a2.512 2.512 0 0 1-.469 1.478c-.31.432-.739.771-1.288 1.018-.545.246-1.173.369-1.881.369zm0-1.263c.422 0 .788-.07 1.098-.209.309-.143.549-.341.718-.594.17-.256.256-.556.26-.898a1.686 1.686 0 0 0-.28-.943 1.86 1.86 0 0 0-.733-.644 2.32 2.32 0 0 0-1.063-.235c-.403 0-.76.078-1.073.235a1.856 1.856 0 0 0-.739.644 1.651 1.651 0 0 0-.264.943c-.003.342.078.642.244.898.17.253.411.451.724.594.313.139.682.209 1.108.209zm0-4.755c.339 0 .64-.068.903-.205.263-.136.469-.326.619-.569.153-.243.231-.527.234-.853a1.573 1.573 0 0 0-.229-.838 1.454 1.454 0 0 0-.614-.554 1.996 1.996 0 0 0-.913-.2c-.353 0-.662.067-.928.2a1.448 1.448 0 0 0-.614.554 1.548 1.548 0 0 0-.215.838c-.003.326.07.61.22.853s.356.433.619.569c.266.137.572.205.918.205zM412.259 402.767v-1.118l3.458-3.583c.37-.389.674-.73.914-1.023.242-.296.424-.577.543-.843.12-.266.18-.549.18-.848 0-.34-.08-.632-.239-.879a1.57 1.57 0 0 0-.654-.573 2.07 2.07 0 0 0-.933-.205c-.366 0-.686.075-.958.225a1.535 1.535 0 0 0-.629.633 1.99 1.99 0 0 0-.22.958h-1.472c0-.622.143-1.166.429-1.631a2.913 2.913 0 0 1 1.178-1.083c.499-.26 1.066-.389 1.702-.389.642 0 1.207.128 1.696.384.493.253.877.599 1.153 1.038.276.436.414.928.414 1.477 0 .379-.071.75-.214 1.113-.14.362-.385.766-.734 1.212-.349.443-.835.98-1.457 1.612l-2.031 2.126v.075h4.601v1.322h-6.727zm12.176.17c-.788-.004-1.462-.211-2.021-.624-.559-.413-.986-1.013-1.282-1.801-.296-.789-.444-1.739-.444-2.85 0-1.108.148-2.054.444-2.839.299-.785.728-1.384 1.287-1.797.562-.412 1.234-.618 2.016-.618s1.452.207 2.011.623c.559.413.987 1.012 1.283 1.797.299.782.449 1.726.449 2.834 0 1.115-.148 2.066-.444 2.855-.296.785-.724 1.385-1.283 1.801-.559.412-1.231.619-2.016.619zm0-1.333c.692 0 1.233-.337 1.622-1.013.392-.675.589-1.651.589-2.929 0-.848-.09-1.565-.27-2.151-.176-.588-.431-1.034-.763-1.337a1.672 1.672 0 0 0-1.178-.459c-.689 0-1.229.339-1.622 1.018-.392.679-.59 1.655-.593 2.929 0 .852.088 1.572.264 2.161.18.585.434 1.03.763 1.332.33.3.726.449 1.188.449zm5.513 1.163v-1.118l3.458-3.583c.369-.389.674-.73.913-1.023.243-.296.425-.577.544-.843.12-.266.18-.549.18-.848 0-.34-.08-.632-.24-.879a1.561 1.561 0 0 0-.653-.573 2.07 2.07 0 0 0-.933-.205c-.366 0-.686.075-.959.225a1.538 1.538 0 0 0-.628.633 1.99 1.99 0 0 0-.22.958h-1.472c0-.622.143-1.166.429-1.631a2.913 2.913 0 0 1 1.178-1.083c.499-.26 1.066-.389 1.701-.389.643 0 1.208.128 1.697.384a2.89 2.89 0 0 1 1.153 1.038c.276.436.414.928.414 1.477 0 .379-.072.75-.215 1.113-.139.362-.384.766-.733 1.212-.349.443-.835.98-1.457 1.612l-2.031 2.126v.075h4.601v1.322h-6.727zm12.176.17c-.789-.004-1.462-.211-2.021-.624-.559-.413-.986-1.013-1.283-1.801-.296-.789-.444-1.739-.444-2.85 0-1.108.148-2.054.444-2.839.3-.785.729-1.384 1.288-1.797.562-.412 1.234-.618 2.016-.618s1.452.207 2.011.623c.559.413.986 1.012 1.282 1.797.3.782.45 1.726.45 2.834 0 1.115-.149 2.066-.445 2.855-.296.785-.723 1.385-1.282 1.801-.559.412-1.231.619-2.016.619zm0-1.333c.692 0 1.232-.337 1.622-1.013.392-.675.589-1.651.589-2.929 0-.848-.09-1.565-.27-2.151-.176-.588-.431-1.034-.763-1.337a1.672 1.672 0 0 0-1.178-.459c-.689 0-1.229.339-1.622 1.018-.392.679-.59 1.655-.594 2.929 0 .852.088 1.572.265 2.161.179.585.434 1.03.763 1.332.33.3.726.449 1.188.449z" fill="#8D8D8D"/><path d="M105.392 365.662c14.919-33.357 63.291-98.011 117.371-124.75 52.283-25.852 76.319-58.545 108.534-74.248 27.227-13.271 88.618-49.714 116.367-89.312" stroke="#00EB65" stroke-width="6.022" stroke-linecap="round" stroke-linejoin="round"/><path d="M63.219 78.64c.456.004.905.087 1.347.25.443.163.842.43 1.198.798.36.37.645.869.858 1.497.216.626.326 1.404.33 2.336 0 .895-.09 1.692-.27 2.39-.18.695-.437 1.283-.773 1.762-.333.479-.737.843-1.213 1.093a3.407 3.407 0 0 1-1.607.374c-.609 0-1.15-.12-1.622-.36a3.089 3.089 0 0 1-1.152-.993 3.284 3.284 0 0 1-.554-1.467h1.522c.1.44.302.795.608 1.068.31.27.71.404 1.198.404.749 0 1.332-.326 1.752-.978.419-.655.63-1.57.633-2.744h-.08c-.172.286-.389.532-.648.738a2.921 2.921 0 0 1-.863.48c-.32.112-.66.169-1.023.169a3.063 3.063 0 0 1-1.607-.434A3.202 3.202 0 0 1 60.1 83.83c-.286-.505-.43-1.083-.43-1.731 0-.646.147-1.231.44-1.757a3.277 3.277 0 0 1 1.238-1.247c.532-.31 1.156-.461 1.87-.454zm.005 1.298c-.39 0-.74.096-1.053.29-.31.189-.554.447-.734.773-.18.322-.27.682-.27 1.078s.087.755.26 1.078c.177.319.416.573.719.763.306.186.655.28 1.048.28.293 0 .566-.057.818-.17.253-.113.474-.27.664-.47.19-.202.338-.432.444-.688.107-.256.16-.525.16-.808 0-.376-.09-.725-.27-1.048a2.099 2.099 0 0 0-.728-.779c-.31-.2-.662-.3-1.058-.3zm7.12 7.665-.074.544c-.05.399-.135.815-.255 1.247-.116.436-.237.84-.364 1.213-.123.372-.224.668-.304.888h-1.058c.043-.206.103-.486.18-.838.076-.35.15-.74.224-1.173.073-.432.128-.873.165-1.322l.05-.56h1.437zm5.275 1.567c-.788-.004-1.462-.212-2.02-.624-.56-.413-.987-1.013-1.283-1.802-.296-.788-.444-1.738-.444-2.849 0-1.108.148-2.054.444-2.84.3-.784.728-1.383 1.287-1.796.563-.412 1.235-.618 2.016-.618.782 0 1.453.207 2.011.623.56.413.987 1.012 1.283 1.797.3.781.449 1.726.449 2.834 0 1.115-.148 2.066-.444 2.854-.296.786-.724 1.386-1.283 1.802-.559.412-1.23.619-2.016.619zm0-1.333c.692 0 1.233-.337 1.622-1.013.393-.675.589-1.651.589-2.929 0-.848-.09-1.565-.27-2.15-.176-.59-.43-1.035-.763-1.338a1.67 1.67 0 0 0-1.178-.46c-.688 0-1.229.34-1.621 1.019-.393.678-.59 1.655-.594 2.93 0 .85.088 1.571.264 2.16.18.585.434 1.03.764 1.332.33.3.725.45 1.187.45z" fill="#8D8D8D"/><path d="M449.436 83.507H103.149" stroke="#E8E8E8" stroke-width="2.007" stroke-linecap="round" stroke-linejoin="round" stroke-dasharray="4.01 4.01"/><path d="m64.17 196.014 4.461-8.822v-.075h-5.16v-1.323h6.757v1.368l-4.446 8.852H64.17zm7.998-1.397-.075.544a8.73 8.73 0 0 1-.254 1.247c-.117.436-.238.84-.364 1.213-.124.373-.225.669-.305.888h-1.058c.044-.206.103-.485.18-.838.076-.349.151-.74.224-1.173.074-.432.128-.873.165-1.322l.05-.559h1.437zm2.17 1.397 4.462-8.822v-.075h-5.16v-1.323h6.757v1.368l-4.446 8.852h-1.612z" fill="#8D8D8D"/><path d="M449.436 190.521H103.149" stroke="#E8E8E8" stroke-width="2.007" stroke-linecap="round" stroke-linejoin="round" stroke-dasharray="4.01 4.01"/><path d="m61.853 303.028 4.461-8.822v-.075h-5.16v-1.322h6.757v1.367l-4.446 8.852h-1.612zm7.998-1.397-.075.544a8.77 8.77 0 0 1-.255 1.248c-.116.435-.237.84-.364 1.212-.123.373-.224.669-.304.888h-1.058c.043-.206.103-.485.18-.838.076-.349.15-.74.224-1.173.073-.432.128-.873.165-1.322l.05-.559h1.437zm1.872-.599v-1.247l4.417-6.976h.983v1.836h-.624l-3.159 5v.08h6.053v1.307h-7.67zm4.846 1.996v-2.375l.01-.569v-7.275h1.462v10.219h-1.472z" fill="#8D8D8D"/><path d="M449.436 297.528H103.149" stroke="#E8E8E8" stroke-width="2.007" stroke-linecap="round" stroke-linejoin="round" stroke-dasharray="4.01 4.01"/><path d="M102.381 38.173v330.503h346.287" stroke="#E8E8E8" stroke-width="2.007"/><ellipse cx="445.657" cy="80.365" rx="12.045" ry="12.055" fill="#01EB64"/><ellipse cx="445.657" cy="80.365" rx="8.03" ry="8.037" fill="#fff"/><g filter="url(#a)"><rect x="300" y="45.94" width="113.149" height="56.119" rx="16.06" fill="#fff" shape-rendering="crispEdges"/><path d="M326.541 66.2c.75 0 1.473.127 2.167.379a4.988 4.988 0 0 1 1.867 1.204c.552.552.987 1.284 1.305 2.196.323.908.487 2.022.492 3.343 0 1.24-.14 2.348-.421 3.322-.275.97-.672 1.794-1.19 2.474a5.2 5.2 0 0 1-1.875 1.554c-.732.352-1.549.528-2.452.528-.975 0-1.835-.188-2.581-.564a4.854 4.854 0 0 1-1.804-1.546 4.82 4.82 0 0 1-.819-2.21h3.044c.118.532.368.945.748 1.24.38.29.851.435 1.412.435.95 0 1.672-.414 2.167-1.24.494-.832.743-1.97.748-3.415h-.1a3.484 3.484 0 0 1-.884 1.105c-.37.304-.796.54-1.276.706-.475.166-.981.249-1.518.249-.86 0-1.628-.202-2.303-.606a4.346 4.346 0 0 1-1.596-1.668c-.39-.708-.585-1.516-.585-2.424-.005-.979.221-1.85.677-2.616a4.768 4.768 0 0 1 1.911-1.797c.822-.437 1.777-.653 2.866-.648zm.021 2.424c-.48 0-.908.115-1.283.343a2.517 2.517 0 0 0-.884.92 2.554 2.554 0 0 0-.314 1.29c0 .48.105.912.314 1.297.214.38.504.684.869.912.371.224.794.336 1.269.336a2.444 2.444 0 0 0 1.783-.749c.228-.238.406-.51.534-.82.129-.309.193-.637.193-.984a2.627 2.627 0 0 0-.328-1.268 2.51 2.51 0 0 0-.884-.927 2.36 2.36 0 0 0-1.269-.35zm10.689 10.38-.078.784a10.867 10.867 0 0 1-.356 1.875 19.648 19.648 0 0 1-.542 1.704c-.186.508-.335.907-.449 1.197h-1.968c.071-.28.169-.672.292-1.176.124-.499.24-1.06.35-1.682.109-.623.178-1.257.207-1.904l.035-.798h2.509zm7.885 2.317c-1.226-.005-2.281-.307-3.165-.906-.879-.598-1.557-1.466-2.032-2.602-.47-1.135-.703-2.502-.699-4.099 0-1.592.236-2.948.706-4.07.475-1.122 1.153-1.975 2.032-2.56.884-.589 1.937-.883 3.158-.883 1.221 0 2.272.294 3.151.884.884.589 1.563 1.445 2.039 2.566.475 1.117.71 2.471.705 4.064 0 1.601-.237 2.97-.712 4.106-.471 1.136-1.146 2.003-2.025 2.602-.879.598-1.932.898-3.158.898zm0-2.56c.836 0 1.504-.42 2.003-1.261.499-.841.746-2.103.741-3.785 0-1.108-.114-2.03-.342-2.767-.223-.736-.541-1.29-.955-1.66a2.084 2.084 0 0 0-1.447-.557c-.832 0-1.497.416-1.996 1.248-.499.832-.751 2.077-.756 3.736 0 1.121.112 2.057.335 2.808.228.746.549 1.307.963 1.683.413.37.898.556 1.454.556zm12.771 2.24V70.05h2.894v1.931h.129a3.037 3.037 0 0 1 1.14-1.518c.533-.371 1.169-.556 1.911-.556.751 0 1.39.187 1.917.563.528.37.88.874 1.056 1.511h.114a2.912 2.912 0 0 1 1.211-1.504c.59-.38 1.286-.57 2.089-.57 1.022 0 1.851.325 2.488.976.642.647.963 1.564.963 2.752V81h-3.03v-6.765c0-.609-.162-1.065-.485-1.369-.323-.304-.727-.456-1.212-.456-.551 0-.981.176-1.29.527-.309.347-.464.806-.464 1.376V81h-2.944v-6.83c0-.536-.154-.964-.463-1.282-.304-.319-.706-.478-1.205-.478-.337 0-.641.085-.912.257a1.766 1.766 0 0 0-.635.705c-.157.3-.235.651-.235 1.055V81h-3.037zm21.347-14.6V81h-3.037V66.4h3.037zm5.47 8.269V81h-3.037V70.05h2.894v1.932h.129a3.049 3.049 0 0 1 1.219-1.511c.57-.376 1.261-.563 2.074-.563.76 0 1.423.166 1.989.499a3.398 3.398 0 0 1 1.319 1.425c.313.614.47 1.345.47 2.196V81h-3.037v-6.43c.005-.67-.166-1.193-.513-1.568-.347-.38-.824-.57-1.433-.57-.408 0-.77.087-1.083.263a1.833 1.833 0 0 0-.727.77c-.172.333-.259.734-.264 1.205z" fill="#000"/></g><path fill="#fff" d="m406 74.105 7.098-7.097 7.097 7.097-7.097 7.097z"/><path d="M26.78 338.629H37v1.417l-7.495 5.194v.095H37v1.542H26.78v-1.427l7.505-5.2v-.095H26.78v-1.526zm7.041-6.985h-4.486v-1.497H37v1.467h-1.327v.079c.409.177.75.46 1.023.849.27.386.404.866.404 1.442 0 .492-.108.928-.325 1.307-.22.376-.544.672-.973.889-.429.213-.96.319-1.591.319h-4.876v-1.492h4.696c.522 0 .938-.145 1.247-.434.31-.29.465-.666.465-1.128 0-.279-.07-.557-.21-.833a1.753 1.753 0 0 0-.634-.694c-.283-.186-.642-.278-1.078-.274zM37 328.142h-7.665v-1.432h1.248v-.095a1.981 1.981 0 0 1-.988-.784c-.24-.362-.36-.796-.36-1.302 0-.512.12-.942.36-1.288.24-.349.569-.607.988-.773v-.08a2.158 2.158 0 0 1-.978-.873c-.247-.399-.37-.875-.37-1.427 0-.696.218-1.263.654-1.702.436-.442 1.093-.664 1.971-.664H37v1.492h-5c-.52 0-.895.142-1.128.425a1.54 1.54 0 0 0-.35 1.013c0 .485.15.863.45 1.132.296.27.677.404 1.143.404H37v1.488h-5.095c-.416 0-.75.129-1.003.389-.253.259-.38.597-.38 1.013 0 .283.076.544.225.783.147.236.351.428.614.574.263.143.567.215.913.215H37v1.492zm0-12.539H26.78v-1.492h3.798v-.09a4.216 4.216 0 0 1-.554-.374 2.122 2.122 0 0 1-.55-.679c-.159-.289-.239-.672-.239-1.148 0-.619.157-1.171.47-1.656.312-.486.763-.867 1.352-1.143.589-.28 1.297-.419 2.125-.419.829 0 1.54.138 2.131.414.59.276 1.043.655 1.363 1.138.316.482.474 1.032.474 1.651 0 .466-.078.847-.235 1.143a2.17 2.17 0 0 1-.549.689 4.2 4.2 0 0 1-.559.384v.125H37v1.457zm-3.832-1.462c.538 0 1.01-.079 1.417-.235.406-.156.723-.382.953-.679.226-.296.34-.658.34-1.087 0-.446-.119-.819-.355-1.118-.24-.3-.564-.526-.973-.679a3.856 3.856 0 0 0-1.382-.234c-.506 0-.96.076-1.363.229-.402.15-.72.376-.953.679-.233.299-.35.673-.35 1.123 0 .432.112.798.335 1.097.223.297.534.521.933.674.4.153.865.23 1.398.23zm3.987-10.518c0 .755-.162 1.405-.484 1.951a3.284 3.284 0 0 1-1.373 1.257c-.592.293-1.285.439-2.08.439-.786 0-1.478-.146-2.076-.439a3.408 3.408 0 0 1-1.403-1.237c-.336-.533-.504-1.155-.504-1.867 0-.432.072-.851.215-1.257.143-.406.367-.77.674-1.093.306-.323.703-.577 1.192-.763.486-.187 1.076-.28 1.772-.28h.529v6.093h-1.118v-4.631c-.393 0-.74.08-1.043.24a1.807 1.807 0 0 0-.724.673 1.887 1.887 0 0 0-.264 1.008c0 .42.103.786.31 1.098.202.31.468.549.798.719.326.166.68.249 1.063.249h.873c.512 0 .948-.089 1.307-.269a1.95 1.95 0 0 0 .824-.764c.186-.326.28-.706.28-1.142 0-.283-.04-.541-.12-.774a1.674 1.674 0 0 0-.37-.604 1.614 1.614 0 0 0-.604-.389l.255-1.412c.416.113.78.316 1.093.609.309.289.55.653.723 1.093.17.435.255.933.255 1.492zM37 298.679h-7.665v-1.442h1.218v-.08a1.853 1.853 0 0 1-.973-.739 2.111 2.111 0 0 1-.36-1.207 6.444 6.444 0 0 1 .035-.634h1.428c-.017.06-.035.166-.055.319a3.045 3.045 0 0 0-.035.459c0 .353.075.667.224.943a1.67 1.67 0 0 0 1.502.889H37v1.492zm.155-12.341c0 .719-.165 1.346-.494 1.881a3.33 3.33 0 0 1-1.383 1.248c-.592.296-1.284.444-2.075.444-.796 0-1.49-.148-2.086-.444a3.322 3.322 0 0 1-1.388-1.248c-.329-.535-.494-1.162-.494-1.881 0-.719.165-1.346.494-1.881.33-.536.792-.952 1.388-1.248.595-.296 1.29-.444 2.085-.444.792 0 1.484.148 2.076.444a3.33 3.33 0 0 1 1.383 1.248c.329.535.494 1.162.494 1.881zm-1.253-.005c0-.466-.123-.852-.37-1.158a2.16 2.16 0 0 0-.982-.678c-.41-.15-.86-.225-1.352-.225-.49 0-.939.075-1.348.225a2.192 2.192 0 0 0-.993.678c-.25.306-.374.692-.374 1.158 0 .469.125.858.374 1.168.25.306.58.534.993.683.41.147.858.22 1.347.22.493 0 .944-.073 1.353-.22.409-.149.737-.377.983-.683.246-.31.37-.699.37-1.168zm-6.567-8.881h1.198v4.331h-1.198v-4.331zM37 280.596h-8.553c-.48 0-.877-.105-1.193-.315a1.923 1.923 0 0 1-.713-.833 2.659 2.659 0 0 1-.24-1.128c0-.299.025-.555.075-.768.047-.213.09-.371.13-.474l1.207.349c-.02.07-.043.16-.07.269-.03.11-.044.243-.044.4 0 .362.09.622.269.778.18.153.44.23.779.23H37v1.492zm0-8.402h-7.665v-1.433h1.248v-.094a1.981 1.981 0 0 1-.988-.784c-.24-.363-.36-.797-.36-1.302 0-.513.12-.942.36-1.288.24-.349.569-.607.988-.773v-.08a2.158 2.158 0 0 1-.978-.873c-.247-.4-.37-.875-.37-1.428 0-.695.218-1.262.654-1.701.436-.443 1.093-.664 1.971-.664H37v1.492h-5c-.52 0-.895.142-1.128.424-.233.283-.35.621-.35 1.013 0 .486.15.864.45 1.133.296.27.677.404 1.143.404H37v1.487h-5.095c-.416 0-.75.13-1.003.39-.253.259-.38.597-.38 1.013 0 .282.076.543.225.783.147.236.351.428.614.574.263.143.567.214.913.214H37v1.493zm.155-15.648c0 .718-.165 1.345-.494 1.881-.33.536-.79.951-1.383 1.247-.592.297-1.284.445-2.075.445-.796 0-1.49-.148-2.086-.445a3.32 3.32 0 0 1-1.388-1.247c-.329-.536-.494-1.163-.494-1.881 0-.719.165-1.346.494-1.882.33-.535.792-.951 1.388-1.247.595-.296 1.29-.444 2.085-.444.792 0 1.484.148 2.076.444a3.334 3.334 0 0 1 1.383 1.247c.329.536.494 1.163.494 1.882zm-1.253-.005c0-.466-.123-.852-.37-1.158a2.17 2.17 0 0 0-.982-.679 3.926 3.926 0 0 0-1.352-.224c-.49 0-.939.075-1.348.224a2.201 2.201 0 0 0-.993.679c-.25.306-.374.692-.374 1.158 0 .469.125.858.374 1.167.25.306.58.534.993.684.41.146.858.22 1.347.22a4 4 0 0 0 1.353-.22c.409-.15.737-.378.983-.684.246-.309.37-.698.37-1.167zM37 251.188H26.78v-1.493h3.798v-.089a4.235 4.235 0 0 1-.554-.375 2.118 2.118 0 0 1-.55-.678c-.159-.29-.239-.672-.239-1.148 0-.619.157-1.171.47-1.657.312-.485.763-.866 1.352-1.142.589-.28 1.297-.42 2.125-.42.829 0 1.54.138 2.131.415.59.276 1.043.655 1.363 1.137.316.483.474 1.033.474 1.652 0 .466-.078.847-.235 1.143-.156.293-.34.522-.549.688-.21.167-.396.295-.559.385v.124H37v1.458zm-3.832-1.463c.538 0 1.01-.078 1.417-.234.406-.156.723-.383.953-.679.226-.296.34-.658.34-1.088 0-.445-.119-.818-.355-1.117-.24-.3-.564-.526-.973-.679a3.856 3.856 0 0 0-1.382-.235c-.506 0-.96.077-1.363.23-.402.15-.72.376-.953.679-.233.299-.35.673-.35 1.122 0 .433.112.799.335 1.098.223.296.534.521.933.674.4.153.865.229 1.398.229zM37 242.511h-7.665v-1.492H37v1.492zm-8.848-.754c0 .26-.086.483-.259.669a.844.844 0 0 1-.629.275.834.834 0 0 1-.628-.275.938.938 0 0 1-.265-.669c0-.259.088-.48.265-.663a.825.825 0 0 1 .628-.28c.243 0 .453.093.629.28a.93.93 0 0 1 .26.663zm-1.372-4.237H37v1.492H26.78v-1.492zm10.375-5.311c0 .755-.162 1.405-.484 1.951a3.284 3.284 0 0 1-1.373 1.257c-.592.293-1.285.44-2.08.44-.786 0-1.478-.147-2.076-.44a3.408 3.408 0 0 1-1.403-1.237c-.336-.532-.504-1.155-.504-1.866 0-.433.072-.852.215-1.258.143-.406.367-.77.674-1.093.306-.323.703-.577 1.192-.763.486-.187 1.076-.28 1.772-.28h.529v6.093h-1.118v-4.631c-.393 0-.74.08-1.043.24a1.81 1.81 0 0 0-.724.674 1.882 1.882 0 0 0-.264 1.008c0 .419.103.785.31 1.097.202.31.468.549.798.719.326.166.68.249 1.063.249h.873c.512 0 .948-.089 1.307-.269.36-.183.634-.437.824-.763.186-.326.28-.707.28-1.143 0-.283-.04-.541-.12-.774a1.604 1.604 0 0 0-.973-.993l.254-1.412c.416.113.78.316 1.093.609.309.289.55.654.723 1.093.17.436.255.933.255 1.492zM37 223.546h-7.665v-1.492H37v1.492zm-8.848-.754c0 .26-.086.483-.259.669a.843.843 0 0 1-.629.274.833.833 0 0 1-.628-.274.938.938 0 0 1-.265-.669c0-.259.088-.48.265-.663a.825.825 0 0 1 .628-.28c.243 0 .453.093.629.28a.93.93 0 0 1 .26.663zm4.297-4.238H37v1.493h-7.665v-1.433h1.248v-.094a2.196 2.196 0 0 1-.978-.829c-.247-.379-.37-.856-.37-1.432 0-.522.11-.98.33-1.372.216-.393.539-.697.968-.913.429-.217.96-.325 1.592-.325H37v1.492h-4.696c-.555 0-.99.145-1.302.434-.316.29-.474.687-.474 1.193 0 .346.075.654.224.923.15.266.37.478.659.634.286.153.632.229 1.038.229zm-3.114-10.484h1.198v4.187h-1.198v-4.187zm-1.836 3.064v-1.492h7.25c.29 0 .508-.043.654-.13a.676.676 0 0 0 .295-.334c.05-.14.074-.291.074-.454 0-.12-.008-.225-.024-.314l-.04-.21 1.232-.27c.033.087.067.21.1.37.037.159.056.359.06.599.006.392-.063.758-.21 1.097-.146.34-.372.614-.678.824-.306.209-.69.314-1.153.314h-7.56zm9.656-7.935c0 .755-.162 1.405-.484 1.951a3.284 3.284 0 0 1-1.373 1.257c-.592.293-1.285.439-2.08.439-.786 0-1.478-.146-2.076-.439a3.408 3.408 0 0 1-1.403-1.237c-.336-.533-.504-1.155-.504-1.867 0-.432.072-.851.215-1.257.143-.406.367-.77.674-1.093.306-.323.703-.577 1.192-.763.486-.187 1.076-.28 1.772-.28h.529v6.093h-1.118v-4.631c-.393 0-.74.08-1.043.24a1.807 1.807 0 0 0-.724.673 1.882 1.882 0 0 0-.264 1.008c0 .42.103.786.31 1.098.202.31.468.549.798.719.326.166.68.249 1.063.249h.873c.512 0 .948-.09 1.307-.269a1.95 1.95 0 0 0 .824-.764c.186-.326.28-.707.28-1.142 0-.283-.04-.541-.12-.774a1.674 1.674 0 0 0-.37-.604 1.614 1.614 0 0 0-.604-.389l.255-1.412c.416.113.78.316 1.093.609.309.289.55.653.723 1.093.17.435.255.933.255 1.492zM37 198.255h-7.665v-1.443h1.218v-.079a1.853 1.853 0 0 1-.973-.739 2.112 2.112 0 0 1-.36-1.208 6.408 6.408 0 0 1 .035-.633h1.428c-.017.06-.035.166-.055.319a3.045 3.045 0 0 0-.035.459c0 .353.075.667.224.943a1.67 1.67 0 0 0 1.502.889H37v1.492zm-4.551-6.886H37v1.492h-7.665v-1.432h1.248v-.094a2.196 2.196 0 0 1-.978-.829c-.247-.379-.37-.857-.37-1.432 0-.522.11-.98.33-1.372.216-.393.539-.697.968-.914.429-.216.96-.324 1.592-.324H37v1.492h-4.696c-.555 0-.99.145-1.302.434-.316.29-.474.687-.474 1.193 0 .346.075.654.224.923.15.266.37.478.659.634.286.153.632.229 1.038.229zm4.706-10.209c0 .755-.162 1.405-.484 1.951a3.284 3.284 0 0 1-1.373 1.257c-.592.293-1.285.439-2.08.439-.786 0-1.478-.146-2.076-.439a3.408 3.408 0 0 1-1.403-1.237c-.336-.533-.504-1.155-.504-1.867 0-.432.072-.851.215-1.257.143-.406.367-.77.674-1.093.306-.323.703-.577 1.192-.763.486-.187 1.076-.28 1.772-.28h.529v6.093h-1.118v-4.631c-.393 0-.74.08-1.043.24a1.807 1.807 0 0 0-.724.673 1.887 1.887 0 0 0-.264 1.008c0 .42.103.786.31 1.098.202.31.468.549.798.719.326.166.68.249 1.063.249h.873c.512 0 .948-.089 1.307-.269a1.95 1.95 0 0 0 .824-.764c.186-.326.28-.707.28-1.142 0-.283-.04-.541-.12-.774a1.674 1.674 0 0 0-.37-.604 1.614 1.614 0 0 0-.604-.389l.255-1.412c.416.113.78.316 1.093.609.309.289.55.653.723 1.093.17.435.255.933.255 1.492zm-7.82-8.522h1.198v4.186h-1.198v-4.186zm-1.836 3.064v-1.492h7.25c.29 0 .508-.044.654-.13a.68.68 0 0 0 .295-.334c.05-.14.074-.292.074-.455 0-.119-.008-.224-.024-.314l-.04-.21 1.232-.269a2.928 2.928 0 0 1 .16.968c.006.393-.063.759-.21 1.098a1.881 1.881 0 0 1-.678.823c-.306.21-.69.315-1.153.315h-7.56zm6.322-13.289h-4.486v-1.497H37v1.467h-1.327v.08c.409.176.75.459 1.023.848.27.386.404.867.404 1.442 0 .493-.108.928-.325 1.308-.22.376-.544.672-.973.888-.429.213-.96.319-1.591.319h-4.876v-1.492h4.696c.522 0 .938-.144 1.247-.434.31-.289.465-.665.465-1.128 0-.279-.07-.557-.21-.833a1.76 1.76 0 0 0-.634-.694c-.283-.186-.642-.277-1.078-.274zm-2.615-9.246.24 1.353a1.591 1.591 0 0 0-.494.269c-.156.12-.285.283-.384.489-.1.206-.15.464-.15.774 0 .422.095.775.284 1.058.187.282.428.424.724.424a.762.762 0 0 0 .619-.285c.156-.189.284-.495.384-.918l.28-1.217c.162-.706.414-1.231.753-1.577.34-.346.78-.519 1.322-.519.46 0 .869.133 1.228.399.356.263.635.63.838 1.103.203.469.305 1.013.305 1.632 0 .858-.183 1.558-.55 2.1-.368.543-.892.875-1.571.998l-.22-1.442c.376-.09.66-.274.854-.554.19-.279.284-.643.284-1.093 0-.489-.101-.879-.304-1.172-.207-.293-.458-.439-.754-.439-.24 0-.44.089-.604.269-.163.176-.286.448-.369.814l-.284 1.297c-.163.715-.423 1.244-.779 1.587-.356.339-.807.509-1.352.509-.453 0-.849-.127-1.188-.379-.34-.253-.604-.603-.793-1.048-.193-.446-.29-.957-.29-1.532 0-.829.18-1.481.54-1.956a2.507 2.507 0 0 1 1.431-.944zm5.949-5.093c0 .755-.162 1.405-.484 1.951a3.284 3.284 0 0 1-1.373 1.257c-.592.293-1.285.44-2.08.44-.786 0-1.478-.147-2.076-.44a3.408 3.408 0 0 1-1.403-1.237c-.336-.532-.504-1.155-.504-1.866 0-.433.072-.852.215-1.258.143-.406.367-.77.674-1.093.306-.323.703-.577 1.192-.763.486-.187 1.076-.28 1.772-.28h.529v6.093h-1.118v-4.631c-.393 0-.74.08-1.043.24a1.81 1.81 0 0 0-.724.674 1.882 1.882 0 0 0-.264 1.008c0 .419.103.785.31 1.097.202.31.468.549.798.719.326.166.68.249 1.063.249h.873c.512 0 .948-.089 1.307-.269.36-.183.634-.437.824-.764.186-.326.28-.706.28-1.142 0-.283-.04-.541-.12-.774a1.674 1.674 0 0 0-.37-.604 1.614 1.614 0 0 0-.604-.389l.255-1.412c.416.113.78.316 1.093.609.309.289.55.654.723 1.093.17.435.255.933.255 1.492zM37 143.13h-7.665v-1.442h1.218v-.08a1.853 1.853 0 0 1-.973-.739 2.111 2.111 0 0 1-.36-1.207 6.444 6.444 0 0 1 .035-.634h1.428c-.017.06-.035.166-.055.319a3.045 3.045 0 0 0-.035.459c0 .353.075.667.224.943a1.67 1.67 0 0 0 1.502.889H37v1.492zm-5.794-11.137.24 1.352a1.616 1.616 0 0 0-.494.27c-.156.12-.285.283-.384.489-.1.206-.15.464-.15.773 0 .423.095.775.284 1.058.187.283.428.424.724.424a.761.761 0 0 0 .619-.284c.156-.19.284-.496.384-.918l.28-1.218c.162-.705.414-1.231.753-1.577.34-.346.78-.519 1.322-.519.46 0 .869.133 1.228.4.356.262.635.63.838 1.102.203.469.305 1.013.305 1.632 0 .858-.183 1.559-.55 2.101-.368.542-.892.875-1.571.998l-.22-1.442c.376-.09.66-.275.854-.554.19-.28.284-.644.284-1.093 0-.489-.101-.88-.304-1.173-.207-.292-.458-.439-.754-.439-.24 0-.44.09-.604.27-.163.176-.286.447-.369.813l-.284 1.298c-.163.715-.423 1.244-.779 1.586-.356.34-.807.509-1.352.509-.453 0-.849-.126-1.188-.379-.34-.253-.604-.602-.793-1.048-.193-.446-.29-.956-.29-1.532 0-.828.18-1.48.54-1.956.355-.476.833-.79 1.431-.943zm1.552-5.943c-1.25 0-2.402-.165-3.453-.494a10.311 10.311 0 0 1-2.91-1.442v-1.368c.33.246.735.476 1.214.689.479.213 1.004.399 1.576.559.57.159 1.16.284 1.772.374a12.307 12.307 0 0 0 4.207-.1 13.392 13.392 0 0 0 2.26-.633c.696-.267 1.263-.563 1.702-.889v1.368a10.31 10.31 0 0 1-2.91 1.442c-1.05.329-2.203.494-3.458.494zM37 121.173h-7.665v-1.432h1.248v-.095a1.985 1.985 0 0 1-.988-.783c-.24-.363-.36-.797-.36-1.303 0-.512.12-.941.36-1.287.24-.35.569-.607.988-.774v-.08a2.152 2.152 0 0 1-.978-.873c-.247-.399-.37-.875-.37-1.427 0-.695.218-1.262.654-1.702.436-.442 1.093-.663 1.971-.663H37v1.492h-5c-.52 0-.895.141-1.128.424-.233.283-.35.62-.35 1.013 0 .486.15.863.45 1.133.296.269.677.404 1.143.404H37v1.487h-5.095c-.416 0-.75.13-1.003.389-.253.26-.38.597-.38 1.013 0 .283.076.544.225.784.147.236.351.427.614.573.263.144.567.215.913.215H37v1.492zm-10.22-13.911H37v1.492H26.78v-1.492zm5.669-3.499H37v1.492h-7.665v-1.433h1.248v-.094a2.196 2.196 0 0 1-.978-.829c-.247-.379-.37-.856-.37-1.432 0-.522.11-.98.33-1.372.216-.393.539-.697.968-.913.429-.217.96-.325 1.592-.325H37v1.492h-4.696c-.555 0-.99.145-1.302.434-.316.29-.474.687-.474 1.193 0 .346.075.654.224.923.15.266.37.478.659.634.286.153.632.23 1.038.23zm.31-9.776c1.254 0 2.406.165 3.458.494 1.05.33 2.02.81 2.909 1.442v1.367a6.296 6.296 0 0 0-1.213-.688c-.479-.213-1.003-.4-1.572-.56a14.351 14.351 0 0 0-1.776-.374 12.435 12.435 0 0 0-1.807-.134c-.788 0-1.588.078-2.4.234-.812.157-1.565.368-2.26.634-.696.266-1.263.562-1.702.888v-1.367a10.29 10.29 0 0 1 2.91-1.442c1.05-.33 2.201-.494 3.452-.494z" fill="#8D8D8D"/><defs><filter id="a" x="275.91" y="33.895" width="161.328" height="104.299" filterUnits="userSpaceOnUse" color-interpolation-filters="sRGB"><feFlood flood-opacity="0" result="BackgroundImageFix"/><feColorMatrix in="SourceAlpha" values="0 0 0 0 0 0 0 0 0 0 0 0 0 0 0 0 0 0 127 0" result="hardAlpha"/><feOffset dy="12.045"/><feGaussianBlur stdDeviation="12.045"/><feComposite in2="hardAlpha" operator="out"/><feColorMatrix values="0 0 0 0 0 0 0 0 0 0 0 0 0 0 0 0 0 0 0.12 0"/><feBlend in2="BackgroundImageFix" result="effect1_dropShadow_104_659"/><feBlend in="SourceGraphic" in2="effect1_dropShadow_104_659" result="shape"/></filter></defs></svg>