<svg width="538" height="440" fill="none" xmlns="http://www.w3.org/2000/svg"><rect width="538" height="440" rx="16.06" fill="#F8F8F8"/><path d="M15.78 342.877v-1.871l7.944-3.254v-.119l-7.944-3.254v-1.871H26v1.467h-7.395v.095l7.38 3.014v1.217l-7.385 3.014v.095H26v1.467H15.78zm10.375-15.72c0 .719-.165 1.346-.494 1.881a3.33 3.33 0 0 1-1.383 1.248c-.592.296-1.284.444-2.075.444-.796 0-1.49-.148-2.086-.444a3.322 3.322 0 0 1-1.388-1.248c-.329-.535-.494-1.162-.494-1.881 0-.719.165-1.346.494-1.881.33-.536.792-.952 1.388-1.248.595-.296 1.29-.444 2.085-.444.792 0 1.484.148 2.076.444a3.33 3.33 0 0 1 1.383 1.248c.329.535.494 1.162.494 1.881zm-1.253-.005c0-.466-.123-.852-.37-1.158a2.16 2.16 0 0 0-.982-.678c-.41-.15-.86-.225-1.352-.225-.49 0-.939.075-1.348.225a2.192 2.192 0 0 0-.993.678c-.25.306-.374.692-.374 1.158 0 .469.125.858.374 1.168.25.306.58.534.993.683.41.147.858.22 1.348.22.492 0 .943-.073 1.352-.22.409-.149.737-.377.983-.683.246-.31.37-.699.37-1.168zM26 321.799H15.78v-1.492h3.798v-.09a4.216 4.216 0 0 1-.554-.374 2.122 2.122 0 0 1-.55-.679c-.159-.289-.239-.672-.239-1.148 0-.618.157-1.171.47-1.656.312-.486.763-.867 1.352-1.143.589-.28 1.297-.419 2.126-.419.828 0 1.538.138 2.13.414.59.276 1.043.655 1.363 1.138.316.482.474 1.033.474 1.651 0 .466-.078.847-.235 1.143a2.17 2.17 0 0 1-.549.689 4.2 4.2 0 0 1-.559.384v.125H26v1.457zm-3.832-1.462c.538 0 1.01-.078 1.417-.235.406-.156.723-.382.953-.678.226-.297.34-.659.34-1.088 0-.446-.119-.819-.355-1.118a2.202 2.202 0 0 0-.973-.679 3.856 3.856 0 0 0-1.382-.234c-.506 0-.96.076-1.363.229-.402.15-.72.376-.953.679-.233.299-.35.674-.35 1.123 0 .432.112.798.335 1.098.223.296.534.52.933.673.4.153.865.23 1.398.23zM26 313.122h-7.665v-1.492H26v1.492zm-8.848-.753a.947.947 0 0 1-.259.668.844.844 0 0 1-.629.275.834.834 0 0 1-.628-.275.938.938 0 0 1-.265-.668c0-.26.088-.481.264-.664a.827.827 0 0 1 .63-.279c.242 0 .452.093.628.279.173.183.26.404.26.664zm-1.372-4.238H26v1.492H15.78v-1.492zm10.375-5.311c0 .755-.162 1.406-.484 1.951a3.28 3.28 0 0 1-1.373 1.258c-.592.293-1.285.439-2.08.439-.786 0-1.478-.146-2.076-.439a3.41 3.41 0 0 1-1.403-1.238c-.336-.532-.504-1.154-.504-1.866 0-.433.072-.852.215-1.258.143-.405.367-.77.674-1.092.306-.323.703-.578 1.192-.764.486-.186 1.076-.279 1.772-.279h.529v6.093h-1.118v-4.631c-.393 0-.74.08-1.043.239a1.81 1.81 0 0 0-.724.674 1.882 1.882 0 0 0-.264 1.008c0 .419.103.785.31 1.098.202.309.468.549.798.718.326.167.68.25 1.063.25h.873c.512 0 .948-.09 1.307-.27.36-.183.634-.437.824-.763.186-.326.28-.707.28-1.143 0-.283-.04-.54-.12-.773a1.59 1.59 0 0 0-.973-.993l.254-1.413c.416.114.78.316 1.093.609.309.29.55.654.723 1.093.17.436.255.933.255 1.492zm-4.706-10.155H26v1.492h-7.665v-1.432h1.248v-.095a2.188 2.188 0 0 1-.978-.828c-.247-.379-.37-.857-.37-1.432 0-.523.11-.98.33-1.373.216-.392.539-.697.968-.913.429-.216.96-.324 1.592-.324H26v1.492h-4.696c-.555 0-.99.145-1.302.434-.316.289-.474.687-.474 1.193 0 .346.075.653.224.923.15.266.37.477.659.634.286.153.632.229 1.038.229zm1.372-11.762h-4.486v-1.497H26v1.467h-1.327v.08c.409.177.75.459 1.023.849.27.386.404.866.404 1.442 0 .492-.108.928-.325 1.307-.22.376-.543.672-.973.888-.429.213-.96.32-1.591.32h-4.876v-1.492h4.696c.522 0 .938-.145 1.247-.434.31-.29.465-.666.465-1.128 0-.28-.07-.557-.21-.834a1.757 1.757 0 0 0-.634-.693c-.283-.186-.642-.278-1.078-.275zM26 277.402h-7.665v-1.433h1.248v-.094a1.981 1.981 0 0 1-.988-.784c-.24-.362-.36-.797-.36-1.302 0-.513.12-.942.36-1.288.24-.349.569-.607.988-.773v-.08a2.158 2.158 0 0 1-.978-.873c-.247-.4-.37-.875-.37-1.428 0-.695.218-1.262.654-1.701.436-.443 1.093-.664 1.971-.664H26v1.492h-5c-.52 0-.895.142-1.128.424-.233.283-.35.621-.35 1.013 0 .486.15.864.45 1.133.296.27.677.404 1.143.404H26v1.487h-5.095c-.416 0-.75.13-1.003.39-.253.259-.38.597-.38 1.013 0 .282.076.544.225.783.147.236.351.428.614.574.263.143.567.215.913.215H26v1.492zm0-12.539H15.78v-1.492h3.798v-.09a4.235 4.235 0 0 1-.554-.375 2.118 2.118 0 0 1-.55-.678c-.159-.29-.239-.672-.239-1.148 0-.619.157-1.171.47-1.657.312-.485.763-.866 1.352-1.142.589-.28 1.297-.42 2.126-.42.828 0 1.538.138 2.13.415.59.276 1.043.655 1.363 1.137.316.483.474 1.033.474 1.652 0 .466-.078.847-.235 1.143-.156.293-.34.522-.549.688-.21.167-.396.295-.559.385v.124H26v1.458zm-3.832-1.463c.538 0 1.01-.078 1.417-.234.406-.156.723-.383.953-.679.226-.296.34-.658.34-1.088 0-.445-.119-.818-.355-1.117-.24-.3-.564-.526-.973-.679a3.856 3.856 0 0 0-1.382-.235c-.506 0-.96.077-1.363.23-.402.15-.72.376-.953.679-.233.299-.35.673-.35 1.122 0 .433.112.799.335 1.098.223.296.534.521.933.674.4.153.865.229 1.398.229zm3.987-10.517c0 .755-.162 1.405-.484 1.951a3.284 3.284 0 0 1-1.373 1.257c-.592.293-1.285.439-2.08.439-.786 0-1.478-.146-2.076-.439a3.408 3.408 0 0 1-1.403-1.237c-.336-.533-.504-1.155-.504-1.867 0-.432.072-.851.215-1.257.143-.406.367-.77.674-1.093.306-.323.703-.577 1.192-.764.486-.186 1.076-.279 1.772-.279h.529v6.093h-1.118v-4.631c-.393 0-.74.08-1.043.24a1.807 1.807 0 0 0-.724.673 1.882 1.882 0 0 0-.264 1.008c0 .419.103.785.31 1.098.202.31.468.549.798.719.326.166.68.249 1.063.249h.873c.512 0 .948-.09 1.307-.269a1.95 1.95 0 0 0 .824-.764c.186-.326.28-.707.28-1.142 0-.283-.04-.541-.12-.774a1.674 1.674 0 0 0-.37-.604 1.614 1.614 0 0 0-.604-.389l.255-1.412c.416.113.78.316 1.093.609.309.289.55.653.723 1.092.17.436.255.934.255 1.493zM26 247.939h-7.665v-1.443h1.218v-.079a1.853 1.853 0 0 1-.973-.739 2.115 2.115 0 0 1-.36-1.208 6.408 6.408 0 0 1 .035-.633h1.428c-.017.06-.035.166-.055.319a3.045 3.045 0 0 0-.035.459c0 .353.075.667.224.943a1.67 1.67 0 0 0 1.502.888H26v1.493zm2.874-9.112H18.335v-1.458h1.243v-.124a4.235 4.235 0 0 1-.554-.375 2.118 2.118 0 0 1-.55-.678c-.159-.29-.239-.672-.239-1.148 0-.619.157-1.171.47-1.657.312-.485.763-.866 1.352-1.142.589-.28 1.297-.42 2.126-.42.828 0 1.538.138 2.13.415.59.276 1.043.655 1.363 1.137.316.483.474 1.033.474 1.652 0 .466-.078.847-.235 1.143-.156.293-.34.522-.549.688-.21.167-.396.295-.559.385v.089h4.067v1.493zm-6.706-1.463c.538 0 1.01-.078 1.417-.234.406-.156.723-.383.953-.679.226-.296.34-.658.34-1.088 0-.445-.119-.818-.355-1.117-.24-.3-.564-.526-.973-.679a3.856 3.856 0 0 0-1.382-.235c-.506 0-.96.077-1.363.23-.402.15-.72.376-.953.679-.233.299-.35.673-.35 1.122 0 .433.112.799.335 1.098.223.296.534.521.933.674.4.153.865.229 1.398.229zm3.987-10.439c0 .719-.165 1.346-.494 1.881a3.33 3.33 0 0 1-1.383 1.248c-.592.296-1.284.444-2.075.444-.796 0-1.49-.148-2.086-.444a3.322 3.322 0 0 1-1.388-1.248c-.329-.535-.494-1.162-.494-1.881 0-.719.165-1.346.494-1.881.33-.536.792-.952 1.388-1.248.595-.296 1.29-.444 2.085-.444.792 0 1.484.148 2.076.444a3.33 3.33 0 0 1 1.383 1.248c.329.535.494 1.162.494 1.881zm-1.253-.005c0-.466-.123-.852-.37-1.158a2.16 2.16 0 0 0-.982-.678c-.41-.15-.86-.225-1.352-.225-.49 0-.939.075-1.348.225a2.192 2.192 0 0 0-.993.678c-.25.306-.374.692-.374 1.158 0 .469.125.858.374 1.168.25.306.58.534.993.683.41.147.858.22 1.348.22.492 0 .943-.073 1.352-.22.409-.149.737-.377.983-.683.246-.31.37-.699.37-1.168zM26 221.687h-7.665v-1.443h1.218v-.079a1.853 1.853 0 0 1-.973-.739 2.112 2.112 0 0 1-.36-1.208 6.44 6.44 0 0 1 .035-.633h1.428c-.017.06-.035.166-.055.319a3.045 3.045 0 0 0-.035.459c0 .353.075.667.224.943a1.67 1.67 0 0 0 1.502.889H26v1.492zm-7.665-9.424h1.198v4.186h-1.198v-4.186zm-1.836 3.064v-1.492h7.25c.29 0 .508-.044.654-.13a.68.68 0 0 0 .295-.334c.05-.14.074-.292.074-.455 0-.119-.008-.224-.024-.314l-.04-.209 1.232-.27a2.928 2.928 0 0 1 .16.968c.007.393-.063.759-.21 1.098a1.881 1.881 0 0 1-.678.823c-.306.21-.69.315-1.153.315h-7.56zm9.67-6.945c0 .485-.09.925-.269 1.317a2.214 2.214 0 0 1-.793.933c-.346.226-.77.34-1.273.34-.432 0-.788-.084-1.068-.25-.28-.166-.5-.391-.663-.674a3.5 3.5 0 0 1-.37-.948 9.427 9.427 0 0 1-.19-1.068c-.052-.459-.096-.831-.129-1.117-.037-.287-.095-.494-.175-.624-.08-.13-.21-.195-.389-.195h-.035c-.436 0-.773.123-1.013.369-.24.243-.359.606-.359 1.088 0 .503.111.899.334 1.188.22.286.464.484.734.594l-.32 1.402c-.465-.166-.841-.409-1.127-.729a2.949 2.949 0 0 1-.63-1.112c-.132-.42-.199-.86-.199-1.323 0-.306.037-.63.11-.973.07-.346.2-.668.39-.968.189-.303.46-.55.813-.743.35-.193.803-.29 1.362-.29H26v1.457h-1.048v.06c.193.097.383.241.569.434.186.193.34.441.464.744.123.303.185.665.185 1.088zm-1.197-.325c0-.412-.082-.765-.245-1.058a1.71 1.71 0 0 0-.638-.673 1.651 1.651 0 0 0-.854-.235h-.988c.054.053.104.157.15.31.043.149.082.321.115.514l.085.563.06.46c.036.289.098.553.184.793.087.236.211.426.374.569.16.14.373.209.64.209.369 0 .648-.136.838-.409.186-.273.279-.62.279-1.043zM26 202.492H15.78V201h3.798v-.09a4.118 4.118 0 0 1-.554-.374 2.111 2.111 0 0 1-.55-.679c-.159-.289-.239-.672-.239-1.147 0-.619.157-1.171.47-1.657.312-.486.763-.867 1.352-1.143.589-.279 1.297-.419 2.126-.419.828 0 1.538.138 2.13.414.59.276 1.043.655 1.363 1.138.316.482.474 1.033.474 1.652 0 .465-.078.846-.235 1.142a2.16 2.16 0 0 1-.549.689 4.2 4.2 0 0 1-.559.384v.125H26v1.457zm-3.832-1.462c.538 0 1.01-.078 1.417-.235.406-.156.723-.382.953-.678.226-.296.34-.659.34-1.088 0-.446-.119-.818-.355-1.118a2.202 2.202 0 0 0-.973-.679 3.856 3.856 0 0 0-1.382-.234c-.506 0-.96.076-1.363.229-.402.15-.72.376-.953.679-.233.3-.35.674-.35 1.123 0 .432.112.798.335 1.098.223.296.534.52.933.673.4.153.865.23 1.398.23zM26 193.815h-7.665v-1.492H26v1.492zm-8.848-.753a.951.951 0 0 1-.259.669.843.843 0 0 1-.629.274.833.833 0 0 1-.628-.274.942.942 0 0 1-.265-.669c0-.26.088-.481.264-.664a.827.827 0 0 1 .63-.279c.242 0 .452.093.628.279.173.183.26.404.26.664zm-1.372-4.238H26v1.492H15.78v-1.492zM26 186.817h-7.665v-1.492H26v1.492zm-8.848-.754c0 .26-.086.483-.259.669a.843.843 0 0 1-.629.274.833.833 0 0 1-.628-.274.938.938 0 0 1-.265-.669c0-.259.088-.48.264-.663a.825.825 0 0 1 .63-.28c.242 0 .452.093.628.28a.93.93 0 0 1 .26.663zm1.183-6.323h1.198v4.186h-1.198v-4.186zm-1.836 3.063v-1.492h7.25c.29 0 .508-.043.654-.129a.678.678 0 0 0 .295-.335c.05-.139.074-.291.074-.454 0-.12-.008-.224-.024-.314l-.04-.21 1.232-.269c.033.086.067.209.1.369.037.16.056.359.06.599a2.63 2.63 0 0 1-.21 1.098 1.887 1.887 0 0 1-.678.823c-.306.21-.69.314-1.153.314h-7.56zm12.375-5.657c0 .223-.018.426-.055.609-.033.183-.07.319-.11.409l-1.222-.359c.073-.273.105-.516.095-.729a.872.872 0 0 0-.24-.564c-.15-.166-.394-.313-.733-.439l-.51-.185-7.764 2.805v-1.597l5.948-1.941v-.08l-5.948-1.941v-1.602l8.688 3.159c.4.146.737.332 1.013.559.28.226.489.495.629.808.14.313.21.675.21 1.088zm-8.668-16.479.24 1.353a1.591 1.591 0 0 0-.494.269c-.156.12-.285.283-.384.489-.1.206-.15.464-.15.773 0 .423.095.776.284 1.058.187.283.428.425.724.425a.762.762 0 0 0 .619-.285c.156-.189.284-.496.384-.918l.28-1.218c.163-.705.414-1.231.753-1.577.34-.346.78-.519 1.322-.519.46 0 .869.134 1.228.4.356.263.635.63.838 1.103.203.469.305 1.013.305 1.631 0 .859-.183 1.559-.55 2.101-.369.542-.893.875-1.571.998l-.22-1.442c.376-.09.66-.274.854-.554.19-.279.284-.644.284-1.093 0-.489-.101-.88-.304-1.172-.207-.293-.458-.44-.754-.44-.24 0-.44.09-.604.27-.163.176-.286.447-.369.813l-.284 1.298c-.163.715-.423 1.244-.779 1.587-.356.339-.807.509-1.352.509-.453 0-.849-.127-1.188-.38-.34-.252-.604-.602-.793-1.048-.193-.445-.29-.956-.29-1.532 0-.828.18-1.48.54-1.956a2.51 2.51 0 0 1 1.431-.943zm-1.87-5.368h1.197v4.187h-1.198v-4.187zm-1.837 3.064v-1.492h7.25c.29 0 .508-.043.654-.13a.676.676 0 0 0 .295-.334c.05-.14.074-.291.074-.454 0-.12-.008-.225-.024-.315a23.34 23.34 0 0 0-.04-.209l1.232-.27c.033.087.067.21.1.37.037.159.056.359.06.598.006.393-.063.759-.21 1.098-.146.34-.372.614-.678.824-.306.209-.69.314-1.153.314h-7.56zm9.67-6.945c0 .486-.09.925-.269 1.317a2.222 2.222 0 0 1-.793.934c-.346.226-.77.339-1.273.339-.432 0-.788-.083-1.068-.25-.28-.166-.5-.391-.663-.673a3.526 3.526 0 0 1-.37-.948 9.507 9.507 0 0 1-.19-1.068l-.129-1.118c-.037-.286-.095-.494-.175-.624-.08-.13-.21-.195-.389-.195h-.035c-.436 0-.773.124-1.013.37-.24.243-.359.605-.359 1.088 0 .502.111.898.334 1.187.22.286.464.484.734.594l-.32 1.402c-.465-.166-.841-.409-1.127-.728a2.96 2.96 0 0 1-.63-1.113c-.132-.419-.199-.86-.199-1.322 0-.306.037-.631.11-.974.07-.345.2-.668.39-.968.189-.302.46-.55.813-.743.35-.193.803-.29 1.362-.29H26v1.458h-1.048v.059c.193.097.383.242.569.435.186.193.34.44.464.743.123.303.185.665.185 1.088zm-1.197-.324c0-.413-.082-.766-.245-1.058a1.713 1.713 0 0 0-.638-.674 1.661 1.661 0 0 0-.854-.235h-.988c.054.054.104.157.15.31.043.15.082.321.115.514l.085.564.06.459c.036.289.098.554.184.793.087.236.211.426.374.569.16.14.373.21.64.21.369 0 .648-.137.838-.409.186-.273.279-.621.279-1.043zm-6.637-9.024h1.198v4.187h-1.198v-4.187zm-1.836 3.064v-1.492h7.25c.29 0 .508-.043.654-.13a.676.676 0 0 0 .295-.334c.05-.14.074-.291.074-.454 0-.12-.008-.225-.024-.314l-.04-.21 1.232-.27c.033.087.067.21.1.37.037.159.056.359.06.599.006.392-.063.758-.21 1.097-.146.34-.372.614-.678.824-.306.209-.69.314-1.153.314h-7.56zM26 140.42h-7.665v-1.492H26v1.492zm-8.848-.754c0 .26-.086.483-.259.669a.843.843 0 0 1-.629.274.833.833 0 0 1-.628-.274.938.938 0 0 1-.265-.669c0-.259.088-.481.264-.664a.827.827 0 0 1 .63-.279c.242 0 .452.093.628.279.173.183.26.405.26.664zm3.054-8.489.24 1.352a1.612 1.612 0 0 0-.494.269c-.156.12-.285.283-.384.49-.1.206-.15.464-.15.773 0 .422.095.775.284 1.058.187.283.428.424.724.424a.764.764 0 0 0 .619-.284c.156-.19.284-.496.384-.919l.28-1.217c.163-.705.414-1.231.753-1.577.34-.346.78-.519 1.322-.519.46 0 .869.133 1.228.399.356.263.635.631.838 1.103.203.469.305 1.013.305 1.632 0 .858-.183 1.558-.55 2.101-.369.542-.893.875-1.571.998l-.22-1.442c.376-.09.66-.275.854-.554.19-.28.284-.644.284-1.093 0-.489-.101-.88-.304-1.173-.207-.293-.458-.439-.754-.439-.24 0-.44.09-.604.269-.163.177-.286.448-.369.814l-.284 1.297c-.163.716-.423 1.244-.779 1.587-.356.339-.807.509-1.352.509-.453 0-.849-.126-1.188-.379-.34-.253-.604-.602-.793-1.048-.193-.446-.29-.956-.29-1.532 0-.828.18-1.48.54-1.956.355-.476.833-.79 1.431-.943zm-1.87-5.368h1.197v4.186h-1.198v-4.186zm-1.837 3.064v-1.493h7.25c.29 0 .508-.043.654-.129a.678.678 0 0 0 .295-.335c.05-.139.074-.291.074-.454 0-.119-.008-.224-.024-.314l-.04-.21 1.232-.269c.033.086.067.209.1.369.037.16.056.359.06.599a2.63 2.63 0 0 1-.21 1.098 1.881 1.881 0 0 1-.678.823c-.306.21-.69.315-1.153.315h-7.56zM26 124.158h-7.665v-1.492H26v1.492zm-8.848-.753a.947.947 0 0 1-.259.668.844.844 0 0 1-.629.275.834.834 0 0 1-.628-.275.938.938 0 0 1-.265-.668c0-.26.088-.481.264-.664a.828.828 0 0 1 .63-.28c.242 0 .452.094.628.28.173.183.26.404.26.664zm9.003-5.975c0 .742-.168 1.381-.504 1.916-.34.533-.807.942-1.402 1.228-.596.286-1.278.429-2.046.429-.779 0-1.466-.146-2.061-.439a3.362 3.362 0 0 1-1.403-1.238c-.336-.532-.504-1.159-.504-1.881 0-.582.108-1.101.325-1.557a2.728 2.728 0 0 1 2.25-1.607v1.452c-.359.08-.668.263-.928.549-.26.283-.39.662-.39 1.138 0 .416.11.78.33 1.093.216.309.526.551.928.724.4.173.872.259 1.418.259.559 0 1.04-.085 1.447-.254.406-.17.72-.41.943-.719a1.85 1.85 0 0 0 .334-1.103 1.85 1.85 0 0 0-.154-.768 1.566 1.566 0 0 0-.455-.584 1.715 1.715 0 0 0-.708-.335v-1.452c.495.054.938.215 1.327.484.39.27.695.631.918 1.083.223.449.335.977.335 1.582zm-5.949-10.488.24 1.352a1.616 1.616 0 0 0-.494.27c-.156.12-.285.283-.384.489-.1.206-.15.464-.15.773 0 .423.095.776.284 1.058.187.283.428.424.724.424a.761.761 0 0 0 .619-.284c.156-.19.284-.496.384-.918l.28-1.218c.163-.705.414-1.231.753-1.577.34-.346.78-.519 1.322-.519.46 0 .869.133 1.228.4.356.262.635.63.838 1.102.203.469.305 1.013.305 1.632 0 .858-.183 1.559-.55 2.101-.369.542-.893.875-1.571.998l-.22-1.442c.376-.09.66-.275.854-.554.19-.279.284-.644.284-1.093 0-.489-.101-.88-.304-1.173-.207-.292-.458-.439-.754-.439-.24 0-.44.09-.604.27-.163.176-.286.447-.369.813l-.284 1.298c-.163.715-.423 1.244-.779 1.587-.356.339-.807.509-1.352.509-.453 0-.849-.127-1.188-.38-.34-.253-.604-.602-.793-1.048-.193-.445-.29-.956-.29-1.532 0-.828.18-1.48.54-1.956.355-.476.833-.79 1.431-.943z" fill="#8D8D8D"/><g filter="url(#a)"><rect x="156" y="24.94" width="134.149" height="56.119" rx="16.06" fill="#fff" shape-rendering="crispEdges"/><path d="M184.244 52.8v2.41h-6.658V52.8h6.658zm2.346 7.2v-2.224l5.197-4.812c.442-.428.812-.813 1.112-1.155.304-.342.534-.677.691-1.005a2.49 2.49 0 0 0 .235-1.077c0-.427-.097-.796-.292-1.104a1.92 1.92 0 0 0-.798-.72 2.504 2.504 0 0 0-1.148-.257c-.447 0-.837.09-1.169.27-.333.181-.59.44-.77.778-.181.337-.271.739-.271 1.204h-2.93c0-.955.216-1.784.649-2.487.432-.704 1.038-1.248 1.818-1.633.779-.385 1.677-.577 2.694-.577 1.046 0 1.956.185 2.731.556.779.366 1.385.874 1.817 1.525.433.651.649 1.398.649 2.239 0 .551-.109 1.095-.328 1.632-.214.537-.596 1.134-1.147 1.79-.552.65-1.329 1.432-2.332 2.345l-2.131 2.089v.1h6.131V60H186.59zm12.644 0v-2.224l5.197-4.812a19.5 19.5 0 0 0 1.112-1.155c.304-.342.535-.677.692-1.005a2.49 2.49 0 0 0 .235-1.077c0-.427-.097-.796-.292-1.104a1.917 1.917 0 0 0-.799-.72 2.5 2.5 0 0 0-1.147-.257c-.447 0-.837.09-1.17.27-.332.181-.589.44-.769.778-.181.337-.271.739-.271 1.204h-2.93c0-.955.216-1.784.648-2.487a4.338 4.338 0 0 1 1.818-1.633c.78-.385 1.678-.577 2.695-.577 1.046 0 1.956.185 2.73.556.78.366 1.386.874 1.818 1.525.433.651.649 1.398.649 2.239 0 .551-.109 1.095-.328 1.632-.214.537-.597 1.134-1.148 1.79-.551.65-1.328 1.432-2.331 2.345l-2.131 2.089v.1h6.13V60h-10.408zm23.016.32c-1.227-.004-2.282-.306-3.166-.905-.879-.598-1.556-1.466-2.031-2.602-.471-1.135-.704-2.502-.699-4.099 0-1.592.235-2.948.706-4.07.475-1.122 1.152-1.975 2.032-2.56.883-.589 1.936-.883 3.158-.883 1.221 0 2.271.294 3.15.884.884.589 1.564 1.444 2.039 2.566.476 1.117.711 2.471.706 4.063 0 1.602-.238 2.97-.713 4.107-.47 1.135-1.145 2.003-2.024 2.602-.88.598-1.932.898-3.158.898zm0-2.558c.836 0 1.504-.421 2.003-1.262.499-.841.746-2.103.741-3.786 0-1.107-.114-2.029-.342-2.766-.223-.736-.542-1.29-.955-1.66a2.083 2.083 0 0 0-1.447-.557c-.832 0-1.497.416-1.997 1.248-.499.832-.75 2.077-.755 3.735 0 1.122.112 2.058.335 2.81.228.745.549 1.306.962 1.681.414.371.899.557 1.455.557zm13.493 2.438c-1.065 0-2.013-.183-2.845-.55-.827-.37-1.48-.878-1.96-1.525-.476-.651-.72-1.402-.735-2.253h3.109c.019.357.135.67.349.941.219.267.508.473.87.62.361.148.767.222 1.219.222.47 0 .886-.084 1.247-.25.361-.166.644-.397.849-.691.204-.295.306-.635.306-1.02 0-.39-.109-.734-.328-1.034-.214-.304-.523-.541-.927-.712-.399-.171-.874-.257-1.425-.257h-1.362v-2.267h1.362c.465 0 .876-.08 1.233-.242.361-.162.642-.385.841-.67.2-.29.3-.628.3-1.013a1.75 1.75 0 0 0-.264-.962 1.744 1.744 0 0 0-.727-.656 2.365 2.365 0 0 0-1.084-.235 2.83 2.83 0 0 0-1.148.228 2.005 2.005 0 0 0-.834.634 1.669 1.669 0 0 0-.335.97h-2.958c.014-.841.254-1.583.72-2.224.466-.642 1.093-1.143 1.882-1.504.793-.366 1.689-.55 2.687-.55 1.008 0 1.889.184 2.645.55.756.365 1.343.86 1.761 1.482.423.618.632 1.312.627 2.082.005.817-.249 1.5-.763 2.046-.508.547-1.171.893-1.988 1.04v.115c1.074.138 1.891.51 2.452 1.119.565.604.846 1.36.841 2.267a3.56 3.56 0 0 1-.72 2.217c-.48.646-1.143 1.155-1.989 1.526-.846.37-1.815.556-2.908.556zm13.282 0c-1.098 0-2.074-.179-2.93-.535-.85-.361-1.518-.853-2.003-1.476a3.354 3.354 0 0 1-.727-2.117c0-.608.138-1.167.413-1.675a3.728 3.728 0 0 1 1.141-1.276 3.76 3.76 0 0 1 1.611-.656v-.1a3.167 3.167 0 0 1-1.896-1.133 3.26 3.26 0 0 1-.727-2.103c0-.756.221-1.428.663-2.018.442-.594 1.048-1.06 1.818-1.397.774-.342 1.653-.513 2.637-.513s1.861.17 2.631.513c.774.342 1.383.81 1.825 1.404.442.59.665 1.26.67 2.01-.005.804-.252 1.505-.742 2.104a3.183 3.183 0 0 1-1.882 1.133v.1a3.698 3.698 0 0 1 1.59.656c.48.337.86.762 1.141 1.276a3.427 3.427 0 0 1-.3 3.792c-.484.623-1.155 1.115-2.01 1.476-.851.356-1.825.535-2.923.535zm0-2.267c.49 0 .917-.088 1.283-.264.366-.18.652-.428.856-.741.209-.319.314-.685.314-1.098a1.98 1.98 0 0 0-.321-1.12 2.207 2.207 0 0 0-.87-.77 2.7 2.7 0 0 0-1.262-.285c-.47 0-.891.095-1.262.285-.37.186-.663.443-.876.77-.21.324-.314.697-.314 1.12 0 .413.102.78.306 1.098.205.313.492.56.863.74.371.177.798.265 1.283.265zm0-6.523a2.32 2.32 0 0 0 1.091-.25c.318-.166.568-.396.748-.691.181-.295.271-.635.271-1.02a1.822 1.822 0 0 0-1.012-1.675 2.311 2.311 0 0 0-1.098-.25 2.34 2.34 0 0 0-1.098.25 1.842 1.842 0 0 0-.748.677 1.861 1.861 0 0 0-.264.998c0 .385.09.725.271 1.02.181.294.43.525.749.691.318.167.682.25 1.09.25zm7.911 8.59V45.4h3.087v6.438h.193l5.254-6.438h3.699l-5.418 6.537L269.234 60h-3.693l-3.999-6.002-1.519 1.853V60h-3.087z" fill="#000"/><path fill="#fff" d="M216 81.097 223.097 74l7.097 7.097-7.097 7.097z"/></g><path d="M209.123 409v-10.22h3.643c.795 0 1.453.145 1.976.434.522.29.913.686 1.172 1.188.26.499.39 1.061.39 1.687 0 .628-.132 1.194-.395 1.696a2.853 2.853 0 0 1-1.177 1.188c-.523.289-1.18.434-1.971.434h-2.505V404.1h2.365c.502 0 .91-.087 1.222-.26.313-.176.543-.416.689-.718a2.35 2.35 0 0 0 .22-1.033c0-.386-.074-.729-.22-1.028a1.568 1.568 0 0 0-.694-.704c-.312-.17-.725-.254-1.237-.254h-1.936V409h-1.542zm10.361-10.22V409h-1.492v-10.22h1.492zm6.862 7.041v-4.486h1.497V409h-1.467v-1.327h-.08c-.176.409-.459.75-.848 1.023-.386.269-.867.404-1.442.404a2.59 2.59 0 0 1-1.308-.325 2.275 2.275 0 0 1-.888-.973c-.213-.429-.319-.959-.319-1.591v-4.876h1.492v4.696c0 .522.145.938.434 1.247.289.31.665.464 1.128.464.279 0 .557-.069.833-.209.28-.14.511-.351.694-.634.186-.283.278-.642.274-1.078zm9.246-2.615-1.353.24a1.587 1.587 0 0 0-.269-.494 1.342 1.342 0 0 0-.489-.384c-.206-.1-.464-.15-.774-.15-.422 0-.775.095-1.057.284-.283.187-.425.428-.425.724 0 .256.095.462.285.619.189.156.495.284.918.384l1.218.279c.705.163 1.23.415 1.576.754.346.339.519.78.519 1.322 0 .459-.133.869-.399 1.228-.263.356-.63.635-1.103.838-.469.203-1.013.305-1.631.305-.859 0-1.559-.183-2.101-.549-.542-.369-.875-.893-.998-1.572l1.442-.22c.09.376.274.661.554.854.279.189.644.284 1.093.284.489 0 .88-.101 1.172-.304.293-.207.439-.458.439-.754a.783.783 0 0 0-.269-.604c-.176-.163-.447-.286-.813-.369l-1.298-.284c-.715-.163-1.244-.423-1.587-.779-.339-.356-.509-.807-.509-1.352 0-.453.127-.848.38-1.188.252-.339.602-.604 1.047-.793.446-.193.957-.29 1.532-.29.829 0 1.481.18 1.957.539.475.356.79.834.943 1.432zM353 403.89c0 1.091-.199 2.029-.599 2.815-.399.781-.946 1.383-1.641 1.806-.692.419-1.479.629-2.361.629-.885 0-1.675-.21-2.37-.629-.692-.423-1.238-1.026-1.637-1.811-.399-.786-.599-1.722-.599-2.81 0-1.091.2-2.028.599-2.809.399-.785.945-1.388 1.637-1.807.695-.422 1.485-.634 2.37-.634.882 0 1.669.212 2.361.634.695.419 1.242 1.022 1.641 1.807.4.781.599 1.718.599 2.809zm-1.527 0c0-.832-.134-1.532-.404-2.101-.266-.572-.632-1.004-1.098-1.297a2.85 2.85 0 0 0-1.572-.444c-.589 0-1.114.148-1.577.444-.462.293-.828.725-1.097 1.297-.267.569-.4 1.269-.4 2.101 0 .832.133 1.534.4 2.106.269.569.635 1.001 1.097 1.297.463.293.988.44 1.577.44.586 0 1.11-.147 1.572-.44.466-.296.832-.728 1.098-1.297.27-.572.404-1.274.404-2.106zm3.33 5.11v-7.665h1.442v1.218h.08c.14-.413.386-.737.738-.973.356-.24.759-.36 1.208-.36a7.19 7.19 0 0 1 .634.035v1.427a2.908 2.908 0 0 0-.32-.054 2.956 2.956 0 0 0-.459-.035c-.352 0-.667.075-.943.224a1.664 1.664 0 0 0-.648.614c-.16.259-.24.556-.24.888V409h-1.492zm7.555.17a3.12 3.12 0 0 1-1.317-.27 2.22 2.22 0 0 1-.934-.793c-.226-.346-.339-.77-.339-1.273 0-.432.083-.788.25-1.068.166-.279.391-.5.673-.663.283-.163.599-.286.948-.37.35-.083.706-.146 1.068-.189l1.118-.13c.286-.037.494-.095.624-.175.13-.079.194-.209.194-.389v-.035c0-.436-.123-.773-.369-1.013-.243-.239-.605-.359-1.088-.359-.502 0-.898.111-1.187.334-.286.22-.484.464-.594.734l-1.402-.32c.166-.465.409-.841.728-1.127.323-.29.694-.499 1.113-.629.419-.133.86-.2 1.322-.2.306 0 .631.037.973.11.346.07.669.2.969.389.302.19.55.461.743.814.193.349.29.803.29 1.362V409h-1.458v-1.048h-.059a2.132 2.132 0 0 1-.435.569c-.193.186-.44.341-.743.464s-.665.185-1.088.185zm.324-1.198c.413 0 .766-.081 1.058-.244.296-.163.521-.376.674-.639.156-.266.234-.551.234-.854v-.988c-.053.054-.156.104-.309.15-.15.043-.321.082-.514.115l-.564.085a38.71 38.71 0 0 0-.459.06 3.688 3.688 0 0 0-.793.184 1.354 1.354 0 0 0-.569.375c-.14.159-.21.372-.21.638 0 .37.137.649.409.839.273.186.621.279 1.043.279zm6.938-3.523V409h-1.492v-7.665h1.432v1.248h.095c.176-.406.452-.732.828-.978.379-.247.857-.37 1.432-.37.523 0 .98.11 1.373.33.392.216.697.539.913.968.216.429.324.96.324 1.592V409h-1.492v-4.696c0-.555-.145-.989-.434-1.302-.289-.316-.687-.474-1.193-.474-.346 0-.653.075-.923.224-.266.15-.477.37-.634.659-.153.286-.229.632-.229 1.038zm10.12 7.585c-.609 0-1.133-.08-1.572-.24-.436-.159-.792-.37-1.068-.633a2.674 2.674 0 0 1-.619-.864l1.283-.529c.09.147.209.302.359.465.153.166.359.307.619.424.263.116.6.174 1.013.174.565 0 1.033-.138 1.402-.414.369-.273.554-.708.554-1.307v-1.507h-.095c-.09.163-.219.344-.389.544a2.117 2.117 0 0 1-.689.519c-.292.146-.673.219-1.142.219a3.19 3.19 0 0 1-1.637-.424c-.483-.286-.865-.707-1.148-1.262-.279-.559-.419-1.246-.419-2.061s.138-1.514.414-2.096c.28-.582.662-1.028 1.148-1.338a2.99 2.99 0 0 1 1.652-.469c.475 0 .86.08 1.152.24.293.156.521.339.684.549.166.209.294.394.384.554h.11v-1.243h1.462v7.835c0 .658-.153 1.199-.459 1.621-.306.423-.72.736-1.243.939-.519.203-1.104.304-1.756.304zm-.015-4.386c.429 0 .792-.1 1.088-.3.299-.203.525-.492.678-.868.157-.379.235-.833.235-1.362 0-.516-.077-.97-.23-1.363-.153-.392-.377-.698-.673-.918-.296-.223-.662-.334-1.098-.334-.449 0-.823.116-1.123.349a2.11 2.11 0 0 0-.678.938c-.15.396-.225.839-.225 1.328 0 .502.076.943.229 1.322.154.379.38.675.679.888.303.213.675.32 1.118.32zm8.778 1.507c-.756 0-1.406-.162-1.952-.484a3.284 3.284 0 0 1-1.257-1.373c-.293-.592-.439-1.285-.439-2.081 0-.785.146-1.477.439-2.075a3.416 3.416 0 0 1 1.237-1.403c.533-.336 1.155-.504 1.867-.504.432 0 .851.072 1.257.215.406.143.77.368 1.093.674.323.306.577.703.764 1.192.186.486.279 1.076.279 1.772v.529h-6.093v-1.118h4.631c0-.393-.08-.74-.24-1.043a1.814 1.814 0 0 0-.673-.724 1.885 1.885 0 0 0-1.008-.264c-.419 0-.785.103-1.098.309a2.08 2.08 0 0 0-.719.799c-.166.326-.249.68-.249 1.063v.873c0 .512.09.948.269 1.307.183.36.438.634.764.824.326.186.707.279 1.143.279.282 0 .54-.04.773-.12a1.599 1.599 0 0 0 .993-.973l1.412.255c-.113.416-.316.78-.609 1.093-.289.309-.653.55-1.092.723-.436.17-.933.255-1.492.255zM64.963 125v-1.118l3.458-3.583c.37-.389.673-.73.913-1.023a3.85 3.85 0 0 0 .544-.843c.12-.266.18-.549.18-.848 0-.34-.08-.632-.24-.879a1.567 1.567 0 0 0-.654-.573 2.07 2.07 0 0 0-.933-.205c-.366 0-.685.075-.958.224a1.54 1.54 0 0 0-.629.634c-.146.273-.22.592-.22.958h-1.471c0-.622.143-1.166.429-1.631a2.912 2.912 0 0 1 1.177-1.083c.5-.26 1.067-.39 1.702-.39.642 0 1.208.129 1.697.385.492.253.876.599 1.153 1.038.276.435.414.928.414 1.477 0 .379-.072.75-.215 1.113-.14.362-.384.766-.733 1.212-.35.443-.835.98-1.457 1.612l-2.032 2.126v.075h4.601V125h-6.726zm12.176.17c-.789-.004-1.462-.212-2.021-.624-.56-.413-.987-1.013-1.283-1.802-.296-.788-.444-1.738-.444-2.849 0-1.108.148-2.054.444-2.839.3-.785.729-1.384 1.288-1.797.562-.412 1.234-.619 2.016-.619.781 0 1.452.208 2.01.624.56.413.987 1.012 1.283 1.797.3.781.45 1.726.45 2.834 0 1.115-.149 2.066-.445 2.854-.296.786-.724 1.386-1.282 1.802-.56.412-1.231.619-2.016.619zm0-1.333c.692 0 1.232-.337 1.621-1.013.393-.675.59-1.651.59-2.929 0-.848-.09-1.565-.27-2.151-.177-.589-.431-1.034-.764-1.337a1.67 1.67 0 0 0-1.177-.459c-.689 0-1.23.339-1.622 1.018-.393.679-.59 1.655-.594 2.929 0 .852.088 1.572.264 2.161.18.585.435 1.029.764 1.332.33.3.725.449 1.188.449zM82.79 125v-10.22h1.542v4.881h.125l4.287-4.881h1.94l-4.121 4.601L90.7 125h-1.857l-3.303-4.566-1.208 1.387V125h-1.542zM71.816 221.794v10.22H70.27v-8.673h-.06l-2.445 1.597v-1.477l2.55-1.667h1.502zm6.323 10.39c-.789-.004-1.462-.211-2.021-.624-.56-.412-.987-1.013-1.283-1.801-.296-.789-.444-1.739-.444-2.85 0-1.108.148-2.054.444-2.839.3-.785.729-1.384 1.288-1.797.562-.412 1.234-.618 2.016-.618.781 0 1.452.208 2.01.623.56.413.987 1.012 1.283 1.797.3.782.45 1.726.45 2.834 0 1.115-.149 2.066-.445 2.855-.296.785-.724 1.385-1.282 1.801-.56.413-1.231.619-2.016.619zm0-1.333c.692 0 1.232-.337 1.621-1.013.393-.675.59-1.651.59-2.929 0-.848-.09-1.565-.27-2.151-.177-.588-.431-1.034-.764-1.337a1.67 1.67 0 0 0-1.177-.459c-.689 0-1.23.339-1.622 1.018-.393.679-.59 1.655-.594 2.929 0 .852.088 1.572.264 2.161.18.585.435 1.03.764 1.332.33.3.725.449 1.188.449zm5.652 1.163v-10.22h1.542v4.881h.125l4.287-4.881h1.94l-4.121 4.601 4.137 5.619h-1.857l-3.303-4.566-1.208 1.387v3.179h-1.542zM74.858 339.028l4.461-8.822v-.075h-5.16v-1.322h6.757v1.367l-4.446 8.852h-1.612zm7.933 0v-10.219h1.542v4.88h.125l4.287-4.88h1.94l-4.121 4.6 4.137 5.619h-1.857l-3.303-4.566-1.208 1.388v3.178h-1.542z" fill="#8D8D8D"/><path d="M325 335c0-5.523 4.477-10 10-10h65c5.523 0 10 4.477 10 10v41h-85v-41z" fill="#001E2F"/><path d="M180 115c0-5.523 4.477-10 10-10h65c5.523 0 10 4.477 10 10v261h-85V115z" fill="#01EB64"/><path d="M114.381 45.173v330.503h346.287" stroke="#E8E8E8" stroke-width="2.007"/><g filter="url(#b)"><rect x="313" y="244.94" width="110.149" height="56.119" rx="16.06" fill="#fff" shape-rendering="crispEdges"/><path d="M341.109 271.495v2.41h-6.658v-2.41h6.658zm2.548 8.505 6.053-11.976v-.1h-7.051V265.4h10.244v2.56L346.844 280h-3.187zm17.714-14.6V280h-3.087v-11.67h-.086l-3.343 2.096v-2.737l3.614-2.289h2.902zm4.047 14.6 6.052-11.976v-.1h-7.05V265.4h10.244v2.56L368.605 280h-3.187zm16.448-14.799c.751 0 1.473.126 2.167.377a4.999 4.999 0 0 1 1.868 1.205c.551.552.986 1.283 1.304 2.196.323.908.487 2.022.492 3.343 0 1.241-.14 2.348-.42 3.322-.276.97-.673 1.794-1.191 2.474a5.193 5.193 0 0 1-1.875 1.554c-.732.352-1.549.528-2.452.528-.974 0-1.835-.188-2.581-.564a4.833 4.833 0 0 1-1.803-1.547 4.805 4.805 0 0 1-.82-2.209h3.044c.119.532.368.945.748 1.24.381.29.851.435 1.412.435.95 0 1.673-.414 2.167-1.241.494-.831.744-1.969.749-3.414h-.1a3.52 3.52 0 0 1-.884 1.105 4.115 4.115 0 0 1-1.276.705c-.476.167-.982.25-1.519.25-.86 0-1.627-.202-2.302-.606a4.35 4.35 0 0 1-1.597-1.668c-.39-.708-.585-1.516-.585-2.424-.004-.979.221-1.851.678-2.616a4.778 4.778 0 0 1 1.91-1.797c.822-.437 1.777-.653 2.866-.648zm.021 2.423c-.48 0-.908.115-1.283.343a2.523 2.523 0 0 0-.884.919 2.565 2.565 0 0 0-.314 1.291c0 .48.105.912.314 1.297.214.38.504.684.87.912.37.224.793.336 1.269.336a2.451 2.451 0 0 0 1.782-.749c.228-.238.406-.511.535-.82a2.628 2.628 0 0 0-.136-2.253 2.509 2.509 0 0 0-.884-.926 2.355 2.355 0 0 0-1.269-.35zM389.921 280v-14.6h3.087v6.438h.193l5.253-6.438h3.7l-5.418 6.537 5.482 8.063h-3.692l-3.999-6.002-1.519 1.853V280h-3.087z" fill="#000"/><path fill="#fff" d="m361 301.097 7.097-7.097 7.097 7.097-7.097 7.097z"/></g><path d="M461.287 334H115M461.287 227H115M461.287 120H115" stroke="#EAEAEA" stroke-width="2.007" stroke-linecap="round" stroke-linejoin="round" stroke-dasharray="4.01 4.01"/><defs><filter id="a" x="131.91" y="12.896" width="182.328" height="111.434" filterUnits="userSpaceOnUse" color-interpolation-filters="sRGB"><feFlood flood-opacity="0" result="BackgroundImageFix"/><feColorMatrix in="SourceAlpha" values="0 0 0 0 0 0 0 0 0 0 0 0 0 0 0 0 0 0 127 0" result="hardAlpha"/><feOffset dy="12.045"/><feGaussianBlur stdDeviation="12.045"/><feComposite in2="hardAlpha" operator="out"/><feColorMatrix values="0 0 0 0 0 0 0 0 0 0 0 0 0 0 0 0 0 0 0.12 0"/><feBlend in2="BackgroundImageFix" result="effect1_dropShadow_141_219"/><feBlend in="SourceGraphic" in2="effect1_dropShadow_141_219" result="shape"/></filter><filter id="b" x="288.91" y="232.896" width="158.328" height="111.434" filterUnits="userSpaceOnUse" color-interpolation-filters="sRGB"><feFlood flood-opacity="0" result="BackgroundImageFix"/><feColorMatrix in="SourceAlpha" values="0 0 0 0 0 0 0 0 0 0 0 0 0 0 0 0 0 0 127 0" result="hardAlpha"/><feOffset dy="12.045"/><feGaussianBlur stdDeviation="12.045"/><feComposite in2="hardAlpha" operator="out"/><feColorMatrix values="0 0 0 0 0 0 0 0 0 0 0 0 0 0 0 0 0 0 0.12 0"/><feBlend in2="BackgroundImageFix" result="effect1_dropShadow_141_219"/><feBlend in="SourceGraphic" in2="effect1_dropShadow_141_219" result="shape"/></filter></defs></svg>