<svg width="538" height="440" fill="none" xmlns="http://www.w3.org/2000/svg"><rect width="538" height="440" rx="16.06" fill="#F8F8F8"/><path d="m105 365.5 55.5-100 27 42.5 52.5-30 100.5-142.5 41.5 130 28.5-64L445 82" stroke="#175CD3" stroke-width="6" stroke-linecap="round" stroke-linejoin="round"/><path d="M107.379 402.767v-1.118l3.458-3.583c.369-.389.673-.73.913-1.023.243-.296.424-.577.544-.843.12-.266.18-.549.18-.848 0-.34-.08-.632-.24-.879a1.57 1.57 0 0 0-.654-.573 2.07 2.07 0 0 0-.933-.205c-.366 0-.685.075-.958.225a1.54 1.54 0 0 0-.629.633 2.001 2.001 0 0 0-.219.958h-1.472c0-.622.143-1.166.429-1.631a2.91 2.91 0 0 1 1.177-1.083c.499-.26 1.067-.389 1.702-.389.642 0 1.208.128 1.697.384.492.253.876.599 1.152 1.038.277.436.415.928.415 1.477 0 .379-.072.75-.215 1.113-.14.362-.384.766-.734 1.212-.349.443-.835.98-1.457 1.612l-2.031 2.126v.075h4.601v1.322h-6.726zm12.176.17c-.789-.004-1.463-.211-2.021-.624-.559-.413-.987-1.013-1.283-1.801-.296-.789-.444-1.739-.444-2.85 0-1.108.148-2.054.444-2.839.299-.785.729-1.384 1.287-1.797.563-.412 1.235-.618 2.017-.618.781 0 1.452.207 2.011.623.558.413.986 1.012 1.282 1.797.299.782.449 1.726.449 2.834 0 1.115-.148 2.066-.444 2.855-.296.785-.724 1.385-1.282 1.801-.559.412-1.231.619-2.016.619zm0-1.333c.691 0 1.232-.337 1.621-1.013.393-.675.589-1.651.589-2.929 0-.848-.09-1.565-.269-2.151-.177-.588-.431-1.034-.764-1.337a1.67 1.67 0 0 0-1.177-.459c-.689 0-1.23.339-1.622 1.018-.393.679-.591 1.655-.594 2.929 0 .852.088 1.572.264 2.161.18.585.435 1.03.764 1.332a1.7 1.7 0 0 0 1.188.449zm9.07 1.333c-.788-.004-1.462-.211-2.021-.624-.559-.413-.986-1.013-1.282-1.801-.296-.789-.444-1.739-.444-2.85 0-1.108.148-2.054.444-2.839.299-.785.728-1.384 1.287-1.797.563-.412 1.235-.618 2.016-.618.782 0 1.452.207 2.011.623.559.413.987 1.012 1.283 1.797.299.782.449 1.726.449 2.834 0 1.115-.148 2.066-.444 2.855-.296.785-.724 1.385-1.283 1.801-.559.412-1.231.619-2.016.619zm0-1.333c.692 0 1.233-.337 1.622-1.013.393-.675.589-1.651.589-2.929 0-.848-.09-1.565-.269-2.151-.177-.588-.431-1.034-.764-1.337a1.67 1.67 0 0 0-1.178-.459c-.688 0-1.229.339-1.621 1.018-.393.679-.591 1.655-.594 2.929 0 .852.088 1.572.264 2.161.18.585.434 1.03.764 1.332a1.7 1.7 0 0 0 1.187.449zm9.071 1.333c-.788-.004-1.462-.211-2.021-.624-.559-.413-.986-1.013-1.282-1.801-.296-.789-.444-1.739-.444-2.85 0-1.108.148-2.054.444-2.839.299-.785.728-1.384 1.287-1.797.562-.412 1.234-.618 2.016-.618s1.452.207 2.011.623c.559.413.987 1.012 1.283 1.797.299.782.449 1.726.449 2.834 0 1.115-.148 2.066-.444 2.855-.296.785-.724 1.385-1.283 1.801-.559.412-1.231.619-2.016.619zm0-1.333c.692 0 1.233-.337 1.622-1.013.393-.675.589-1.651.589-2.929 0-.848-.09-1.565-.27-2.151-.176-.588-.43-1.034-.763-1.337a1.672 1.672 0 0 0-1.178-.459c-.688 0-1.229.339-1.622 1.018-.392.679-.59 1.655-.593 2.929 0 .852.088 1.572.264 2.161.18.585.434 1.03.764 1.332a1.7 1.7 0 0 0 1.187.449zM261.819 402.767v-1.118l3.458-3.583c.369-.389.674-.73.913-1.023.243-.296.424-.577.544-.843.12-.266.18-.549.18-.848 0-.34-.08-.632-.24-.879a1.561 1.561 0 0 0-.653-.573 2.077 2.077 0 0 0-.934-.205c-.366 0-.685.075-.958.225a1.538 1.538 0 0 0-.628.633 1.99 1.99 0 0 0-.22.958h-1.472c0-.622.143-1.166.429-1.631a2.913 2.913 0 0 1 1.178-1.083c.499-.26 1.066-.389 1.701-.389.642 0 1.208.128 1.697.384a2.89 2.89 0 0 1 1.153 1.038c.276.436.414.928.414 1.477 0 .379-.072.75-.215 1.113-.139.362-.384.766-.733 1.212-.35.443-.835.98-1.457 1.612l-2.031 2.126v.075h4.601v1.322h-6.727zm12.176.17c-.789-.004-1.462-.211-2.021-.624-.559-.413-.987-1.013-1.283-1.801-.296-.789-.444-1.739-.444-2.85 0-1.108.148-2.054.444-2.839.3-.785.729-1.384 1.288-1.797.562-.412 1.234-.618 2.016-.618s1.452.207 2.011.623c.559.413.986 1.012 1.282 1.797.3.782.449 1.726.449 2.834 0 1.115-.148 2.066-.444 2.855-.296.785-.723 1.385-1.282 1.801-.559.412-1.231.619-2.016.619zm0-1.333c.692 0 1.232-.337 1.622-1.013.392-.675.588-1.651.588-2.929 0-.848-.089-1.565-.269-2.151-.176-.588-.431-1.034-.764-1.337a1.668 1.668 0 0 0-1.177-.459c-.689 0-1.229.339-1.622 1.018s-.59 1.655-.594 2.929c0 .852.088 1.572.265 2.161.179.585.434 1.03.763 1.332.33.3.725.449 1.188.449zm9.39-9.057v10.22h-1.547v-8.673h-.06l-2.445 1.597v-1.477l2.55-1.667h1.502zm6.323 10.39c-.789-.004-1.463-.211-2.021-.624-.559-.413-.987-1.013-1.283-1.801-.296-.789-.444-1.739-.444-2.85 0-1.108.148-2.054.444-2.839.299-.785.729-1.384 1.288-1.797.562-.412 1.234-.618 2.016-.618.781 0 1.452.207 2.011.623.558.413.986 1.012 1.282 1.797.299.782.449 1.726.449 2.834 0 1.115-.148 2.066-.444 2.855-.296.785-.724 1.385-1.282 1.801-.559.412-1.231.619-2.016.619zm0-1.333c.691 0 1.232-.337 1.621-1.013.393-.675.589-1.651.589-2.929 0-.848-.09-1.565-.269-2.151-.177-.588-.431-1.034-.764-1.337a1.67 1.67 0 0 0-1.177-.459c-.689 0-1.23.339-1.622 1.018-.393.679-.591 1.655-.594 2.929 0 .852.088 1.572.264 2.161.18.585.435 1.03.764 1.332a1.7 1.7 0 0 0 1.188.449zM414.259 402.767v-1.118l3.458-3.583c.37-.389.674-.73.914-1.023.242-.296.424-.577.543-.843.12-.266.18-.549.18-.848 0-.34-.08-.632-.239-.879a1.57 1.57 0 0 0-.654-.573 2.07 2.07 0 0 0-.933-.205c-.366 0-.686.075-.958.225a1.535 1.535 0 0 0-.629.633 1.99 1.99 0 0 0-.22.958h-1.472c0-.622.143-1.166.429-1.631a2.913 2.913 0 0 1 1.178-1.083c.499-.26 1.066-.389 1.702-.389.642 0 1.207.128 1.696.384.493.253.877.599 1.153 1.038.276.436.414.928.414 1.477 0 .379-.071.75-.214 1.113-.14.362-.385.766-.734 1.212-.349.443-.835.98-1.457 1.612l-2.031 2.126v.075h4.601v1.322h-6.727zm12.176.17c-.788-.004-1.462-.211-2.021-.624-.559-.413-.986-1.013-1.282-1.801-.296-.789-.444-1.739-.444-2.85 0-1.108.148-2.054.444-2.839.299-.785.728-1.384 1.287-1.797.562-.412 1.234-.618 2.016-.618s1.452.207 2.011.623c.559.413.987 1.012 1.283 1.797.299.782.449 1.726.449 2.834 0 1.115-.148 2.066-.444 2.855-.296.785-.724 1.385-1.283 1.801-.559.412-1.231.619-2.016.619zm0-1.333c.692 0 1.233-.337 1.622-1.013.392-.675.589-1.651.589-2.929 0-.848-.09-1.565-.27-2.151-.176-.588-.431-1.034-.763-1.337a1.672 1.672 0 0 0-1.178-.459c-.689 0-1.229.339-1.622 1.018-.392.679-.59 1.655-.593 2.929 0 .852.088 1.572.264 2.161.18.585.434 1.03.763 1.332.33.3.726.449 1.188.449zm9.39-9.057v10.22h-1.547v-8.673h-.06l-2.445 1.597v-1.477l2.55-1.667h1.502zm3.109 10.22 4.461-8.822v-.075h-5.159v-1.323h6.756v1.368l-4.446 8.852h-1.612zM48.556 78.64c.456.004.905.087 1.347.25.443.163.842.43 1.198.798.359.37.645.869.858 1.497.216.626.326 1.404.33 2.336 0 .895-.09 1.692-.27 2.39-.18.695-.438 1.283-.774 1.762-.332.479-.736.843-1.212 1.093a3.406 3.406 0 0 1-1.607.374c-.609 0-1.15-.12-1.622-.36a3.089 3.089 0 0 1-1.153-.993 3.284 3.284 0 0 1-.553-1.467h1.522c.1.44.302.795.608 1.068.31.27.709.404 1.198.404.748 0 1.332-.326 1.752-.978.419-.655.63-1.57.633-2.744h-.08a2.76 2.76 0 0 1-.648.738 2.919 2.919 0 0 1-.864.48c-.319.112-.66.169-1.023.169a3.064 3.064 0 0 1-1.606-.434 3.202 3.202 0 0 1-1.153-1.193c-.286-.505-.43-1.083-.43-1.731 0-.646.147-1.231.44-1.757a3.277 3.277 0 0 1 1.237-1.247c.533-.31 1.157-.461 1.872-.454zm.005 1.298c-.39 0-.74.096-1.053.29a2.05 2.05 0 0 0-.734.773c-.18.322-.27.682-.27 1.078s.087.755.26 1.078c.177.319.416.573.719.763.306.186.655.28 1.048.28.293 0 .565-.057.818-.17.253-.113.474-.27.664-.47.19-.202.337-.432.444-.688.106-.256.16-.525.16-.808 0-.376-.09-.725-.27-1.048a2.1 2.1 0 0 0-.728-.779c-.31-.2-.662-.3-1.058-.3zm9.088 9.232c-.788-.004-1.462-.212-2.021-.624-.559-.413-.986-1.013-1.282-1.802-.296-.788-.445-1.738-.445-2.849 0-1.108.148-2.054.444-2.84.3-.784.73-1.383 1.288-1.796.562-.412 1.234-.618 2.016-.618s1.452.207 2.011.623c.559.413.986 1.012 1.283 1.797.299.781.449 1.726.449 2.834 0 1.115-.148 2.066-.445 2.854-.296.786-.723 1.386-1.282 1.802-.559.412-1.23.619-2.016.619zm0-1.333c.692 0 1.233-.337 1.622-1.013.392-.675.589-1.651.589-2.929 0-.848-.09-1.565-.27-2.15-.176-.59-.43-1.035-.763-1.338a1.67 1.67 0 0 0-1.178-.46c-.689 0-1.23.34-1.622 1.019-.392.678-.59 1.655-.594 2.93 0 .85.089 1.571.265 2.16.18.585.434 1.03.763 1.332.33.3.726.45 1.188.45zm5.653-9.057h1.87l3.255 7.945h.12L71.8 78.78h1.871V89h-1.467v-7.395h-.095l-3.014 7.38h-1.217L64.864 81.6h-.095V89h-1.467V78.78zm15.495 8.503v-6.746h1.343v6.746h-1.343zm-2.7-2.704V83.24h6.747v1.338h-6.746z" fill="#8D8D8D"/><path d="M449.436 83.5H103.149" stroke="#E8E8E8" stroke-width="2.007" stroke-linecap="round" stroke-linejoin="round" stroke-dasharray="4.01 4.01"/><path d="M54.657 196.14c-.685 0-1.297-.118-1.836-.355-.535-.236-.96-.563-1.272-.983a2.606 2.606 0 0 1-.5-1.467h1.568c.02.303.12.566.304.789.186.219.429.389.728.509.3.119.633.179.998.179.403 0 .759-.07 1.068-.209.313-.14.558-.335.734-.584a1.49 1.49 0 0 0 .264-.873c0-.343-.088-.644-.264-.904a1.722 1.722 0 0 0-.764-.618c-.332-.15-.735-.225-1.207-.225h-.864v-1.257h.864a2.3 2.3 0 0 0 .998-.205c.29-.136.516-.326.678-.569.163-.246.245-.534.245-.863 0-.316-.072-.591-.215-.824a1.44 1.44 0 0 0-.598-.553 1.934 1.934 0 0 0-.909-.2c-.332 0-.643.061-.933.185a1.71 1.71 0 0 0-.698.519 1.33 1.33 0 0 0-.29.803h-1.492c.017-.552.18-1.038.49-1.457a3.162 3.162 0 0 1 1.237-.983 4.031 4.031 0 0 1 1.706-.355c.656 0 1.221.129 1.697.385.48.253.848.59 1.108 1.013.263.422.392.885.389 1.387.003.572-.156 1.058-.479 1.457-.32.399-.745.667-1.277.803v.08c.678.103 1.204.373 1.576.809.376.436.563.976.56 1.622a2.525 2.525 0 0 1-.47 1.512c-.313.445-.74.796-1.282 1.052-.542.253-1.163.38-1.862.38zm7.159-1.537-.075.544a8.73 8.73 0 0 1-.255 1.247c-.116.436-.237.84-.364 1.213-.123.372-.224.669-.304.888H59.76c.043-.206.103-.486.18-.838.076-.35.15-.74.224-1.173.073-.432.128-.873.165-1.322l.05-.559h1.437zM63.903 196v-1.118l3.458-3.583c.37-.389.674-.73.913-1.023a3.85 3.85 0 0 0 .544-.843c.12-.266.18-.549.18-.848 0-.34-.08-.632-.24-.879a1.567 1.567 0 0 0-.653-.573 2.07 2.07 0 0 0-.934-.205c-.366 0-.685.075-.958.224a1.54 1.54 0 0 0-.628.634c-.147.273-.22.592-.22.958h-1.472c0-.622.143-1.166.43-1.631a2.912 2.912 0 0 1 1.177-1.083c.499-.26 1.066-.39 1.701-.39.643 0 1.208.129 1.697.385.492.253.877.599 1.153 1.038a2.7 2.7 0 0 1 .414 1.477c0 .379-.072.75-.215 1.113-.14.362-.384.766-.733 1.212-.35.443-.835.98-1.457 1.612l-2.031 2.126v.075h4.6V196h-6.726zm8.758-10.22h1.87l3.254 7.944h.12l3.254-7.944h1.871V196h-1.467v-7.395h-.095l-3.014 7.38h-1.217l-3.014-7.385h-.095v7.4H72.66v-10.22z" fill="#8D8D8D"/><path d="M449.436 190.507H103.149" stroke="#E8E8E8" stroke-width="2.007" stroke-linecap="round" stroke-linejoin="round" stroke-dasharray="4.01 4.01"/><path d="M57.749 292.794v10.22h-1.547v-8.673h-.06l-2.445 1.597v-1.477l2.55-1.667h1.502zm4.135 8.823-.074.544c-.05.399-.135.815-.255 1.247-.116.436-.238.84-.364 1.213-.123.373-.225.669-.305.888h-1.058l.18-.838c.077-.349.151-.74.225-1.173.073-.432.128-.873.164-1.322l.05-.559h1.437zm5.296 1.537c-.625 0-1.188-.12-1.687-.359a3.07 3.07 0 0 1-1.187-.998 2.637 2.637 0 0 1-.474-1.448h1.497c.036.44.231.801.584 1.083.352.283.775.424 1.267.424a2 2 0 0 0 1.043-.269 1.93 1.93 0 0 0 .719-.754 2.22 2.22 0 0 0 .264-1.092c0-.416-.09-.787-.27-1.113a1.996 1.996 0 0 0-.743-.769 2.1 2.1 0 0 0-1.078-.284c-.31 0-.62.053-.933.16a2.16 2.16 0 0 0-.758.419l-1.413-.21.574-5.15h5.62v1.323h-4.337l-.325 2.859h.06c.2-.193.464-.354.794-.484.332-.13.688-.195 1.068-.195.622 0 1.176.148 1.661.445.49.296.874.7 1.153 1.212.283.509.423 1.095.42 1.757.003.662-.147 1.252-.45 1.771-.3.519-.715.928-1.247 1.228-.53.296-1.136.444-1.822.444zm5.48-10.36h1.872l3.254 7.945h.12l3.253-7.945h1.871v10.22h-1.467v-7.395h-.095l-3.014 7.38h-1.217l-3.014-7.385h-.095v7.4H72.66v-10.22z" fill="#8D8D8D"/><path d="M449.436 297.514H103.149" stroke="#E8E8E8" stroke-width="2.007" stroke-linecap="round" stroke-linejoin="round" stroke-dasharray="4.01 4.01"/><path d="M102.381 38.173v330.503h346.287" stroke="#E8E8E8" stroke-width="2.007"/><ellipse cx="445.657" cy="80.365" rx="12.045" ry="12.055" fill="#175CD3"/><ellipse cx="445.657" cy="80.365" rx="8.03" ry="8.037" fill="#fff"/><g filter="url(#a)"><rect x="300" y="45.94" width="108.149" height="56.119" rx="16.06" fill="#fff" shape-rendering="crispEdges"/><path d="M326.541 66.2c.75 0 1.473.127 2.167.379a4.99 4.99 0 0 1 1.867 1.204c.552.552.987 1.283 1.305 2.196.323.908.487 2.022.492 3.343 0 1.24-.14 2.348-.421 3.322-.275.97-.672 1.794-1.19 2.474a5.202 5.202 0 0 1-1.875 1.554c-.732.352-1.549.528-2.452.528-.975 0-1.835-.188-2.581-.564a4.854 4.854 0 0 1-1.804-1.546 4.82 4.82 0 0 1-.819-2.21h3.044c.118.532.368.945.748 1.24.38.29.851.435 1.412.435.95 0 1.672-.414 2.167-1.24.494-.832.743-1.97.748-3.415h-.1a3.481 3.481 0 0 1-.884 1.105c-.37.304-.796.54-1.276.705-.475.167-.981.25-1.518.25-.86 0-1.628-.202-2.303-.606a4.347 4.347 0 0 1-1.596-1.668c-.39-.708-.585-1.516-.585-2.424-.005-.979.221-1.851.677-2.616a4.768 4.768 0 0 1 1.911-1.797c.822-.437 1.777-.653 2.866-.648zm.021 2.424c-.48 0-.908.115-1.283.343a2.519 2.519 0 0 0-.884.92 2.554 2.554 0 0 0-.314 1.29c0 .48.105.912.314 1.297.214.38.504.684.869.912.371.224.794.336 1.269.336a2.442 2.442 0 0 0 1.783-.749c.228-.238.406-.51.534-.82.129-.309.193-.637.193-.984a2.628 2.628 0 0 0-.328-1.269 2.51 2.51 0 0 0-.884-.926 2.36 2.36 0 0 0-1.269-.35zm13.673 12.697c-1.226-.005-2.281-.307-3.165-.906-.88-.598-1.557-1.466-2.032-2.602-.47-1.135-.703-2.502-.699-4.099 0-1.592.236-2.948.706-4.07.475-1.122 1.153-1.975 2.032-2.56.884-.589 1.936-.883 3.158-.883 1.221 0 2.272.294 3.151.884.884.589 1.563 1.444 2.039 2.566.475 1.117.71 2.471.705 4.063 0 1.602-.237 2.97-.713 4.107-.47 1.135-1.145 2.003-2.024 2.602-.879.598-1.932.898-3.158.898zm0-2.56c.836 0 1.504-.42 2.003-1.261.499-.841.746-2.103.741-3.786 0-1.107-.114-2.029-.342-2.766-.223-.736-.542-1.29-.955-1.66a2.083 2.083 0 0 0-1.447-.557c-.832 0-1.497.416-1.996 1.248-.499.832-.751 2.077-.756 3.735 0 1.122.112 2.058.335 2.81.228.745.549 1.306.963 1.681.413.371.898.557 1.454.557zM353.006 81V70.05h2.894v1.932h.129a3.037 3.037 0 0 1 1.14-1.518c.533-.371 1.169-.556 1.911-.556.751 0 1.39.187 1.917.563.528.37.88.874 1.055 1.511h.115a2.913 2.913 0 0 1 1.211-1.504c.59-.38 1.286-.57 2.089-.57 1.022 0 1.851.325 2.488.976.642.647.963 1.564.963 2.752V81h-3.03v-6.765c0-.609-.162-1.065-.485-1.369-.323-.304-.727-.456-1.212-.456-.551 0-.981.176-1.29.527-.309.347-.464.806-.464 1.376V81h-2.944v-6.83c0-.536-.154-.964-.463-1.282-.304-.319-.706-.478-1.205-.478-.337 0-.641.085-.912.257a1.766 1.766 0 0 0-.635.705c-.157.3-.235.651-.235 1.055V81h-3.037zm21.347-14.6V81h-3.037V66.4h3.037zm5.47 8.27V81h-3.037V70.05h2.894v1.932h.128a3.056 3.056 0 0 1 1.22-1.511c.57-.376 1.261-.563 2.074-.563.76 0 1.423.166 1.989.499a3.398 3.398 0 0 1 1.319 1.425c.313.614.47 1.345.47 2.196V81h-3.037v-6.43c.005-.67-.166-1.193-.513-1.569-.347-.38-.824-.57-1.433-.57-.409 0-.77.088-1.083.264a1.832 1.832 0 0 0-.727.77c-.172.333-.26.734-.264 1.205z" fill="#000"/></g><path fill="#fff" d="m401 74.105 7.098-7.097 7.097 7.097-7.097 7.097z"/><path d="M19.273 289.997H28v1.21l-6.4 4.436v.081H28v1.317h-8.727v-1.219l6.409-4.44v-.081h-6.41v-1.304zm6.012-5.965h-3.83v-1.278H28v1.253h-1.134v.068c.35.15.641.392.874.724.23.33.345.74.345 1.232 0 .42-.092.793-.277 1.116a1.95 1.95 0 0 1-.83.759c-.367.182-.82.273-1.36.273h-4.163v-1.275h4.01c.445 0 .8-.123 1.065-.37.264-.247.396-.568.396-.963 0-.239-.06-.476-.179-.712-.12-.239-.3-.436-.541-.592-.241-.159-.548-.238-.92-.235zm2.715-2.99h-6.546v-1.223h1.066v-.081a1.687 1.687 0 0 1-.844-.669c-.204-.31-.307-.681-.307-1.112 0-.438.103-.804.307-1.1a1.8 1.8 0 0 1 .844-.66v-.068a1.846 1.846 0 0 1-.835-.746c-.21-.341-.316-.747-.316-1.219 0-.594.186-1.078.559-1.453.372-.378.933-.567 1.683-.567H28v1.274h-4.27c-.443 0-.764.121-.963.363a1.315 1.315 0 0 0-.298.865c0 .414.128.737.383.967.253.23.578.345.976.345H28v1.27h-4.35c-.356 0-.641.111-.857.332-.216.222-.324.51-.324.865 0 .242.064.465.191.669.125.202.3.366.525.491.224.122.484.183.78.183H28v1.274zm0-10.708h-8.727v-1.274h3.243v-.077a3.588 3.588 0 0 1-.473-.319 1.809 1.809 0 0 1-.47-.58c-.136-.247-.204-.574-.204-.98 0-.528.134-1 .4-1.415.268-.414.653-.74 1.156-.976.503-.238 1.108-.358 1.815-.358.707 0 1.314.118 1.82.354.503.236.89.56 1.163.972.27.412.405.882.405 1.41 0 .398-.067.723-.2.976-.134.25-.29.446-.47.588a3.487 3.487 0 0 1-.476.328v.107H28v1.244zm-3.273-1.248c.46 0 .864-.067 1.21-.201.347-.133.618-.326.814-.579.194-.253.29-.563.29-.929 0-.381-.1-.699-.302-.955a1.877 1.877 0 0 0-.831-.579 3.276 3.276 0 0 0-1.18-.201c-.433 0-.82.066-1.164.196a1.78 1.78 0 0 0-.814.58c-.199.256-.298.575-.298.959 0 .369.095.682.285.937.19.253.456.445.797.576.341.13.739.196 1.193.196zm3.405-8.982c0 .645-.138 1.2-.413 1.666-.279.463-.67.821-1.172 1.074-.506.25-1.098.375-1.777.375-.67 0-1.261-.125-1.773-.375a2.911 2.911 0 0 1-1.197-1.057c-.287-.455-.43-.986-.43-1.594 0-.369.06-.727.183-1.074.122-.346.313-.657.575-.933a2.71 2.71 0 0 1 1.018-.652c.415-.159.92-.239 1.513-.239h.452v5.204h-.955v-3.955c-.335 0-.632.068-.89.205a1.545 1.545 0 0 0-.618.575c-.15.244-.226.531-.226.861 0 .358.088.67.264.937.173.264.4.469.682.614.278.142.58.213.908.213h.745c.438 0 .81-.077 1.117-.23.307-.157.541-.374.703-.652.159-.279.238-.604.238-.976 0-.242-.034-.462-.102-.661a1.373 1.373 0 0 0-.831-.848l.218-1.206c.355.097.666.27.933.52.264.247.47.559.618.934.145.372.217.796.217 1.274zM28 255.882h-6.546v-1.232h1.04v-.068a1.582 1.582 0 0 1-.83-.631 1.803 1.803 0 0 1-.308-1.031 5.445 5.445 0 0 1 .03-.541h1.22c-.015.051-.03.142-.048.273-.02.13-.03.261-.03.392 0 .301.064.569.192.805a1.422 1.422 0 0 0 1.283.759H28v1.274zm.132-10.539c0 .614-.14 1.15-.422 1.607a2.847 2.847 0 0 1-1.18 1.065c-.506.253-1.097.38-1.773.38-.679 0-1.273-.127-1.781-.38a2.841 2.841 0 0 1-1.185-1.065c-.281-.457-.422-.993-.422-1.607 0-.613.14-1.149.422-1.606a2.828 2.828 0 0 1 1.185-1.065c.508-.253 1.102-.38 1.781-.38.676 0 1.267.127 1.773.38.505.252.899.607 1.18 1.065.281.457.422.993.422 1.606zm-1.07-.004c0-.398-.105-.727-.315-.989a1.85 1.85 0 0 0-.84-.579 3.336 3.336 0 0 0-1.154-.192c-.418 0-.801.064-1.15.192a1.876 1.876 0 0 0-.849.579c-.213.262-.32.591-.32.989 0 .401.107.733.32.997a1.9 1.9 0 0 0 .848.584c.35.125.733.188 1.15.188.421 0 .806-.063 1.156-.188.35-.128.629-.322.84-.584.21-.264.314-.596.314-.997zm-5.608-7.584h1.023v3.699h-1.023v-3.699zM28 240.44h-7.304c-.41 0-.749-.09-1.018-.269a1.647 1.647 0 0 1-.61-.711 2.274 2.274 0 0 1-.204-.964c0-.255.02-.474.064-.656a2.95 2.95 0 0 1 .11-.405l1.032.299a5.847 5.847 0 0 0-.06.23 1.314 1.314 0 0 0-.038.341c0 .309.076.531.23.664.153.131.375.196.664.196H28v1.275zm2.454-7.175h-9v-1.245h1.062v-.106a3.608 3.608 0 0 1-.473-.32 1.804 1.804 0 0 1-.47-.579c-.136-.248-.204-.574-.204-.981 0-.528.134-1 .4-1.414.268-.415.653-.74 1.156-.976.503-.239 1.108-.358 1.815-.358.707 0 1.314.118 1.82.354.503.235.89.559 1.163.971.27.412.405.882.405 1.411 0 .397-.067.723-.2.976-.134.25-.29.446-.47.588a3.58 3.58 0 0 1-.476.328v.076h3.473v1.275zm-5.727-1.249c.46 0 .864-.067 1.21-.2.347-.134.618-.327.814-.58.194-.253.29-.562.29-.929 0-.381-.1-.699-.302-.954a1.878 1.878 0 0 0-.831-.58c-.35-.133-.743-.2-1.18-.2-.433 0-.82.065-1.164.196a1.785 1.785 0 0 0-.814.579c-.199.256-.298.576-.298.959 0 .369.095.682.285.938.19.253.456.444.797.575.341.131.739.196 1.193.196zm3.405-8.979c0 .645-.138 1.201-.413 1.666-.279.464-.67.822-1.172 1.074-.506.25-1.098.375-1.777.375-.67 0-1.261-.125-1.773-.375a2.909 2.909 0 0 1-1.197-1.056c-.287-.455-.43-.986-.43-1.594 0-.37.06-.727.183-1.074.122-.347.313-.658.575-.933.261-.276.6-.493 1.018-.652.415-.159.92-.239 1.513-.239h.452v5.203h-.955v-3.954c-.335 0-.632.068-.89.204a1.552 1.552 0 0 0-.618.575c-.15.245-.226.532-.226.861 0 .358.088.671.264.938.173.264.4.469.682.613.278.142.58.213.908.213h.745c.438 0 .81-.076 1.117-.23.307-.156.541-.373.703-.652.159-.278.238-.603.238-.975 0-.242-.034-.462-.102-.661a1.37 1.37 0 0 0-.831-.848l.218-1.206c.355.097.666.27.933.52.264.247.47.558.618.933.145.372.217.797.217 1.274zm0-6.979c0 .614-.14 1.149-.422 1.607a2.847 2.847 0 0 1-1.18 1.065c-.506.253-1.097.379-1.773.379-.679 0-1.273-.126-1.781-.379a2.841 2.841 0 0 1-1.185-1.065c-.281-.458-.422-.993-.422-1.607 0-.613.14-1.149.422-1.606a2.837 2.837 0 0 1 1.185-1.066c.508-.252 1.102-.379 1.781-.379.676 0 1.267.127 1.773.379.505.253.899.608 1.18 1.066.281.457.422.993.422 1.606zm-1.07-.004c0-.398-.105-.727-.315-.989a1.85 1.85 0 0 0-.84-.579 3.336 3.336 0 0 0-1.154-.192c-.418 0-.801.064-1.15.192a1.876 1.876 0 0 0-.849.579c-.213.262-.32.591-.32.989 0 .401.107.733.32.997.213.261.496.456.848.584.35.125.733.187 1.15.187.421 0 .806-.062 1.156-.187.35-.128.629-.323.84-.584.21-.264.314-.596.314-.997zm3.392-4.469h-9v-1.244h1.062v-.107a3.51 3.51 0 0 1-.473-.32 1.804 1.804 0 0 1-.47-.579c-.136-.247-.204-.574-.204-.98 0-.529.134-1 .4-1.415.268-.415.653-.74 1.156-.976.503-.239 1.108-.358 1.815-.358.707 0 1.314.118 1.82.354.503.236.89.56 1.163.971.27.412.405.883.405 1.411 0 .398-.067.723-.2.976-.134.25-.29.446-.47.588a3.58 3.58 0 0 1-.476.328v.077h3.473v1.274zm-5.727-1.249c.46 0 .864-.066 1.21-.2.347-.134.618-.327.814-.58.194-.252.29-.562.29-.929 0-.38-.1-.698-.302-.954a1.878 1.878 0 0 0-.831-.58c-.35-.133-.743-.2-1.18-.2-.433 0-.82.065-1.164.196a1.78 1.78 0 0 0-.814.58c-.199.255-.298.575-.298.958 0 .37.095.682.285.938.19.253.456.445.797.575.341.131.739.196 1.193.196zm-5.454-7.432H28v1.275h-8.727v-1.275zm8.86-4.535c0 .645-.139 1.201-.414 1.667-.279.463-.67.821-1.172 1.073-.506.25-1.098.375-1.777.375-.67 0-1.261-.125-1.773-.375a2.909 2.909 0 0 1-1.197-1.056c-.287-.455-.43-.986-.43-1.594 0-.37.06-.727.183-1.074.122-.347.313-.658.575-.933.261-.276.6-.493 1.018-.652.415-.159.92-.239 1.513-.239h.452v5.203h-.955v-3.954c-.335 0-.632.068-.89.204a1.552 1.552 0 0 0-.618.575c-.15.245-.226.532-.226.861 0 .358.088.671.264.938.173.264.4.469.682.613.278.142.58.213.908.213h.745c.438 0 .81-.076 1.117-.23.307-.156.541-.373.703-.652.159-.278.238-.603.238-.975 0-.242-.034-.462-.102-.661a1.43 1.43 0 0 0-.315-.516 1.383 1.383 0 0 0-.516-.332l.218-1.206c.355.097.666.27.933.52.264.247.47.558.618.933.145.372.217.797.217 1.274zm-6.678-10.453h1.022v3.575h-1.023v-3.575zm-1.569 2.617v-1.274h6.192c.247 0 .433-.037.558-.111a.578.578 0 0 0 .252-.286c.042-.119.064-.248.064-.388a1.49 1.49 0 0 0-.022-.268 14.207 14.207 0 0 0-.034-.179l1.053-.23a2.505 2.505 0 0 1 .136.827c.006.335-.054.647-.179.937-.125.29-.318.524-.58.703-.26.179-.589.269-.984.269h-6.456zM28 186.507h-6.546v-1.232h1.04v-.068a1.582 1.582 0 0 1-.83-.631 1.803 1.803 0 0 1-.308-1.031 5.445 5.445 0 0 1 .03-.541h1.22c-.015.051-.03.142-.048.273-.02.13-.03.261-.03.392 0 .301.064.569.192.805a1.422 1.422 0 0 0 1.283.759H28v1.274zm.145-6.452c0 .415-.077.79-.23 1.125a1.897 1.897 0 0 1-.678.797c-.295.193-.657.29-1.086.29-.37 0-.674-.071-.912-.213a1.57 1.57 0 0 1-.567-.576 3 3 0 0 1-.316-.809 8.103 8.103 0 0 1-.161-.912l-.111-.955c-.031-.244-.081-.422-.15-.532-.068-.111-.178-.167-.332-.167h-.03c-.372 0-.66.105-.865.316-.204.207-.306.517-.306.929 0 .429.095.767.285 1.014.188.244.396.413.627.507l-.273 1.197a2.3 2.3 0 0 1-.963-.622 2.517 2.517 0 0 1-.537-.95 3.706 3.706 0 0 1-.17-1.129c0-.262.03-.539.093-.831.06-.296.17-.571.332-.827.162-.258.394-.47.695-.635.298-.165.686-.247 1.163-.247H28v1.244h-.895v.051c.165.083.327.206.486.371.159.165.291.377.396.635.105.259.158.568.158.929zm-1.023-.277c0-.352-.07-.653-.209-.903a1.466 1.466 0 0 0-.545-.576 1.42 1.42 0 0 0-.729-.2h-.843a.673.673 0 0 1 .127.264c.037.128.07.274.098.439l.073.482.05.392c.032.247.085.473.159.677.073.202.18.364.32.486.136.119.317.179.545.179.315 0 .554-.116.716-.349.159-.233.238-.53.238-.891zm-5.668-10.015L28 172.136v1.364l-6.546 2.378v-1.368l5.037-1.658v-.068l-5.037-1.653v-1.368zm6.678-3.796c0 .645-.138 1.2-.413 1.666-.279.463-.67.821-1.172 1.074-.506.25-1.098.375-1.777.375-.67 0-1.261-.125-1.773-.375a2.911 2.911 0 0 1-1.197-1.057c-.287-.454-.43-.986-.43-1.594a3.2 3.2 0 0 1 .183-1.073c.122-.347.313-.658.575-.934a2.71 2.71 0 0 1 1.018-.652c.415-.159.92-.238 1.513-.238h.452v5.203h-.955v-3.955c-.335 0-.632.068-.89.205a1.545 1.545 0 0 0-.618.575c-.15.244-.226.531-.226.861 0 .358.088.67.264.937.173.265.4.469.682.614.278.142.58.213.908.213h.745c.438 0 .81-.077 1.117-.23.307-.156.541-.374.703-.652.159-.278.238-.604.238-.976 0-.241-.034-.461-.102-.66a1.359 1.359 0 0 0-.831-.848l.218-1.206c.355.096.666.27.933.52.264.247.47.558.618.933.145.372.217.797.217 1.274zm-8.86-5.496H28v1.274h-8.727v-1.274zM28 158.757h-6.546v-1.274H28v1.274zm-7.555-.644a.81.81 0 0 1-.222.571.718.718 0 0 1-.537.235.71.71 0 0 1-.537-.235.801.801 0 0 1-.226-.571c0-.221.076-.41.226-.566a.703.703 0 0 1 .537-.239c.207 0 .386.079.537.239a.794.794 0 0 1 .222.566zm3.669-3.619H28v1.274h-6.546v-1.223h1.066v-.081a1.866 1.866 0 0 1-.835-.707c-.21-.324-.316-.731-.316-1.223 0-.446.094-.837.282-1.172.184-.335.46-.595.826-.78.367-.184.82-.277 1.36-.277H28v1.275h-4.01c-.474 0-.845.123-1.112.37-.27.247-.405.587-.405 1.019 0 .295.064.558.192.788.128.227.315.408.562.541.245.131.54.196.887.196zm6.477-8.642c0 .52-.068.968-.205 1.343a2.605 2.605 0 0 1-.54.912c-.225.235-.471.411-.738.528l-.452-1.095c.125-.077.257-.179.397-.307a1.6 1.6 0 0 0 .362-.528c.1-.225.149-.513.149-.866 0-.482-.118-.882-.354-1.197-.233-.315-.605-.473-1.116-.473h-1.287v.081c.139.077.294.187.464.332.17.142.319.338.444.588.125.25.187.576.187.976 0 .517-.12.983-.362 1.398-.244.412-.604.739-1.078.98-.478.239-1.064.358-1.76.358s-1.293-.118-1.79-.354c-.497-.238-.878-.565-1.142-.98a2.546 2.546 0 0 1-.4-1.41c0-.406.067-.735.204-.985.133-.25.29-.444.469-.583a3.79 3.79 0 0 1 .473-.329v-.093h-1.061v-1.249h6.69c.562 0 1.024.131 1.385.392.36.262.628.615.801 1.061.173.443.26.943.26 1.5zm-3.746.013c0-.366-.085-.676-.255-.929a1.585 1.585 0 0 0-.742-.579c-.324-.134-.712-.201-1.163-.201-.44 0-.828.066-1.164.196a1.731 1.731 0 0 0-.784.576c-.19.252-.285.565-.285.937 0 .384.1.703.298.959.196.256.463.449.801.579a3.18 3.18 0 0 0 1.134.192c.429 0 .805-.065 1.129-.196.324-.131.577-.324.758-.579.182-.259.273-.577.273-.955z" fill="#8D8D8D"/><defs><filter id="a" x="275.91" y="33.896" width="156.328" height="104.299" filterUnits="userSpaceOnUse" color-interpolation-filters="sRGB"><feFlood flood-opacity="0" result="BackgroundImageFix"/><feColorMatrix in="SourceAlpha" values="0 0 0 0 0 0 0 0 0 0 0 0 0 0 0 0 0 0 127 0" result="hardAlpha"/><feOffset dy="12.045"/><feGaussianBlur stdDeviation="12.045"/><feComposite in2="hardAlpha" operator="out"/><feColorMatrix values="0 0 0 0 0 0 0 0 0 0 0 0 0 0 0 0 0 0 0.12 0"/><feBlend in2="BackgroundImageFix" result="effect1_dropShadow_668_570"/><feBlend in="SourceGraphic" in2="effect1_dropShadow_668_570" result="shape"/></filter></defs></svg>