<svg width="207" height="106" viewBox="0 0 207 106" fill="none" xmlns="http://www.w3.org/2000/svg">
<g filter="url(#filter0_d_814_552)">
<path d="M14.043 11.7856C13.8323 10.7784 14.9105 9.99497 15.8033 10.5066L51.3802 30.8962C52.2854 31.415 52.1351 32.764 51.1378 33.0707L33.8704 38.3824C33.603 38.4647 33.3731 38.6383 33.2208 38.8729L24.5787 52.1855C23.9992 53.0783 22.6291 52.8222 22.4111 51.7804L14.043 11.7856Z" fill="#E5AF4A"/>
<path d="M23.603 51.4046L15.2835 11.6421L50.6598 31.9167L33.5048 37.1938C32.9586 37.3618 32.4888 37.7165 32.1777 38.1958L23.603 51.4046Z" stroke="white" stroke-width="2.48718"/>
</g>
<g filter="url(#filter1_d_814_552)">
<rect x="44" y="61.1025" width="59" height="32" rx="4" fill="#E5AF4A"/>
<path d="M55.3629 84.1025V70.2844H60.6527C61.6513 70.2844 62.4812 70.4418 63.1424 70.7567C63.8081 71.067 64.3052 71.4921 64.6335 72.0319C64.9664 72.5716 65.1328 73.1834 65.1328 73.8671C65.1328 74.4294 65.0249 74.9107 64.8089 75.311C64.593 75.7068 64.3029 76.0284 63.9386 76.2758C63.5742 76.5232 63.1671 76.7009 62.7173 76.8089V76.9438C63.2076 76.9708 63.6777 77.1215 64.1275 77.3959C64.5818 77.6657 64.9529 78.0481 65.2408 78.5429C65.5286 79.0377 65.6726 79.6359 65.6726 80.3376C65.6726 81.0528 65.4994 81.6961 65.1531 82.2673C64.8067 82.8341 64.2849 83.2816 63.5877 83.61C62.8905 83.9384 62.0134 84.1025 60.9563 84.1025H55.3629ZM57.8661 82.0109H60.5582C61.4669 82.0109 62.1213 81.8377 62.5217 81.4914C62.9265 81.1405 63.1289 80.6907 63.1289 80.142C63.1289 79.7326 63.0277 79.3638 62.8253 79.0354C62.6229 78.7026 62.335 78.4417 61.9616 78.2528C61.5883 78.0593 61.143 77.9626 60.6257 77.9626H57.8661V82.0109ZM57.8661 76.1611H60.3423C60.7741 76.1611 61.1632 76.0824 61.5096 75.925C61.8559 75.763 62.1281 75.5359 62.326 75.2435C62.5284 74.9466 62.6296 74.5958 62.6296 74.191C62.6296 73.6557 62.4407 73.2149 62.0629 72.8685C61.6895 72.5222 61.134 72.349 60.3963 72.349H57.8661V76.1611ZM70.7245 84.3117C70.0678 84.3117 69.4763 84.1948 68.95 83.9608C68.4282 83.7224 68.0144 83.3716 67.7085 82.9083C67.4072 82.445 67.2565 81.8737 67.2565 81.1945C67.2565 80.6098 67.3644 80.1262 67.5803 79.7439C67.7963 79.3615 68.0909 79.0557 68.4642 78.8263C68.8376 78.5969 69.2581 78.4237 69.7259 78.3067C70.1982 78.1853 70.6863 78.0976 71.1901 78.0436C71.7973 77.9806 72.2899 77.9244 72.6677 77.8749C73.0455 77.8209 73.3199 77.74 73.4909 77.632C73.6663 77.5196 73.754 77.3464 73.754 77.1125V77.072C73.754 76.5637 73.6033 76.1701 73.3019 75.8912C73.0006 75.6124 72.5665 75.4729 71.9997 75.4729C71.4015 75.4729 70.9269 75.6034 70.5761 75.8643C70.2297 76.1251 69.9958 76.4333 69.8744 76.7886L67.5938 76.4648C67.7738 75.835 68.0706 75.3087 68.4845 74.8859C68.8983 74.4586 69.4043 74.1392 70.0026 73.9278C70.6008 73.7119 71.262 73.604 71.9862 73.604C72.4855 73.604 72.9826 73.6624 73.4774 73.7794C73.9722 73.8963 74.4242 74.0898 74.8335 74.3596C75.2429 74.625 75.5712 74.9871 75.8186 75.4459C76.0705 75.9047 76.1965 76.4782 76.1965 77.1665V84.1025H73.8485V82.6789H73.7675C73.6191 82.9668 73.4099 83.2367 73.14 83.4885C72.8746 83.7359 72.5395 83.9361 72.1347 84.089C71.7343 84.2375 71.2643 84.3117 70.7245 84.3117ZM71.3588 82.517C71.849 82.517 72.2741 82.4202 72.634 82.2268C72.9938 82.0289 73.2704 81.768 73.4639 81.4442C73.6618 81.1203 73.7607 80.7672 73.7607 80.3849V79.1636C73.6843 79.2266 73.5538 79.2851 73.3694 79.339C73.1895 79.393 72.9871 79.4403 72.7622 79.4807C72.5373 79.5212 72.3146 79.5572 72.0942 79.5887C71.8738 79.6202 71.6826 79.6472 71.5207 79.6697C71.1563 79.7191 70.8302 79.8001 70.5423 79.9126C70.2545 80.025 70.0273 80.1824 69.8609 80.3849C69.6945 80.5828 69.6112 80.8392 69.6112 81.154C69.6112 81.6038 69.7754 81.9434 70.1038 82.1729C70.4321 82.4023 70.8505 82.517 71.3588 82.517ZM78.6524 84.1025V73.7389H81.0207V75.4662H81.1286C81.3176 74.8679 81.6414 74.4069 82.1002 74.083C82.5635 73.7546 83.0921 73.5905 83.6858 73.5905C83.8208 73.5905 83.9714 73.5972 84.1379 73.6107C84.3088 73.6197 84.4505 73.6354 84.5629 73.6579V75.9047C84.4595 75.8688 84.2953 75.8373 84.0704 75.8103C83.85 75.7788 83.6363 75.7631 83.4294 75.7631C82.9841 75.7631 82.5838 75.8598 82.2284 76.0532C81.8776 76.2421 81.6009 76.5052 81.3985 76.8426C81.1961 77.18 81.0949 77.569 81.0949 78.0099V84.1025H78.6524ZM91.9173 73.7389V75.6281H85.9596V73.7389H91.9173ZM87.4305 71.2559H89.873V80.9854C89.873 81.3137 89.9224 81.5656 90.0214 81.741C90.1249 81.912 90.2598 82.0289 90.4262 82.0919C90.5927 82.1549 90.7771 82.1863 90.9795 82.1863C91.1324 82.1863 91.2719 82.1751 91.3978 82.1526C91.5283 82.1301 91.6272 82.1099 91.6947 82.0919L92.1063 84.0013C91.9758 84.0463 91.7892 84.0958 91.5463 84.1498C91.3079 84.2037 91.0155 84.2352 90.6691 84.2442C90.0574 84.2622 89.5064 84.17 89.0161 83.9676C88.5258 83.7607 88.1367 83.4413 87.8488 83.0095C87.5654 82.5777 87.426 82.0379 87.4305 81.3902V71.2559Z" fill="#050623"/>
</g>
<defs>
<filter id="filter0_d_814_552" x="9.04224" y="10.3457" width="47.9126" height="52.3325" filterUnits="userSpaceOnUse" color-interpolation-filters="sRGB">
<feFlood flood-opacity="0" result="BackgroundImageFix"/>
<feColorMatrix in="SourceAlpha" type="matrix" values="0 0 0 0 0 0 0 0 0 0 0 0 0 0 0 0 0 0 127 0" result="hardAlpha"/>
<feOffset dy="4.97436"/>
<feGaussianBlur stdDeviation="2.48718"/>
<feColorMatrix type="matrix" values="0 0 0 0 0 0 0 0 0 0 0 0 0 0 0 0 0 0 0.2 0"/>
<feBlend mode="normal" in2="BackgroundImageFix" result="effect1_dropShadow_814_552"/>
<feBlend mode="normal" in="SourceGraphic" in2="effect1_dropShadow_814_552" result="shape"/>
</filter>
<filter id="filter1_d_814_552" x="34.0513" y="53.641" width="78.8974" height="51.8974" filterUnits="userSpaceOnUse" color-interpolation-filters="sRGB">
<feFlood flood-opacity="0" result="BackgroundImageFix"/>
<feColorMatrix in="SourceAlpha" type="matrix" values="0 0 0 0 0 0 0 0 0 0 0 0 0 0 0 0 0 0 127 0" result="hardAlpha"/>
<feOffset dy="2.48718"/>
<feGaussianBlur stdDeviation="4.97436"/>
<feColorMatrix type="matrix" values="0 0 0 0 0 0 0 0 0 0 0 0 0 0 0 0 0 0 0.15 0"/>
<feBlend mode="normal" in2="BackgroundImageFix" result="effect1_dropShadow_814_552"/>
<feBlend mode="normal" in="SourceGraphic" in2="effect1_dropShadow_814_552" result="shape"/>
</filter>
</defs>
</svg>
