<svg width="537" height="116" fill="none" xmlns="http://www.w3.org/2000/svg"><rect width="537" height="116" rx="10" fill="#F8F8F8" fill-opacity=".1"/><path d="M49.886 70v-3.546l8.284-7.67a31.367 31.367 0 0 0 1.773-1.84c.485-.546.852-1.08 1.102-1.603.25-.53.375-1.102.375-1.716 0-.682-.155-1.269-.465-1.761-.311-.5-.735-.883-1.273-1.148-.538-.273-1.148-.41-1.83-.41-.712 0-1.333.145-1.863.433-.53.288-.94.7-1.228 1.238-.288.538-.431 1.178-.431 1.92h-4.67c0-1.522.344-2.844 1.033-3.965.69-1.121 1.656-1.989 2.898-2.602 1.242-.614 2.674-.92 4.295-.92 1.667 0 3.118.295 4.353.886 1.242.583 2.208 1.393 2.897 2.431.69 1.038 1.035 2.228 1.035 3.569 0 .878-.175 1.746-.523 2.602-.341.856-.951 1.806-1.83 2.852-.879 1.038-2.117 2.284-3.716 3.739l-3.397 3.33v.158h9.772V70h-16.59zm23.032.296c-.75 0-1.394-.266-1.932-.796a2.655 2.655 0 0 1-.796-1.932c0-.742.266-1.379.796-1.909a2.655 2.655 0 0 1 1.932-.795c.727 0 1.363.265 1.909.795.545.53.818 1.167.818 1.91 0 .5-.129.957-.386 1.374-.25.41-.58.739-.99.989-.408.242-.859.364-1.351.364zm6.304-4.387v-3.875l9.716-15.307h3.34v5.364h-1.977l-6.125 9.693v.182h13.807v3.943H79.222zM90.392 70v-5.273l.091-1.716V46.727h4.614V70h-4.705zm21.051-24.364-7.5 27.864h-4.17l7.5-27.864h4.17zm10.787 24.682c-1.606 0-3.038-.295-4.295-.886-1.25-.591-2.243-1.406-2.978-2.443-.734-1.038-1.117-2.228-1.147-3.569h4.772c.053.902.432 1.633 1.137 2.194.704.56 1.541.84 2.511.84.773 0 1.455-.17 2.046-.51a3.658 3.658 0 0 0 1.397-1.444c.341-.621.512-1.333.512-2.136 0-.819-.175-1.538-.523-2.16a3.69 3.69 0 0 0-1.421-1.454c-.606-.349-1.299-.526-2.079-.534-.682 0-1.345.14-1.989.42-.636.28-1.132.663-1.488 1.148L114.31 59l1.102-12.273h14.227v4.023h-10.17l-.603 5.83h.137c.409-.576 1.026-1.053 1.852-1.432.826-.38 1.75-.569 2.773-.569 1.401 0 2.651.33 3.75.99a7.12 7.12 0 0 1 2.602 2.715c.636 1.144.951 2.462.943 3.955.008 1.568-.356 2.962-1.091 4.182-.727 1.212-1.746 2.166-3.056 2.863-1.303.69-2.819 1.034-4.546 1.034z" fill="#fff"/><path d="M152.972 61.273V70h-1.057v-7.62h-.051l-2.131 1.415v-1.073l2.182-1.45h1.057zM155.754 70l3.904-7.722v-.068h-4.5v-.937h5.591v.988L156.862 70h-1.108zm5.833.068a.737.737 0 0 1-.541-.226.737.737 0 0 1-.226-.54c0-.211.075-.392.226-.542a.738.738 0 0 1 .541-.226c.21 0 .391.075.541.226.151.15.226.33.226.541 0 .14-.035.267-.106.384a.807.807 0 0 1-.277.28.734.734 0 0 1-.384.103zm5.106.051c-.5 0-.95-.1-1.351-.298a2.516 2.516 0 0 1-.963-.818 2.235 2.235 0 0 1-.396-1.185h1.023c.039.395.218.722.537.98.321.256.704.384 1.15.384.358 0 .676-.084.955-.252.281-.167.501-.397.66-.69.162-.295.243-.63.243-1.001 0-.381-.084-.72-.251-1.019a1.845 1.845 0 0 0-.682-.712 1.928 1.928 0 0 0-.993-.264 2.726 2.726 0 0 0-.822.124 2.282 2.282 0 0 0-.695.32l-.989-.12.529-4.295h4.534v.937h-3.648l-.307 2.574h.051c.179-.142.404-.26.674-.354.27-.093.551-.14.843-.14a2.684 2.684 0 0 1 2.417 1.423c.241.44.362.943.362 1.509 0 .556-.125 1.054-.375 1.491a2.738 2.738 0 0 1-1.023 1.031c-.435.25-.929.375-1.483.375zM171.42 70v-8.727h1.057v4.33h.102l3.921-4.33h1.38l-3.664 3.937L177.88 70h-1.278l-3.034-4.057-1.091 1.228V70h-1.057zm11.203 0v-8.727h2.949c.682 0 1.242.116 1.679.35.438.23.761.546.972.95.21.403.315.862.315 1.376 0 .514-.105.97-.315 1.368-.211.398-.533.71-.968.937-.434.225-.99.337-1.666.337h-2.386v-.955h2.352c.466 0 .841-.068 1.125-.204.287-.136.494-.33.622-.58a1.94 1.94 0 0 0 .196-.903c0-.35-.065-.655-.196-.916a1.332 1.332 0 0 0-.626-.605c-.287-.145-.666-.218-1.138-.218h-1.858V70h-1.057zm4.108-3.92 2.148 3.92h-1.227l-2.114-3.92h1.193zm5.358 4.073c-.415 0-.791-.078-1.129-.234a1.935 1.935 0 0 1-.806-.686c-.199-.301-.298-.665-.298-1.091 0-.375.074-.679.221-.912a1.57 1.57 0 0 1 .593-.554c.247-.133.52-.233.818-.298.301-.068.604-.122.908-.162.397-.051.72-.09.967-.115.25-.029.432-.075.545-.14.117-.066.175-.18.175-.342v-.034c0-.42-.115-.747-.345-.98-.227-.233-.573-.35-1.036-.35-.48 0-.856.106-1.129.316-.273.21-.464.435-.575.673l-.955-.34c.171-.398.398-.708.682-.93.287-.224.6-.38.938-.468.341-.091.676-.137 1.005-.137.211 0 .452.026.725.077.275.048.541.15.797.303.258.153.473.384.643.694.171.31.256.725.256 1.245V70h-1.006v-.886h-.051a1.768 1.768 0 0 1-.341.456 1.97 1.97 0 0 1-.635.413c-.264.114-.587.17-.967.17zm.153-.903c.398 0 .733-.078 1.006-.234a1.597 1.597 0 0 0 .835-1.385v-.92c-.043.05-.136.097-.281.14-.142.04-.307.075-.494.106a22.787 22.787 0 0 1-.964.128c-.261.034-.505.09-.732.166a1.261 1.261 0 0 0-.546.337c-.136.148-.204.35-.204.605 0 .35.129.614.387.793.262.176.593.264.993.264zm7.529-5.795v.852h-3.392v-.852h3.392zm-2.403-1.569h1.005v6.239c0 .284.041.497.124.64.085.138.193.232.324.28.133.046.274.069.422.069.11 0 .201-.006.272-.017l.171-.034.204.903a2.035 2.035 0 0 1-.285.077 2.104 2.104 0 0 1-.465.042c-.284 0-.562-.06-.835-.183a1.658 1.658 0 0 1-.673-.558c-.176-.25-.264-.566-.264-.946v-6.512zM201.284 70v-6.545h1.005V70h-1.005zm.511-7.636a.715.715 0 0 1-.507-.2.645.645 0 0 1-.209-.482c0-.188.07-.348.209-.482a.715.715 0 0 1 .507-.2.7.7 0 0 1 .503.2.637.637 0 0 1 .213.482.638.638 0 0 1-.213.481.7.7 0 0 1-.503.2zm3.342 3.699V70h-1.006v-6.545h.972v1.022h.085c.154-.332.387-.6.699-.8.313-.205.716-.308 1.21-.308.443 0 .831.091 1.164.273.332.179.591.452.775.818.185.364.277.824.277 1.38V70h-1.005v-4.09c0-.515-.134-.916-.401-1.203-.267-.29-.634-.434-1.099-.434-.321 0-.608.07-.861.209-.25.139-.448.342-.593.609-.144.267-.217.59-.217.972zm8.656 6.528c-.486 0-.903-.063-1.253-.188a2.63 2.63 0 0 1-1.423-1.125l.801-.562c.091.12.206.256.345.409.139.156.33.291.571.405.244.116.564.174.959.174.528 0 .964-.127 1.308-.383.344-.256.516-.656.516-1.202v-1.33h-.085a5.34 5.34 0 0 1-.316.444 1.779 1.779 0 0 1-.579.464c-.25.134-.588.2-1.014.2a2.734 2.734 0 0 1-1.424-.374 2.64 2.64 0 0 1-.993-1.091c-.241-.478-.362-1.057-.362-1.739 0-.67.118-1.254.354-1.751.236-.5.564-.887.984-1.16.421-.275.906-.413 1.458-.413.426 0 .764.071 1.014.213.253.14.446.299.579.478.137.176.242.32.316.434h.102v-1.04h.972v6.733c0 .563-.128 1.02-.384 1.373a2.185 2.185 0 0 1-1.023.78c-.426.167-.9.25-1.423.25zm-.034-3.597c.403 0 .744-.092 1.023-.277.278-.184.49-.45.635-.796.144-.347.217-.762.217-1.245 0-.472-.071-.888-.213-1.248a1.87 1.87 0 0 0-.631-.849c-.278-.204-.622-.306-1.031-.306-.426 0-.781.108-1.065.324a1.966 1.966 0 0 0-.635.869c-.14.364-.209.767-.209 1.21 0 .455.071.857.213 1.206.145.347.358.62.639.818.284.196.636.294 1.057.294zm9.341-4.073-.904.255a1.65 1.65 0 0 0-.251-.439 1.223 1.223 0 0 0-.443-.358c-.188-.094-.428-.14-.72-.14-.401 0-.735.092-1.002.277-.264.181-.396.413-.396.694 0 .25.091.448.273.593.181.144.466.265.852.362l.971.238c.586.142 1.022.36 1.309.652.287.29.43.664.43 1.121 0 .375-.108.71-.324 1.006a2.145 2.145 0 0 1-.895.699c-.383.17-.829.255-1.338.255-.667 0-1.22-.144-1.657-.434-.438-.29-.715-.713-.831-1.27l.954-.239c.091.353.263.617.516.793.256.176.589.264 1.001.264.469 0 .841-.1 1.117-.298.278-.202.417-.444.417-.725a.761.761 0 0 0-.238-.57c-.159-.157-.404-.273-.733-.35l-1.091-.256c-.6-.142-1.04-.362-1.321-.66-.279-.302-.418-.678-.418-1.13 0-.369.104-.696.311-.98.211-.284.496-.507.857-.669a3.004 3.004 0 0 1 1.236-.243c.647 0 1.156.142 1.525.426.372.284.637.66.793 1.126z" fill="#CECECE"/><path d="M269.42 32.08c-.333 0-.633-.067-.9-.2a1.673 1.673 0 0 1-.642-.545 1.484 1.484 0 0 1-.264-.79h.681a.937.937 0 0 0 .358.654c.214.17.47.255.767.255a1.185 1.185 0 0 0 1.077-.628c.108-.196.162-.419.162-.667 0-.254-.056-.48-.168-.679a1.224 1.224 0 0 0-.454-.474 1.285 1.285 0 0 0-.662-.177 1.818 1.818 0 0 0-.548.083 1.518 1.518 0 0 0-.463.213l-.659-.08.352-2.863h3.023v.625h-2.432l-.205 1.716h.034a1.706 1.706 0 0 1 1.012-.33c.356 0 .673.085.951.256.281.168.5.4.659.693.161.294.242.629.242 1.006 0 .37-.083.702-.25.994-.165.29-.392.519-.682.688-.29.166-.619.25-.989.25zM267.466 45.807v-.58l2.557-4.045h.42v.898h-.284l-1.932 3.056v.046h3.443v.625h-4.204zM270.205 47v-5.818h.67V47h-.67zM269.568 62.08c-.375 0-.709-.065-1.003-.194a1.727 1.727 0 0 1-.696-.537 1.445 1.445 0 0 1-.278-.803h.716c.015.187.079.349.193.485.114.135.262.239.446.313.184.074.387.11.611.11.25 0 .471-.043.665-.13.193-.087.344-.209.454-.364a.91.91 0 0 0 .165-.54c0-.214-.053-.402-.159-.565a1.056 1.056 0 0 0-.466-.386 1.811 1.811 0 0 0-.75-.14H269v-.624h.466c.231 0 .434-.042.608-.125a.98.98 0 0 0 .412-.353c.1-.151.15-.33.15-.534a.984.984 0 0 0-.13-.514.895.895 0 0 0-.37-.34 1.19 1.19 0 0 0-.556-.123 1.47 1.47 0 0 0-.569.11c-.176.073-.32.178-.431.316a.817.817 0 0 0-.182.494h-.682c.011-.305.103-.572.275-.8.173-.232.398-.412.677-.54.28-.13.588-.194.923-.194.36 0 .668.073.926.219.258.144.456.334.594.571.138.237.207.492.207.767 0 .328-.086.607-.258.838a1.315 1.315 0 0 1-.696.48v.046c.367.06.654.217.86.468.207.25.31.56.31.93 0 .316-.086.6-.258.852-.171.25-.404.447-.699.59a2.276 2.276 0 0 1-1.009.217zM267.602 77v-.511l1.921-2.103c.225-.246.411-.46.557-.642.145-.183.253-.356.323-.517.072-.163.108-.333.108-.511a.947.947 0 0 0-.147-.531.964.964 0 0 0-.398-.347 1.29 1.29 0 0 0-.568-.122c-.224 0-.419.046-.586.14a.963.963 0 0 0-.383.383 1.202 1.202 0 0 0-.134.58h-.67c0-.342.079-.641.236-.898.157-.258.371-.459.642-.603.273-.144.578-.216.917-.216.341 0 .643.072.907.216.263.144.469.338.619.583.15.244.224.516.224.815 0 .214-.038.423-.116.628a2.765 2.765 0 0 1-.398.679c-.187.248-.448.55-.781.909l-1.307 1.397v.046h2.705V77h-3.671zM269.648 86.182V92h-.705v-5.08h-.034l-1.42.944v-.716l1.454-.966h.705z" fill="#fff"/><rect x="281" y="25" width="208" height="7" rx="3.5" fill="#fff"/><rect x="281" y="40" width="208" height="7" rx="3.5" fill="#fff"/><rect x="281" y="55" width="208" height="7" rx="3.5" fill="#fff"/><rect x="281" y="70" width="208" height="7" rx="3.5" fill="#fff"/><rect x="281" y="85" width="208" height="7" rx="3.5" fill="#fff"/><rect x="281" y="25" width="77" height="7" rx="3.5" fill="#fff"/><rect x="281" y="25" width="77" height="7" rx="3.5" fill="#01EB64"/><rect x="281" y="55" width="55" height="7" rx="3.5" fill="#fff"/><rect x="281" y="55" width="55" height="7" rx="3.5" fill="#01EB64"/><rect x="281" y="40" width="55" height="7" rx="3.5" fill="#fff"/><rect x="281" y="40" width="31" height="7" rx="3.5" fill="#01EB64"/><rect x="281" y="70" width="55" height="7" rx="3.5" fill="#fff"/><rect x="281" y="70" width="55" height="7" rx="3.5" fill="#01EB64"/><rect x="281" y="85" width="142" height="7" rx="3.5" fill="#fff"/><rect x="281" y="85" width="142" height="7" rx="3.5" fill="#01EB64"/></svg>