<svg width="538" height="128" fill="none" xmlns="http://www.w3.org/2000/svg"><path fill="url(#a)" d="M0 0h538v128H0z"/><path d="M77.92 64.014c-1.869-3.236-1.524-6.125-1.249-7.979l.029-.191c.057-.383.113-.752.131-1.052a2.554 2.554 0 0 0-.017-.562 1.214 1.214 0 0 0-.297-.641c-.44-.475-1.06-.343-1.394-.237-.397.127-.894.38-1.496.727-5.142 2.969-6.904 9.543-3.935 14.685 2.968 5.142 9.543 6.903 14.685 3.935.602-.348 1.069-.652 1.377-.933.26-.236.684-.706.493-1.325a1.214 1.214 0 0 0-.407-.578 2.56 2.56 0 0 0-.478-.296c-.27-.134-.616-.27-.977-.412l-.18-.07c-1.743-.69-4.418-1.835-6.286-5.071z" fill="#fff"/><path fill-rule="evenodd" clip-rule="evenodd" d="M131.707 60.796c0 1.256.332 1.996 1.063 2.85.553.628.73 1.435.73 2.31 0 .874-.287 1.704-.863 2.378a4.534 4.534 0 0 1-2.9 1.413c-1.571.134-3.143.247-4.737.247-1.594 0-3.165-.068-4.736-.247a4.53 4.53 0 0 1-2.9-1.413 3.613 3.613 0 0 1-.864-2.378c0-.875.178-1.682.73-2.31.754-.854 1.064-1.594 1.064-2.85v-.426c0-1.682.419-2.781 1.283-3.858 1.284-1.57 3.342-2.512 5.379-2.512h.089c2.08 0 4.205.987 5.467 2.625.819 1.054 1.195 2.108 1.195 3.745v.426zm-9.633 11.265c0-.504.462-.734.889-.833.5-.106 3.546-.106 4.046 0 .428.099.89.33.89.833-.025.48-.306.904-.695 1.174a3.635 3.635 0 0 1-1.713.731 3.797 3.797 0 0 1-1.008 0 3.621 3.621 0 0 1-1.714-.732c-.389-.269-.67-.694-.695-1.173z" fill="#fff"/><path d="M170.135 72.773v-3.057c0-.78.637-1.414 1.423-1.414h2.875c.377 0 .739.15 1.006.414.267.265.417.625.417 1v3.057c-.002.325.126.637.356.867.231.23.544.36.871.36h1.961a3.459 3.459 0 0 0 2.443-1 3.407 3.407 0 0 0 1.013-2.422v-8.711c0-.734-.328-1.431-.895-1.902l-6.671-5.29a3.098 3.098 0 0 0-3.949.072l-6.518 5.218a2.476 2.476 0 0 0-.967 1.902v8.702c0 1.895 1.547 3.431 3.456 3.431h1.916c.679 0 1.231-.544 1.236-1.218l.027-.009z" fill="#fff"/><path fill-rule="evenodd" clip-rule="evenodd" d="M211 64c0-5.52 4.47-10 10-10 5.52 0 10 4.48 10 10 0 5.53-4.48 10-10 10-5.53 0-10-4.47-10-10zm12.23 1.83 1.62-5.12a.45.45 0 0 0-.56-.57l-5.12 1.6c-.21.07-.38.23-.44.44l-1.6 5.13c-.11.34.22.67.56.56l5.1-1.6c.21-.06.38-.23.44-.44z" fill="#fff"/><path d="M277.311 56.46c-2.334-2.38-5.037-1.376-6.71-.314-.946.6-2.256.6-3.202 0-1.673-1.062-4.376-2.066-6.71.315C255.148 62.11 264.65 73 269 73s13.852-10.889 8.311-16.54z" fill="#fff"/><path fill-rule="evenodd" clip-rule="evenodd" d="M326.787 62.539a.734.734 0 0 1-.512.207c-.716 0-1.296.563-1.296 1.25 0 .69.573 1.25 1.282 1.258.4.004.739.275.739.663v2.41c0 2.028-1.692 3.673-3.781 3.673h-3.153a.582.582 0 0 1-.59-.573v-2.03a.708.708 0 0 0-.726-.704.714.714 0 0 0-.725.704v2.03a.581.581 0 0 1-.589.573h-6.655c-2.079 0-3.781-1.644-3.781-3.674v-2.41c0-.387.339-.658.739-.662.71-.007 1.282-.568 1.282-1.259 0-.667-.561-1.174-1.296-1.174a.734.734 0 0 1-.512-.207.692.692 0 0 1-.213-.498v-2.433c0-2.026 1.706-3.683 3.791-3.683h6.645c.325 0 .589.257.589.573v2.405a.72.72 0 0 0 .725.705c.407 0 .726-.32.726-.705v-2.405c0-.316.264-.573.59-.573h3.153c2.089 0 3.781 1.644 3.781 3.673v2.368a.692.692 0 0 1-.213.498zm-8.037 4.331c.407 0 .726-.32.726-.704v-3.758a.714.714 0 0 0-.726-.705.72.72 0 0 0-.725.704v3.759a.72.72 0 0 0 .725.704zM370.769 60.382H375c0-3.397-2.036-5.382-5.484-5.382h-9.032c-3.448 0-5.484 1.985-5.484 5.339v7.323c0 3.353 2.036 5.338 5.484 5.338h9.032c3.448 0 5.484-1.985 5.484-5.338v-.313h-4.231c-1.964 0-3.556-1.552-3.556-3.466 0-1.915 1.592-3.467 3.556-3.467v-.034zm0 1.49h3.484c.413 0 .747.326.747.728v2.531a.746.746 0 0 1-.747.728h-3.404c-.994.013-1.864-.65-2.089-1.595a1.984 1.984 0 0 1 .433-1.652 2.092 2.092 0 0 1 1.576-.74zm.151 2.661h.329a.755.755 0 0 0 .764-.745.755.755 0 0 0-.764-.746h-.329a.766.766 0 0 0-.54.213.726.726 0 0 0-.224.524c0 .413.34.75.764.754zm-11.182-4.151h5.644a.756.756 0 0 0 .765-.745.756.756 0 0 0-.765-.746h-5.644a.756.756 0 0 0-.765.737c0 .413.341.75.765.754zM421.402 65.58c.358.19.634.49.828.79.378.62.347 1.38-.02 2.05l-.716 1.2a2.13 2.13 0 0 1-1.809 1.04c-.357 0-.756-.1-1.083-.3-.266-.17-.572-.23-.899-.23-1.012 0-1.86.83-1.891 1.82 0 1.15-.94 2.05-2.115 2.05h-1.39c-1.186 0-2.126-.9-2.126-2.05-.02-.99-.869-1.82-1.88-1.82-.338 0-.644.06-.9.23-.327.2-.735.3-1.083.3-.736 0-1.441-.4-1.819-1.04l-.705-1.2c-.378-.65-.399-1.43-.021-2.05.164-.3.471-.6.818-.79.286-.14.47-.37.644-.64.511-.86.204-1.99-.664-2.5a2.044 2.044 0 0 1-.757-2.83l.685-1.18a2.125 2.125 0 0 1 2.882-.76c.889.48 2.044.16 2.565-.69.164-.28.256-.58.235-.88-.02-.39.092-.76.286-1.06a2.195 2.195 0 0 1 1.809-1.04h1.441c.756 0 1.441.42 1.819 1.04.184.3.307.67.276 1.06-.02.3.072.6.235.88.521.85 1.676 1.17 2.575.69a2.113 2.113 0 0 1 2.872.76l.685 1.18c.593.99.266 2.26-.756 2.83-.869.51-1.176 1.64-.654 2.5.163.27.347.5.633.64zm-11.292-1.57c0 1.57 1.297 2.82 2.902 2.82 1.604 0 2.872-1.25 2.872-2.82 0-1.57-1.268-2.83-2.872-2.83-1.605 0-2.902 1.26-2.902 2.83zM458.895 63.23a.77.77 0 0 0-.783.77c0 .42.346.77.783.77H465v4.78c0 2.45-2.025 4.45-4.528 4.45h-4.955c-2.492 0-4.517-1.99-4.517-4.44V58.45c0-2.46 2.035-4.45 4.528-4.45h4.965c2.482 0 4.507 1.99 4.507 4.44v4.79h-6.105zm9.735-2.69 2.92 2.91a.764.764 0 0 1 0 1.09l-2.92 2.91c-.15.15-.35.23-.54.23a.773.773 0 0 1-.55-1.32l1.6-1.59H465v-1.54h4.14l-1.6-1.59c-.3-.3-.3-.79 0-1.09.3-.31.79-.31 1.09-.01z" fill="#fff"/><defs><linearGradient id="a" x1="55.409" y1="54.837" x2="221.977" y2="331.189" gradientUnits="userSpaceOnUse"><stop stop-color="#1570EF"/><stop offset="1" stop-color="#6FB1FC"/></linearGradient></defs></svg>