<svg width="180" height="180" viewBox="0 0 180 180" fill="none" xmlns="http://www.w3.org/2000/svg">
<g clip-path="url(#clip0_1265_691)">
<rect x="16" y="12" width="149" height="156" fill="#14FB77"/>
<path fill-rule="evenodd" clip-rule="evenodd" d="M0 90V180H90H180V90V0H90H0V90ZM93.9864 27.875C97.6736 29.5685 101.424 33.8938 105.484 41.1328C108.07 45.7446 110.781 48.504 114.57 50.3814C117.386 51.7767 117.706 51.8544 120.56 51.8337C123.36 51.8133 123.889 51.6825 128.012 49.9922C132.942 47.9704 135.54 47.2556 136.806 47.5734C137.499 47.7471 140.848 51.3721 141.8 52.9791C141.964 53.2564 141.182 53.8355 139.501 54.6785C138.1 55.382 135.287 56.8723 133.252 57.9902C128.079 60.8312 126.39 61.3498 122.344 61.3382C116.827 61.3223 110.907 59.0034 105.581 54.7706C101.848 51.8045 99.5875 48.8303 96.3316 42.603C92.8143 35.8752 90.1891 31.8593 87.5355 29.1473C86.4295 28.0174 85.622 26.9923 85.7408 26.8699C85.8596 26.7476 87.3018 26.7114 88.9453 26.7898C91.2308 26.8988 92.4163 27.154 93.9864 27.875ZM106.103 28.9107C108.543 29.8076 112.73 32.6285 115.586 35.3L117.869 37.4354L121.302 37.3173C125.264 37.1813 125.891 37.395 129.297 40.0391L131.503 41.7526L129.472 41.9952C128.355 42.1284 126.548 42.4635 125.457 42.7398C119.705 44.196 114.185 42.0349 110.931 37.0526C108.72 33.6677 107.258 32.0256 104.516 29.847C102.154 27.9693 102.025 27.8044 103.08 28.0051C103.717 28.1264 105.077 28.5339 106.103 28.9107ZM78.5988 31.5633C80.7001 34.2042 84.5986 42.0746 86.3082 47.1277C87.537 50.7596 87.6716 51.5127 87.6892 54.8438C87.7103 58.8881 87.2423 60.7939 85.3358 64.4277C83.7626 67.4255 79.8391 70.9949 76.2205 72.7207C71.1657 75.131 69.5795 75.3799 59.8792 75.2857C46.7993 75.1584 37.7845 76.2303 30.9477 78.7254C27.7295 79.9 27.8068 79.9724 28.6147 76.5404C29.1625 74.2124 29.6434 73.5855 32.1701 71.9086C34.7242 70.213 38.5407 68.7751 43.2492 67.7334C47.9851 66.6861 51.4614 66.265 60.9142 65.5935C67.3358 65.1371 68.0326 65.0204 70.0861 64.0596C76.2609 61.1701 77.9087 56.1983 75.6454 47.2852C73.7789 39.9347 71.4572 34.181 69.1991 31.3105L68.5114 30.4362L71.7852 29.5035C75.729 28.3795 76.1716 28.5135 78.5988 31.5633ZM63.0021 35.1766C65.9791 43.8975 67.2142 50.9963 66.1177 53.0859C64.5606 56.0531 62.5648 56.8832 52.9646 58.5562C42.3081 60.4136 38.0486 61.7256 34.4138 64.2688C33.3721 64.9979 32.3283 65.712 32.0948 65.8557C31.031 66.5104 33.3872 62.2498 35.1383 60.3531C39.4773 55.652 47.6993 51.8551 55.8928 50.7684C56.8628 50.6398 57.6562 50.4 57.6562 50.2358C57.6562 50.0716 57.3486 47.9957 56.9728 45.623C56.597 43.2499 56.1853 40.262 56.058 38.9827L55.8267 36.6567L58.763 34.8634C60.378 33.8773 61.8455 33.1137 62.0241 33.1668C62.203 33.2198 62.6432 34.1244 63.0021 35.1766ZM148.34 64.7223L149.813 68.2727L148.935 69.6006C148.082 70.8891 145.682 73.138 140.977 77.0583C138.189 79.3807 136.626 81.8743 136.053 84.9129C135.204 89.4139 136.093 92.3955 140.061 98.3573C142.75 102.396 145.622 108.268 146.402 111.32C146.705 112.508 146.95 114.565 146.946 115.89C146.939 118.034 146.787 118.571 145.565 120.747C144.218 123.144 144.186 123.172 143.958 122.153C142.972 117.739 140.752 113.759 134.865 105.851C132.009 102.014 130.432 99.213 129.309 95.978C126.197 87.0159 127.446 77.2622 132.414 71.7367C133.325 70.7235 136.319 68.3807 139.182 66.4404C142.006 64.5268 144.791 62.5644 145.371 62.0793C145.951 61.5941 146.525 61.1916 146.646 61.1845C146.767 61.1775 147.529 62.7697 148.34 64.7223ZM152.909 80.3419C153.179 82.2846 153.178 83.4638 152.903 84.5047C152.452 86.2172 151.182 88.5087 150.184 89.4125L149.475 90.0545L150.319 92.5372C151.322 95.4854 152.23 100.047 152.218 102.08C152.214 102.88 151.919 104.643 151.562 105.996C150.852 108.695 150.973 108.796 150.076 104.766C149.882 103.896 148.957 101.522 148.02 99.4922C145.863 94.8182 145.46 93.3079 145.441 89.8242C145.416 85.4469 146.128 83.5991 149.236 79.9717C150.687 78.2775 151.885 76.7162 151.897 76.5021C151.952 75.5466 152.566 77.8771 152.909 80.3419ZM64.3725 85.5914C68.5684 86.2239 71.7884 87.4157 74.912 89.492C82.7437 94.6986 85.7461 104.623 82.4548 114.427C80.6653 119.758 72.1726 137.554 69.6386 141.284C67.8663 143.892 65.1741 146.863 64.3437 147.126C63.9366 147.256 62.6614 146.822 61.0429 146.002L58.4054 144.668L60.3376 139.922C62.9272 133.56 66.4474 125.229 68.7649 119.977C69.8087 117.612 70.998 114.455 71.4076 112.962C73.6998 104.606 69.8361 98.3802 60.9961 96.1857C59.8359 95.8978 54.457 95.3307 49.043 94.925C43.6289 94.5197 36.7471 93.9582 33.75 93.6773C30.7529 93.3964 28.0241 93.1658 27.6855 93.1651C27.1455 93.1641 27.0703 92.7795 27.0703 90.0165V86.869L28.3887 86.5002C29.8093 86.1029 33.1671 85.5148 35.1562 85.3144C35.833 85.2465 41.9238 85.1664 48.6914 85.1365C57.8781 85.0961 61.8518 85.2114 64.3725 85.5914ZM31.2124 100.344C34.6004 101.211 39.9189 102.194 47.4609 103.348C51.4248 103.955 55.4386 104.699 56.3801 105.002C59.863 106.123 61.9218 109.589 61.3937 113.441C61.2749 114.308 59.9326 118.841 58.4107 123.515C56.8891 128.188 55.1081 134.028 54.4528 136.491C53.7979 138.955 53.145 140.933 53.0023 140.886C52.8599 140.839 51.7187 140.01 50.4664 139.043L48.1897 137.285L48.1771 134.244C48.1609 130.453 49.1952 124.254 50.8279 118.352C51.5155 115.866 51.9936 113.612 51.8899 113.342C51.7866 113.072 51.23 112.852 50.6538 112.852C46.9877 112.852 37.4129 110.202 33.442 108.088C29.7211 106.108 29.1811 105.533 28.6313 102.968C27.9879 99.9678 27.9939 99.3667 28.6636 99.6237C28.96 99.7372 30.1068 100.062 31.2124 100.344ZM119.355 104.755C122.406 105.808 124.81 107.608 127.615 110.939C133.866 118.362 137.516 124.733 138.33 129.64C138.576 131.123 138.556 131.159 136.204 133.596C134.898 134.948 133.727 136.055 133.601 136.055C133.475 136.055 133.002 135.382 132.55 134.561C131.437 132.536 127.49 126.789 125.73 124.629C119.555 117.05 117.776 115.827 112.968 115.861C110.397 115.879 109.826 116.014 107.518 117.155C106.101 117.856 104.517 118.875 104 119.419C103.481 119.964 101.322 123.254 99.2 126.729C90.1266 141.594 82.2776 150.478 77.4134 151.391C76.4174 151.578 71.71 150.756 71.0923 150.287C71.0381 150.246 72.0788 149.123 73.4048 147.792C77.8145 143.365 80.763 138.913 87.6888 126.22C95.4752 111.951 98.1489 108.715 104.555 105.81C109.336 103.643 114.969 103.241 119.355 104.755ZM39.4049 118.805L41.6732 119.661L41.6668 124.837C41.6591 130.806 41.7959 130.731 38.6497 126.498C37.029 124.317 32.3438 115.911 32.3438 115.184C32.3438 115.084 33.422 115.665 34.74 116.475C36.058 117.286 38.1572 118.334 39.4049 118.805ZM115.33 128.646C118.368 129.8 128.32 138.58 128.32 140.105C128.32 140.353 127.043 141.365 125.483 142.356L122.645 144.158L120.937 143.228C119.997 142.716 117.532 141.024 115.459 139.468L111.69 136.638L110.61 138.016C107.063 142.542 100.718 148.089 96.2571 150.563C92.3513 152.729 90.0098 153.402 87.3629 153.118L85.0518 152.871L87.4378 151.19C90.321 149.159 96.8818 142.448 100.689 137.634C105.391 131.691 107.861 129.343 110.35 128.454C112.126 127.819 113.27 127.863 115.33 128.646Z" fill="#00293F"/>
</g>
<defs>
<clipPath id="clip0_1265_691">
<rect width="180" height="180" rx="12" fill="white"/>
</clipPath>
</defs>
</svg>
