<svg width="389" height="38" viewBox="0 0 389 38" fill="none" xmlns="http://www.w3.org/2000/svg">
<path d="M0.456 36.5V0.739997H13.8C16.232 0.739997 18.376 1.188 20.232 2.084C22.12 2.948 23.592 4.228 24.648 5.924C25.704 7.588 26.232 9.62 26.232 12.02C26.232 14.388 25.688 16.42 24.6 18.116C23.544 19.78 22.088 21.06 20.232 21.956C18.376 22.852 16.232 23.3 13.8 23.3H6.984V36.5H0.456ZM6.984 17.54H13.896C15.08 17.54 16.104 17.316 16.968 16.868C17.832 16.388 18.504 15.732 18.984 14.9C19.464 14.068 19.704 13.108 19.704 12.02C19.704 10.9 19.464 9.94 18.984 9.14C18.504 8.308 17.832 7.668 16.968 7.22C16.104 6.74 15.08 6.5 13.896 6.5H6.984V17.54ZM31.053 36.5V0.163999H37.341V36.5H31.053ZM52.4588 37.076C50.4428 37.076 48.6828 36.628 47.1788 35.732C45.7068 34.836 44.5708 33.588 43.7708 31.988C43.0028 30.388 42.6188 28.516 42.6188 26.372V10.388H48.9068V25.844C48.9068 26.932 49.1148 27.892 49.5308 28.724C49.9788 29.524 50.6028 30.164 51.4028 30.644C52.2348 31.092 53.1628 31.316 54.1868 31.316C55.2108 31.316 56.1228 31.092 56.9228 30.644C57.7228 30.164 58.3468 29.508 58.7948 28.676C59.2428 27.844 59.4668 26.852 59.4668 25.7V10.388H65.7548V36.5H59.8028V31.364L60.3308 32.276C59.7228 33.876 58.7148 35.076 57.3068 35.876C55.9308 36.676 54.3148 37.076 52.4588 37.076ZM81.5359 37.076C78.7519 37.076 76.3199 36.42 74.2399 35.108C72.1919 33.764 70.7839 31.956 70.0159 29.684L74.7199 27.428C75.3919 28.9 76.3199 30.052 77.5039 30.884C78.7199 31.716 80.0639 32.132 81.5359 32.132C82.6879 32.132 83.5999 31.876 84.2719 31.364C84.9439 30.852 85.2799 30.18 85.2799 29.348C85.2799 28.836 85.1359 28.42 84.8479 28.1C84.5919 27.748 84.2239 27.46 83.7439 27.236C83.2959 26.98 82.7999 26.772 82.2559 26.612L77.9839 25.412C75.7759 24.772 74.0959 23.796 72.9439 22.484C71.8239 21.172 71.2639 19.62 71.2639 17.828C71.2639 16.228 71.6639 14.836 72.4639 13.652C73.2959 12.436 74.4319 11.492 75.8719 10.82C77.3439 10.148 79.0239 9.812 80.9119 9.812C83.3759 9.812 85.5519 10.404 87.4399 11.588C89.3279 12.772 90.6719 14.436 91.4719 16.58L86.6719 18.836C86.2239 17.652 85.4719 16.708 84.4159 16.004C83.3599 15.3 82.1759 14.948 80.8639 14.948C79.8079 14.948 78.9759 15.188 78.3679 15.668C77.7599 16.148 77.4559 16.772 77.4559 17.54C77.4559 18.02 77.5839 18.436 77.8399 18.788C78.0959 19.14 78.4479 19.428 78.8959 19.652C79.3759 19.876 79.9199 20.084 80.5279 20.276L84.7039 21.524C86.8479 22.164 88.4959 23.124 89.6479 24.404C90.8319 25.684 91.4239 27.252 91.4239 29.108C91.4239 30.676 91.0079 32.068 90.1759 33.284C89.3439 34.468 88.1919 35.396 86.7199 36.068C85.2479 36.74 83.5199 37.076 81.5359 37.076ZM103.731 36.5V30.5H105.795C107.331 30.5 108.547 30.068 109.443 29.204C110.371 28.308 110.835 27.124 110.835 25.652V0.739997H117.411V25.412C117.411 27.62 116.931 29.556 115.971 31.22C115.043 32.884 113.699 34.18 111.939 35.108C110.211 36.036 108.163 36.5 105.795 36.5H103.731ZM131.551 37.076C129.727 37.076 128.143 36.772 126.799 36.164C125.455 35.556 124.415 34.692 123.679 33.572C122.943 32.42 122.575 31.092 122.575 29.588C122.575 28.148 122.895 26.868 123.535 25.748C124.175 24.596 125.167 23.636 126.511 22.868C127.855 22.1 129.551 21.556 131.599 21.236L140.143 19.844V24.644L132.799 25.892C131.551 26.116 130.623 26.516 130.015 27.092C129.407 27.668 129.103 28.42 129.103 29.348C129.103 30.244 129.439 30.964 130.111 31.508C130.815 32.02 131.679 32.276 132.703 32.276C134.015 32.276 135.167 32.004 136.159 31.46C137.183 30.884 137.967 30.1 138.511 29.108C139.087 28.116 139.375 27.028 139.375 25.844V19.124C139.375 18.004 138.927 17.076 138.031 16.34C137.167 15.572 136.015 15.188 134.575 15.188C133.231 15.188 132.031 15.556 130.975 16.292C129.951 16.996 129.199 17.94 128.719 19.124L123.583 16.628C124.095 15.252 124.895 14.068 125.983 13.076C127.103 12.052 128.415 11.252 129.919 10.676C131.423 10.1 133.055 9.812 134.815 9.812C136.959 9.812 138.847 10.212 140.479 11.012C142.111 11.78 143.375 12.868 144.271 14.276C145.199 15.652 145.663 17.268 145.663 19.124V36.5H139.711V32.036L141.055 31.94C140.383 33.06 139.583 34.004 138.655 34.772C137.727 35.508 136.671 36.084 135.487 36.5C134.303 36.884 132.991 37.076 131.551 37.076ZM151.475 36.5V0.163999H157.763V23.972L155.363 23.252L167.651 10.388H175.475L165.827 20.9L175.667 36.5H168.467L159.923 22.964L163.667 22.196L155.795 30.644L157.763 26.804V36.5H151.475ZM187.098 37.076C185.274 37.076 183.69 36.772 182.346 36.164C181.002 35.556 179.962 34.692 179.226 33.572C178.49 32.42 178.122 31.092 178.122 29.588C178.122 28.148 178.442 26.868 179.082 25.748C179.722 24.596 180.714 23.636 182.058 22.868C183.402 22.1 185.098 21.556 187.146 21.236L195.69 19.844V24.644L188.346 25.892C187.098 26.116 186.17 26.516 185.562 27.092C184.954 27.668 184.65 28.42 184.65 29.348C184.65 30.244 184.986 30.964 185.658 31.508C186.362 32.02 187.226 32.276 188.25 32.276C189.562 32.276 190.714 32.004 191.706 31.46C192.73 30.884 193.514 30.1 194.058 29.108C194.634 28.116 194.922 27.028 194.922 25.844V19.124C194.922 18.004 194.474 17.076 193.578 16.34C192.714 15.572 191.562 15.188 190.122 15.188C188.778 15.188 187.578 15.556 186.522 16.292C185.498 16.996 184.746 17.94 184.266 19.124L179.13 16.628C179.642 15.252 180.442 14.068 181.53 13.076C182.65 12.052 183.962 11.252 185.466 10.676C186.97 10.1 188.602 9.812 190.362 9.812C192.506 9.812 194.394 10.212 196.026 11.012C197.658 11.78 198.922 12.868 199.818 14.276C200.746 15.652 201.21 17.268 201.21 19.124V36.5H195.258V32.036L196.602 31.94C195.93 33.06 195.13 34.004 194.202 34.772C193.274 35.508 192.218 36.084 191.034 36.5C189.85 36.884 188.538 37.076 187.098 37.076ZM207.022 36.5V10.388H212.926V16.196L212.446 15.332C213.054 13.38 213.998 12.02 215.278 11.252C216.59 10.484 218.158 10.1 219.982 10.1H221.518V15.668H219.262C217.47 15.668 216.03 16.228 214.942 17.348C213.854 18.436 213.31 19.972 213.31 21.956V36.5H207.022ZM237.582 36.788C234.638 36.788 232.35 35.988 230.718 34.388C229.118 32.756 228.318 30.468 228.318 27.524V16.004H223.806V10.388H224.286C225.566 10.388 226.558 10.052 227.262 9.38C227.966 8.708 228.318 7.732 228.318 6.452V4.436H234.606V10.388H240.606V16.004H234.606V27.188C234.606 28.052 234.75 28.788 235.038 29.396C235.358 30.004 235.838 30.468 236.478 30.788C237.15 31.108 237.998 31.268 239.022 31.268C239.246 31.268 239.502 31.252 239.79 31.22C240.11 31.188 240.414 31.156 240.702 31.124V36.5C240.254 36.564 239.742 36.628 239.166 36.692C238.59 36.756 238.062 36.788 237.582 36.788ZM253.332 37.076C251.508 37.076 249.924 36.772 248.58 36.164C247.236 35.556 246.196 34.692 245.46 33.572C244.724 32.42 244.356 31.092 244.356 29.588C244.356 28.148 244.676 26.868 245.316 25.748C245.956 24.596 246.948 23.636 248.292 22.868C249.636 22.1 251.332 21.556 253.38 21.236L261.924 19.844V24.644L254.58 25.892C253.332 26.116 252.404 26.516 251.796 27.092C251.188 27.668 250.884 28.42 250.884 29.348C250.884 30.244 251.22 30.964 251.892 31.508C252.596 32.02 253.46 32.276 254.484 32.276C255.796 32.276 256.948 32.004 257.94 31.46C258.964 30.884 259.748 30.1 260.292 29.108C260.868 28.116 261.156 27.028 261.156 25.844V19.124C261.156 18.004 260.708 17.076 259.812 16.34C258.948 15.572 257.796 15.188 256.356 15.188C255.012 15.188 253.812 15.556 252.756 16.292C251.732 16.996 250.98 17.94 250.5 19.124L245.364 16.628C245.876 15.252 246.676 14.068 247.764 13.076C248.884 12.052 250.196 11.252 251.7 10.676C253.204 10.1 254.836 9.812 256.596 9.812C258.74 9.812 260.628 10.212 262.26 11.012C263.892 11.78 265.156 12.868 266.052 14.276C266.98 15.652 267.444 17.268 267.444 19.124V36.5H261.492V32.036L262.836 31.94C262.164 33.06 261.364 34.004 260.436 34.772C259.508 35.508 258.452 36.084 257.268 36.5C256.084 36.884 254.772 37.076 253.332 37.076ZM295.083 37.076C292.811 37.076 290.699 36.66 288.747 35.828C286.827 34.996 285.163 33.844 283.755 32.372C282.379 30.868 281.371 29.124 280.731 27.14L286.155 24.788C287.019 26.836 288.267 28.452 289.899 29.636C291.531 30.788 293.371 31.364 295.419 31.364C296.571 31.364 297.563 31.188 298.395 30.836C299.259 30.452 299.915 29.94 300.363 29.3C300.843 28.66 301.083 27.892 301.083 26.996C301.083 25.94 300.763 25.076 300.123 24.404C299.515 23.7 298.587 23.156 297.339 22.772L290.475 20.564C287.691 19.7 285.595 18.404 284.187 16.676C282.779 14.948 282.075 12.916 282.075 10.58C282.075 8.532 282.571 6.724 283.563 5.156C284.587 3.588 285.995 2.372 287.787 1.508C289.611 0.611999 291.691 0.163999 294.027 0.163999C296.171 0.163999 298.139 0.547998 299.931 1.316C301.723 2.052 303.259 3.092 304.539 4.436C305.851 5.748 306.827 7.3 307.467 9.092L302.091 11.492C301.387 9.7 300.331 8.324 298.923 7.364C297.515 6.372 295.883 5.876 294.027 5.876C292.939 5.876 291.979 6.068 291.147 6.452C290.315 6.804 289.659 7.316 289.179 7.988C288.731 8.628 288.507 9.396 288.507 10.292C288.507 11.284 288.827 12.164 289.467 12.932C290.107 13.668 291.083 14.244 292.395 14.66L298.971 16.724C301.819 17.652 303.947 18.932 305.355 20.564C306.795 22.196 307.515 24.212 307.515 26.612C307.515 28.66 306.987 30.468 305.931 32.036C304.875 33.604 303.419 34.836 301.563 35.732C299.707 36.628 297.547 37.076 295.083 37.076ZM320.551 37.076C318.727 37.076 317.143 36.772 315.799 36.164C314.455 35.556 313.415 34.692 312.679 33.572C311.943 32.42 311.575 31.092 311.575 29.588C311.575 28.148 311.895 26.868 312.535 25.748C313.175 24.596 314.167 23.636 315.511 22.868C316.855 22.1 318.551 21.556 320.599 21.236L329.143 19.844V24.644L321.799 25.892C320.551 26.116 319.623 26.516 319.015 27.092C318.407 27.668 318.103 28.42 318.103 29.348C318.103 30.244 318.439 30.964 319.111 31.508C319.815 32.02 320.679 32.276 321.703 32.276C323.015 32.276 324.167 32.004 325.159 31.46C326.183 30.884 326.967 30.1 327.511 29.108C328.087 28.116 328.375 27.028 328.375 25.844V19.124C328.375 18.004 327.927 17.076 327.031 16.34C326.167 15.572 325.015 15.188 323.575 15.188C322.231 15.188 321.031 15.556 319.975 16.292C318.951 16.996 318.199 17.94 317.719 19.124L312.583 16.628C313.095 15.252 313.895 14.068 314.983 13.076C316.103 12.052 317.415 11.252 318.919 10.676C320.423 10.1 322.055 9.812 323.815 9.812C325.959 9.812 327.847 10.212 329.479 11.012C331.111 11.78 332.375 12.868 333.271 14.276C334.199 15.652 334.663 17.268 334.663 19.124V36.5H328.711V32.036L330.055 31.94C329.383 33.06 328.583 34.004 327.655 34.772C326.727 35.508 325.671 36.084 324.487 36.5C323.303 36.884 321.991 37.076 320.551 37.076ZM340.475 36.5V10.388H346.379V15.524L345.899 14.612C346.507 13.044 347.499 11.86 348.875 11.06C350.283 10.228 351.915 9.812 353.771 9.812C355.691 9.812 357.387 10.228 358.859 11.06C360.363 11.892 361.531 13.06 362.363 14.564C363.195 16.036 363.611 17.748 363.611 19.7V36.5H357.323V21.188C357.323 20.036 357.099 19.044 356.651 18.212C356.203 17.38 355.579 16.74 354.779 16.292C354.011 15.812 353.099 15.572 352.043 15.572C351.019 15.572 350.107 15.812 349.307 16.292C348.507 16.74 347.883 17.38 347.435 18.212C346.987 19.044 346.763 20.036 346.763 21.188V36.5H340.475ZM378.864 37.076C376.08 37.076 373.648 36.42 371.568 35.108C369.52 33.764 368.112 31.956 367.344 29.684L372.048 27.428C372.72 28.9 373.648 30.052 374.832 30.884C376.048 31.716 377.392 32.132 378.864 32.132C380.016 32.132 380.928 31.876 381.6 31.364C382.272 30.852 382.608 30.18 382.608 29.348C382.608 28.836 382.464 28.42 382.176 28.1C381.92 27.748 381.552 27.46 381.072 27.236C380.624 26.98 380.128 26.772 379.584 26.612L375.312 25.412C373.104 24.772 371.424 23.796 370.272 22.484C369.152 21.172 368.592 19.62 368.592 17.828C368.592 16.228 368.992 14.836 369.792 13.652C370.624 12.436 371.76 11.492 373.2 10.82C374.672 10.148 376.352 9.812 378.24 9.812C380.704 9.812 382.88 10.404 384.768 11.588C386.656 12.772 388 14.436 388.8 16.58L384 18.836C383.552 17.652 382.8 16.708 381.744 16.004C380.688 15.3 379.504 14.948 378.192 14.948C377.136 14.948 376.304 15.188 375.696 15.668C375.088 16.148 374.784 16.772 374.784 17.54C374.784 18.02 374.912 18.436 375.168 18.788C375.424 19.14 375.776 19.428 376.224 19.652C376.704 19.876 377.248 20.084 377.856 20.276L382.032 21.524C384.176 22.164 385.824 23.124 386.976 24.404C388.16 25.684 388.752 27.252 388.752 29.108C388.752 30.676 388.336 32.068 387.504 33.284C386.672 34.468 385.52 35.396 384.048 36.068C382.576 36.74 380.848 37.076 378.864 37.076Z" fill="white"/>
</svg>
