<svg width="330" height="32" viewBox="0 0 330 32" fill="none" xmlns="http://www.w3.org/2000/svg">
<path d="M0.352 24.5L9.056 0.659998H11.808L20.512 24.5H17.824L15.776 18.676H5.12L3.04 24.5H0.352ZM5.952 16.276H14.88L10.048 2.58H10.816L5.952 16.276ZM28.299 24.884C27.211 24.884 26.2403 24.6813 25.387 24.276C24.5337 23.8493 23.8617 23.2733 23.371 22.548C22.8803 21.8227 22.635 20.9907 22.635 20.052C22.635 19.156 22.827 18.3453 23.211 17.62C23.595 16.8733 24.1923 16.244 25.003 15.732C25.8137 15.22 26.8483 14.8573 28.107 14.644L34.827 13.524V15.7L28.683 16.724C27.4457 16.9373 26.5497 17.332 25.995 17.908C25.4617 18.484 25.195 19.1667 25.195 19.956C25.195 20.724 25.4937 21.3747 26.091 21.908C26.7097 22.4413 27.499 22.708 28.459 22.708C29.6323 22.708 30.6563 22.4627 31.531 21.972C32.4057 21.46 33.0883 20.7773 33.579 19.924C34.0697 19.0707 34.315 18.1213 34.315 17.076V12.724C34.315 11.7 33.9417 10.868 33.195 10.228C32.4483 9.588 31.4777 9.268 30.283 9.268C29.2377 9.268 28.3203 9.53467 27.531 10.068C26.7417 10.58 26.155 11.252 25.771 12.084L23.595 10.9C23.915 10.1747 24.4163 9.51333 25.099 8.916C25.803 8.31867 26.603 7.84933 27.499 7.508C28.395 7.14533 29.323 6.964 30.283 6.964C31.5417 6.964 32.651 7.20933 33.611 7.7C34.5923 8.19067 35.3497 8.87333 35.883 9.748C36.4377 10.6013 36.715 11.5933 36.715 12.724V24.5H34.315V21.076L34.667 21.428C34.3683 22.068 33.899 22.6547 33.259 23.188C32.6403 23.7 31.9043 24.116 31.051 24.436C30.219 24.7347 29.3017 24.884 28.299 24.884ZM42.0035 24.5V0.659998H52.0195C53.3635 0.659998 54.5262 0.915998 55.5075 1.428C56.5102 1.91867 57.2782 2.612 57.8115 3.508C58.3662 4.404 58.6435 5.44933 58.6435 6.644C58.6435 7.88133 58.3342 8.98 57.7155 9.94C57.1182 10.8787 56.2542 11.5933 55.1235 12.084L55.0915 11.316C56.0302 11.6573 56.8302 12.1373 57.4915 12.756C58.1742 13.3747 58.6968 14.1 59.0595 14.932C59.4222 15.7427 59.6035 16.6173 59.6035 17.556C59.6035 19.6893 58.9208 21.3853 57.5555 22.644C56.2115 23.8813 54.3768 24.5 52.0515 24.5H42.0035ZM44.5635 22.1H52.0515C53.5662 22.1 54.7715 21.7053 55.6675 20.916C56.5848 20.1053 57.0435 18.996 57.0435 17.588C57.0435 16.2013 56.5848 15.1027 55.6675 14.292C54.7715 13.46 53.5662 13.044 52.0515 13.044H44.5635V22.1ZM44.5635 10.74H51.8275C53.1075 10.74 54.1315 10.3667 54.8995 9.62C55.6888 8.87333 56.0835 7.91333 56.0835 6.74C56.0835 5.54533 55.6888 4.63867 54.8995 4.02C54.1315 3.38 53.1075 3.06 51.8275 3.06H44.5635V10.74ZM72.511 24.884C71.039 24.884 69.7057 24.5533 68.511 23.892C67.3377 23.2093 66.4523 22.2493 65.855 21.012L66.239 20.66V24.5H63.839V0.275999H66.239V11.188L65.855 10.516C66.5377 9.428 67.4443 8.564 68.575 7.924C69.727 7.284 71.039 6.964 72.511 6.964C74.1323 6.964 75.5723 7.35867 76.831 8.148C78.111 8.916 79.1137 9.972 79.839 11.316C80.5857 12.66 80.959 14.196 80.959 15.924C80.959 17.6307 80.5857 19.1667 79.839 20.532C79.1137 21.876 78.111 22.9427 76.831 23.732C75.5723 24.5 74.1323 24.884 72.511 24.884ZM72.383 22.484C73.535 22.484 74.559 22.196 75.455 21.62C76.3723 21.044 77.087 20.2653 77.599 19.284C78.1323 18.2813 78.399 17.1613 78.399 15.924C78.399 14.6653 78.1323 13.5453 77.599 12.564C77.087 11.5827 76.3723 10.804 75.455 10.228C74.559 9.652 73.535 9.364 72.383 9.364C71.231 9.364 70.1857 9.652 69.247 10.228C68.3297 10.804 67.5937 11.5933 67.039 12.596C66.5057 13.5773 66.239 14.6867 66.239 15.924C66.239 17.1613 66.5057 18.2813 67.039 19.284C67.5937 20.2653 68.3297 21.044 69.247 21.62C70.1857 22.196 71.231 22.484 72.383 22.484ZM96.4148 24.884C94.7294 24.884 93.1828 24.5853 91.7748 23.988C90.3668 23.3693 89.1401 22.516 88.0948 21.428C87.0708 20.3187 86.2708 19.0173 85.6948 17.524C85.1188 16.0307 84.8307 14.388 84.8307 12.596C84.8307 10.804 85.1188 9.16133 85.6948 7.668C86.2708 6.17467 87.0708 4.87333 88.0948 3.764C89.1401 2.65467 90.3668 1.80133 91.7748 1.204C93.1828 0.585332 94.7294 0.275999 96.4148 0.275999C98.0361 0.275999 99.4868 0.563999 100.767 1.14C102.068 1.716 103.156 2.46267 104.031 3.38C104.927 4.276 105.567 5.22533 105.951 6.228L103.551 7.284C102.953 5.89733 102.036 4.788 100.799 3.956C99.5828 3.10267 98.1214 2.676 96.4148 2.676C94.6654 2.676 93.1081 3.092 91.7428 3.924C90.3774 4.756 89.3108 5.91867 88.5428 7.412C87.7748 8.884 87.3908 10.612 87.3908 12.596C87.3908 14.5587 87.7748 16.2867 88.5428 17.78C89.3108 19.2733 90.3774 20.436 91.7428 21.268C93.1081 22.0787 94.6654 22.484 96.4148 22.484C98.1214 22.484 99.5828 22.068 100.799 21.236C102.036 20.404 102.953 19.2947 103.551 17.908L105.951 18.964C105.567 19.9453 104.927 20.8947 104.031 21.812C103.156 22.708 102.068 23.444 100.767 24.02C99.4868 24.596 98.0361 24.884 96.4148 24.884ZM117.71 24.884C116.025 24.884 114.542 24.4893 113.262 23.7C111.982 22.9107 110.98 21.844 110.254 20.5C109.529 19.1347 109.166 17.5987 109.166 15.892C109.166 14.1853 109.529 12.66 110.254 11.316C110.98 9.972 111.982 8.916 113.262 8.148C114.542 7.35867 116.025 6.964 117.71 6.964C118.777 6.964 119.78 7.156 120.718 7.54C121.657 7.924 122.489 8.44667 123.214 9.108C123.94 9.748 124.484 10.4947 124.846 11.348L122.67 12.468C122.244 11.5507 121.593 10.804 120.718 10.228C119.844 9.652 118.841 9.364 117.71 9.364C116.58 9.364 115.556 9.652 114.638 10.228C113.742 10.7827 113.028 11.5613 112.494 12.564C111.982 13.5453 111.726 14.6653 111.726 15.924C111.726 17.1613 111.982 18.2813 112.494 19.284C113.028 20.2653 113.742 21.044 114.638 21.62C115.556 22.196 116.58 22.484 117.71 22.484C118.841 22.484 119.833 22.196 120.686 21.62C121.561 21.044 122.222 20.276 122.67 19.316L124.846 20.5C124.484 21.332 123.94 22.0787 123.214 22.74C122.489 23.4013 121.657 23.924 120.718 24.308C119.78 24.692 118.777 24.884 117.71 24.884ZM129.41 24.5V0.659998H137.25C139.618 0.659998 141.676 1.15066 143.426 2.132C145.175 3.092 146.53 4.468 147.49 6.26C148.45 8.03067 148.93 10.132 148.93 12.564C148.93 14.9747 148.45 17.076 147.49 18.868C146.53 20.66 145.175 22.0467 143.426 23.028C141.676 24.0093 139.618 24.5 137.25 24.5H129.41ZM131.97 22.1H137.25C139.084 22.1 140.674 21.716 142.018 20.948C143.362 20.1587 144.396 19.0493 145.122 17.62C145.868 16.1907 146.242 14.5053 146.242 12.564C146.242 10.6227 145.868 8.948 145.122 7.54C144.375 6.11067 143.33 5.012 141.986 4.244C140.642 3.45467 139.063 3.06 137.25 3.06H131.97V22.1ZM160.552 24.884C158.952 24.884 157.512 24.5 156.232 23.732C154.952 22.9427 153.938 21.876 153.192 20.532C152.466 19.1667 152.104 17.6307 152.104 15.924C152.104 14.196 152.466 12.66 153.192 11.316C153.938 9.972 154.941 8.916 156.2 8.148C157.48 7.35867 158.93 6.964 160.552 6.964C162.024 6.964 163.336 7.284 164.488 7.924C165.64 8.564 166.546 9.428 167.208 10.516L166.824 11.188V0.275999H169.224V24.5H166.824V20.66L167.208 21.012C166.61 22.2493 165.714 23.2093 164.52 23.892C163.346 24.5533 162.024 24.884 160.552 24.884ZM160.68 22.484C161.832 22.484 162.866 22.196 163.784 21.62C164.722 21.044 165.458 20.2653 165.992 19.284C166.546 18.2813 166.824 17.1613 166.824 15.924C166.824 14.6867 166.546 13.5773 165.992 12.596C165.458 11.5933 164.722 10.804 163.784 10.228C162.866 9.652 161.832 9.364 160.68 9.364C159.549 9.364 158.525 9.652 157.608 10.228C156.69 10.804 155.965 11.5827 155.432 12.564C154.92 13.5453 154.664 14.6653 154.664 15.924C154.664 17.1613 154.92 18.2813 155.432 19.284C155.965 20.2653 156.68 21.044 157.576 21.62C158.493 22.196 159.528 22.484 160.68 22.484ZM174.504 24.5V0.659998H189.864V3.06H177.064V11.348H189.224V13.748H177.064V22.1H189.864V24.5H174.504ZM201.553 24.884C199.953 24.884 198.503 24.5 197.201 23.732C195.921 22.9427 194.908 21.8653 194.161 20.5C193.415 19.1347 193.041 17.588 193.041 15.86C193.041 14.132 193.404 12.6067 194.129 11.284C194.855 9.94 195.836 8.884 197.073 8.116C198.332 7.348 199.74 6.964 201.297 6.964C202.535 6.964 203.633 7.19867 204.593 7.668C205.575 8.116 206.407 8.73467 207.089 9.524C207.772 10.292 208.295 11.1667 208.657 12.148C209.02 13.108 209.201 14.1 209.201 15.124C209.201 15.3373 209.191 15.5827 209.169 15.86C209.148 16.116 209.116 16.3827 209.073 16.66H194.577V14.42H207.697L206.545 15.38C206.737 14.2067 206.599 13.1613 206.129 12.244C205.681 11.3053 205.031 10.5693 204.177 10.036C203.324 9.48133 202.364 9.204 201.297 9.204C200.231 9.204 199.239 9.48133 198.321 10.036C197.425 10.5907 196.721 11.3693 196.209 12.372C195.697 13.3533 195.495 14.5267 195.601 15.892C195.495 17.2573 195.708 18.452 196.241 19.476C196.796 20.4787 197.543 21.2573 198.481 21.812C199.441 22.3667 200.465 22.644 201.553 22.644C202.812 22.644 203.868 22.3453 204.721 21.748C205.575 21.1507 206.268 20.404 206.801 19.508L208.849 20.596C208.508 21.364 207.985 22.0787 207.281 22.74C206.577 23.38 205.735 23.9027 204.753 24.308C203.793 24.692 202.727 24.884 201.553 24.884ZM213.785 24.5V0.659998H228.505V3.06H216.345V11.348H227.545V13.748H216.345V24.5H213.785ZM233.786 24.5V9.748H230.363V7.348H233.786V5.812C233.786 4.61733 234.053 3.61467 234.587 2.804C235.12 1.972 235.824 1.34267 236.699 0.915998C237.573 0.489332 238.512 0.275999 239.515 0.275999C239.728 0.275999 239.973 0.297332 240.251 0.339998C240.528 0.361333 240.752 0.393333 240.923 0.435999V2.612C240.773 2.56933 240.571 2.548 240.315 2.548C240.059 2.52667 239.877 2.516 239.771 2.516C238.747 2.516 237.893 2.76133 237.211 3.252C236.528 3.74267 236.187 4.596 236.187 5.812V7.348H240.379V9.748H236.187V24.5H233.786ZM255.821 24.884C254.136 24.884 252.589 24.5853 251.181 23.988C249.773 23.3693 248.546 22.516 247.501 21.428C246.477 20.3187 245.677 19.0173 245.101 17.524C244.525 16.0307 244.237 14.388 244.237 12.596C244.237 10.804 244.525 9.16133 245.101 7.668C245.677 6.17467 246.477 4.87333 247.501 3.764C248.546 2.65467 249.773 1.80133 251.181 1.204C252.589 0.585332 254.136 0.275999 255.821 0.275999C257.442 0.275999 258.893 0.563999 260.173 1.14C261.474 1.716 262.562 2.46267 263.437 3.38C264.333 4.276 264.973 5.22533 265.357 6.228L263.053 7.348C262.456 5.89733 261.538 4.756 260.301 3.924C259.064 3.092 257.57 2.676 255.821 2.676C254.072 2.676 252.514 3.092 251.149 3.924C249.784 4.756 248.717 5.91867 247.949 7.412C247.181 8.884 246.797 10.612 246.797 12.596C246.797 14.5587 247.181 16.2867 247.949 17.78C248.717 19.2733 249.784 20.436 251.149 21.268C252.514 22.0787 254.072 22.484 255.821 22.484C257.378 22.484 258.776 22.1427 260.013 21.46C261.272 20.7773 262.264 19.8493 262.989 18.676C263.714 17.4813 264.077 16.116 264.077 14.58V13.268L265.229 14.42H255.821V12.18H266.637V14.164C266.637 15.7213 266.36 17.1613 265.805 18.484C265.25 19.7853 264.482 20.916 263.501 21.876C262.52 22.836 261.368 23.5827 260.045 24.116C258.744 24.628 257.336 24.884 255.821 24.884ZM278.998 31.54C277.825 31.54 276.737 31.3587 275.734 30.996C274.753 30.6333 273.9 30.132 273.174 29.492C272.47 28.8733 271.926 28.148 271.542 27.316L273.75 26.132C274.092 26.9427 274.7 27.6467 275.574 28.244C276.449 28.8413 277.569 29.14 278.934 29.14C279.98 29.14 280.94 28.9373 281.814 28.532C282.689 28.1267 283.393 27.5293 283.926 26.74C284.46 25.9507 284.726 24.98 284.726 23.828V20.02L285.11 20.372C284.513 21.6093 283.628 22.5693 282.454 23.252C281.281 23.9133 280.001 24.244 278.614 24.244C277.014 24.244 275.574 23.86 274.294 23.092C273.014 22.324 272.001 21.2893 271.254 19.988C270.529 18.6653 270.166 17.204 270.166 15.604C270.166 13.9827 270.529 12.5213 271.254 11.22C272.001 9.91867 273.004 8.884 274.262 8.116C275.542 7.348 276.993 6.964 278.614 6.964C280.001 6.964 281.26 7.284 282.39 7.924C283.542 8.564 284.449 9.428 285.11 10.516L284.726 11.188V7.348H287.126V23.828C287.126 25.3 286.774 26.612 286.07 27.764C285.388 28.9373 284.428 29.8547 283.19 30.516C281.974 31.1987 280.577 31.54 278.998 31.54ZM278.742 21.844C279.852 21.844 280.854 21.5667 281.75 21.012C282.646 20.436 283.361 19.6787 283.894 18.74C284.449 17.78 284.726 16.7347 284.726 15.604C284.726 14.4733 284.449 13.4387 283.894 12.5C283.361 11.54 282.646 10.7827 281.75 10.228C280.854 9.652 279.852 9.364 278.742 9.364C277.612 9.364 276.588 9.652 275.67 10.228C274.753 10.7827 274.028 11.5293 273.494 12.468C272.982 13.4067 272.726 14.452 272.726 15.604C272.726 16.7347 272.982 17.78 273.494 18.74C274.028 19.6787 274.742 20.436 275.638 21.012C276.556 21.5667 277.59 21.844 278.742 21.844ZM292.41 24.5V0.659998H294.97V11.38H307.77V0.659998H310.33V24.5H307.77V13.78H294.97V24.5H292.41ZM315.62 24.5V0.275999H318.02V10.676L317.476 10.548C317.903 9.43867 318.596 8.564 319.556 7.924C320.538 7.284 321.668 6.964 322.948 6.964C324.164 6.964 325.252 7.24133 326.212 7.796C327.194 8.35067 327.962 9.11867 328.516 10.1C329.092 11.06 329.38 12.148 329.38 13.364V24.5H326.98V14.292C326.98 13.2467 326.788 12.3613 326.404 11.636C326.02 10.9107 325.487 10.356 324.804 9.972C324.143 9.56667 323.386 9.364 322.532 9.364C321.679 9.364 320.911 9.56667 320.228 9.972C319.546 10.356 319.002 10.9213 318.596 11.668C318.212 12.3933 318.02 13.268 318.02 14.292V24.5H315.62Z" fill="white"/>
</svg>
