<svg width="136" height="109" viewBox="0 0 136 109" fill="none" xmlns="http://www.w3.org/2000/svg">
<path d="M0.232 83.5L30.696 0.0599928H40.328L70.792 83.5H61.384L54.216 63.116H16.92L9.64 83.5H0.232ZM19.832 54.716H51.08L34.168 6.77999H36.856L19.832 54.716ZM106.947 108.14C102.84 108.14 99.0323 107.505 95.523 106.236C92.0883 104.967 89.1017 103.212 86.563 100.972C84.099 98.8067 82.195 96.268 80.851 93.356L88.579 89.212C89.7737 92.0493 91.9017 94.5133 94.963 96.604C98.0243 98.6947 101.944 99.74 106.723 99.74C110.382 99.74 113.742 99.0307 116.803 97.612C119.864 96.1933 122.328 94.1027 124.195 91.34C126.062 88.5773 126.995 85.18 126.995 81.148V67.82L128.339 69.052C126.248 73.3827 123.15 76.7427 119.043 79.132C114.936 81.4467 110.456 82.604 105.603 82.604C100.003 82.604 94.963 81.26 90.483 78.572C86.003 75.884 82.4563 72.2627 79.843 67.708C77.3043 63.0787 76.035 57.964 76.035 52.364C76.035 46.6893 77.3043 41.5747 79.843 37.02C82.4563 32.4653 85.9657 28.844 90.371 26.156C94.851 23.468 99.9283 22.124 105.603 22.124C110.456 22.124 114.862 23.244 118.819 25.484C122.851 27.724 126.024 30.748 128.339 34.556L126.995 36.908V23.468H135.395V81.148C135.395 86.3 134.163 90.892 131.699 94.924C129.31 99.0307 125.95 102.241 121.619 104.556C117.363 106.945 112.472 108.14 106.947 108.14ZM106.051 74.204C109.934 74.204 113.443 73.2333 116.579 71.292C119.715 69.276 122.216 66.6253 124.083 63.34C126.024 59.98 126.995 56.3213 126.995 52.364C126.995 48.4067 126.024 44.7853 124.083 41.5C122.216 38.14 119.715 35.4893 116.579 33.548C113.443 31.532 109.934 30.524 106.051 30.524C102.094 30.524 98.5097 31.532 95.299 33.548C92.0883 35.4893 89.5497 38.1027 87.683 41.388C85.891 44.6733 84.995 48.332 84.995 52.364C84.995 56.3213 85.891 59.98 87.683 63.34C89.5497 66.6253 92.051 69.276 95.187 71.292C98.3977 73.2333 102.019 74.204 106.051 74.204Z" fill="white"/>
</svg>
