<svg width="35" height="36" viewBox="0 0 35 36" fill="none" xmlns="http://www.w3.org/2000/svg">
<path d="M0 0H15L6.00109 17.8013L15 36H0V0Z" fill="white"/>
<path d="M30.5785 17.7067C31.4596 18.2869 32.1875 18.9967 32.7436 19.8435C33.5991 21.1463 34 22.7007 34 24.4541C34 27.6395 32.9002 30.2401 30.6466 32.1323L30.5785 17.7067ZM30.5785 17.7067C32.252 16.2571 33.085 14.234 33.085 11.734C33.085 8.69091 32.0905 6.13987 30.0589 4.17413C27.8313 2.00838 24.6779 1 20.7614 1H19H18V2V34V35H19H21.1046C25.088 35 28.3155 34.0908 30.6462 32.1325L30.5785 17.7067Z" stroke="white" stroke-width="2"/>
</svg>
