<svg width="35" height="36" viewBox="0 0 35 36" fill="none" xmlns="http://www.w3.org/2000/svg">
<path d="M0 0H15L6.00109 17.8013L15 36H0V0Z" fill="white"/>
<path d="M32.7436 19.8435C32.1875 18.9967 31.4596 18.2869 30.5785 17.7067C32.252 16.2571 33.085 14.234 33.085 11.734C33.085 8.69093 32.0905 6.13991 30.059 4.17418C27.8313 2.0084 24.678 1 20.7614 1H19H18V2V34V35H19H21.1046C25.0882 35 28.3158 34.0907 30.6466 32.1323C32.9002 30.2401 34 27.6395 34 24.4541C34 22.7007 33.5991 21.1463 32.7436 19.8435Z" stroke="white" stroke-width="2"/>
</svg>
