<svg width="70" height="72" viewBox="0 0 70 72" fill="none" xmlns="http://www.w3.org/2000/svg">
<path d="M0 0H30L12.0022 35.6027L30 72H0V0Z" fill="white"/>
<path d="M65.4872 39.6869C64.375 37.9933 62.9193 36.5738 61.1571 35.4135C64.5039 32.5142 66.1699 28.468 66.1699 23.468C66.1699 17.3819 64.1811 12.2798 60.118 8.34835C55.6626 4.01679 49.356 2 41.5229 2H38H36V4V68V70H38H42.2092C50.1763 70 56.6315 68.1815 61.2931 64.2645C65.8004 60.4803 68 55.279 68 48.9082C68 45.4014 67.1982 42.2927 65.4872 39.6869Z" stroke="white" stroke-width="4"/>
</svg>
