<svg width="538" height="128" fill="none" xmlns="http://www.w3.org/2000/svg"><path fill="#fff" d="M0 0h538v128H0z"/><path d="M192.765 79.694V55.39h-7.505v-4.667h20.222v4.667h-7.389v24.305h-5.328zm12.811 0V58.54h4.784v4.705l-.389-.7c.492-1.581 1.257-2.683 2.294-3.305 1.063-.622 2.333-.934 3.811-.934h1.245v4.512h-1.828c-1.452 0-2.619.453-3.5 1.36-.882.882-1.322 2.127-1.322 3.734v11.783h-5.095zm20.573.467c-1.477 0-2.761-.246-3.85-.739-1.089-.492-1.931-1.192-2.527-2.1-.597-.933-.895-2.01-.895-3.228 0-1.166.259-2.203.778-3.11.518-.934 1.322-1.712 2.411-2.334 1.089-.622 2.463-1.063 4.122-1.322l6.922-1.128v3.889l-5.95 1.01c-1.011.182-1.763.506-2.255.973-.493.467-.739 1.076-.739 1.828 0 .726.272 1.31.817 1.75.57.415 1.27.622 2.1.622 1.063 0 1.996-.22 2.8-.661a4.816 4.816 0 0 0 1.905-1.906c.467-.803.7-1.685.7-2.644v-5.444c0-.908-.363-1.66-1.089-2.256-.7-.622-1.633-.933-2.8-.933-1.089 0-2.061.298-2.916.894a4.995 4.995 0 0 0-1.828 2.295l-4.161-2.023a7.28 7.28 0 0 1 1.944-2.877 9.953 9.953 0 0 1 3.189-1.945c1.219-.467 2.541-.7 3.967-.7 1.737 0 3.266.324 4.589.972 1.322.623 2.346 1.504 3.072 2.645.752 1.115 1.128 2.424 1.128 3.928v14.077h-4.823v-3.616l1.089-.078a8.848 8.848 0 0 1-1.944 2.294 8.78 8.78 0 0 1-2.567 1.4c-.959.311-2.022.467-3.189.467zm21.751-.467-8.322-21.155h5.561l6.028 16.644h-2.061l6.067-16.644h5.561l-8.322 21.155H247.9zm24.914.467c-2.178 0-4.083-.493-5.716-1.478a10.295 10.295 0 0 1-3.812-4.005c-.907-1.685-1.361-3.552-1.361-5.6 0-2.126.454-4.006 1.361-5.64.934-1.659 2.191-2.968 3.773-3.927 1.607-.96 3.396-1.439 5.366-1.439 1.66 0 3.111.272 4.356.817 1.27.544 2.346 1.296 3.228 2.255.881.96 1.555 2.061 2.022 3.306.467 1.218.7 2.54.7 3.967 0 .362-.026.738-.078 1.127a3.715 3.715 0 0 1-.194 1.011h-16.334v-3.888h13.456l-2.411 1.827c.233-1.192.168-2.255-.195-3.189a4.417 4.417 0 0 0-1.711-2.216c-.778-.545-1.724-.817-2.839-.817-1.063 0-2.009.272-2.839.817-.829.518-1.464 1.296-1.905 2.333-.415 1.011-.571 2.243-.467 3.695-.104 1.296.065 2.45.506 3.46.466.986 1.14 1.75 2.022 2.295.907.545 1.944.817 3.111.817 1.167 0 2.152-.246 2.956-.74a5.292 5.292 0 0 0 1.944-1.982l4.122 2.022c-.415 1.01-1.063 1.905-1.944 2.683-.882.778-1.932 1.387-3.15 1.828-1.193.44-2.515.661-3.967.661zm13.39-.467V50.255h5.094v29.44h-5.094zm19.754.467c-2.075 0-3.967-.48-5.678-1.439a11.086 11.086 0 0 1-4.045-3.928c-.985-1.659-1.477-3.551-1.477-5.677 0-2.126.492-4.019 1.477-5.678a11.087 11.087 0 0 1 4.045-3.928c1.685-.96 3.578-1.439 5.678-1.439 2.074 0 3.953.48 5.638 1.439a10.777 10.777 0 0 1 4.006 3.928c1.011 1.633 1.517 3.526 1.517 5.678 0 2.126-.506 4.018-1.517 5.677a11.083 11.083 0 0 1-4.044 3.928c-1.686.96-3.552 1.439-5.6 1.439zm0-4.667c1.14 0 2.138-.272 2.994-.816a5.594 5.594 0 0 0 2.061-2.256c.519-.985.778-2.087.778-3.305 0-1.245-.259-2.334-.778-3.267a5.594 5.594 0 0 0-2.061-2.256c-.856-.57-1.854-.855-2.994-.855-1.167 0-2.191.285-3.073.855-.881.545-1.581 1.297-2.1 2.256-.492.933-.739 2.022-.739 3.267 0 1.218.247 2.32.739 3.305.519.96 1.219 1.711 2.1 2.256.882.544 1.906.816 3.073.816zm24.98 4.667c-2.074 0-3.967-.48-5.678-1.439a11.086 11.086 0 0 1-4.045-3.928c-.985-1.659-1.477-3.551-1.477-5.677 0-2.126.492-4.019 1.477-5.678a11.087 11.087 0 0 1 4.045-3.928c1.685-.96 3.578-1.439 5.678-1.439 2.074 0 3.953.48 5.638 1.439a10.777 10.777 0 0 1 4.006 3.928c1.011 1.633 1.517 3.526 1.517 5.678 0 2.126-.506 4.018-1.517 5.677a11.083 11.083 0 0 1-4.044 3.928c-1.686.96-3.552 1.439-5.6 1.439zm0-4.667c1.14 0 2.138-.272 2.994-.816a5.587 5.587 0 0 0 2.061-2.256c.519-.985.778-2.087.778-3.305 0-1.245-.259-2.334-.778-3.267a5.587 5.587 0 0 0-2.061-2.256c-.856-.57-1.854-.855-2.994-.855-1.167 0-2.191.285-3.073.855-.881.545-1.581 1.297-2.1 2.256-.492.933-.739 2.022-.739 3.267 0 1.218.247 2.32.739 3.305.519.96 1.219 1.711 2.1 2.256.882.544 1.906.816 3.073.816z" fill="#293056"/><path d="m305.391 52.27 20.774-17.256a3.89 3.89 0 0 1 5.055.073l19.518 17.187a3.887 3.887 0 0 1 1.319 2.919V90.01c0 2.567-2.443 4.43-4.919 3.75l-17.384-4.777a3.886 3.886 0 0 0-2.06 0l-17.384 4.776c-2.476.68-4.919-1.182-4.919-3.75v-2.038" stroke="#1570EF" stroke-width="4.861" stroke-linecap="round" stroke-linejoin="round"/></svg>