<svg width="538" height="128" fill="none" xmlns="http://www.w3.org/2000/svg"><path fill="#fff" d="M0 0h538v128H0z"/><path d="M183.966 85.452V61.048h-7.536v-4.686h20.304v4.686h-7.419v24.404h-5.349zm13.253 0V64.21h4.803v4.725l-.39-.703c.494-1.588 1.262-2.694 2.304-3.319 1.067-.624 2.342-.937 3.826-.937h1.25v4.53h-1.836c-1.457 0-2.629.455-3.514 1.366-.885.885-1.327 2.135-1.327 3.749v11.831h-5.116zm21.048.469c-1.484 0-2.772-.247-3.866-.742-1.093-.495-1.939-1.197-2.538-2.109-.599-.937-.898-2.017-.898-3.24 0-1.172.26-2.213.781-3.124.521-.937 1.328-1.718 2.421-2.343 1.093-.625 2.473-1.067 4.139-1.328l6.95-1.132v3.905l-5.974 1.015c-1.015.182-1.77.508-2.265.976-.494.469-.742 1.08-.742 1.835 0 .73.274 1.315.82 1.757.573.417 1.276.625 2.109.625 1.067 0 2.004-.221 2.811-.664a4.837 4.837 0 0 0 1.914-1.913 5.2 5.2 0 0 0 .703-2.655v-5.467c0-.911-.365-1.666-1.094-2.265-.703-.624-1.64-.937-2.811-.937-1.093 0-2.07.3-2.929.898a5.02 5.02 0 0 0-1.835 2.304l-4.178-2.03a7.308 7.308 0 0 1 1.952-2.89 9.983 9.983 0 0 1 3.202-1.952c1.224-.469 2.551-.703 3.983-.703 1.744 0 3.28.325 4.608.976 1.327.625 2.356 1.51 3.085 2.655.754 1.12 1.132 2.434 1.132 3.944v14.135h-4.842v-3.631l1.093-.078a8.882 8.882 0 0 1-1.952 2.304 8.813 8.813 0 0 1-2.577 1.405c-.963.313-2.031.469-3.202.469zm22.23-.469-8.356-21.242h5.584l6.052 16.713h-2.069l6.091-16.713h5.584l-8.356 21.242h-4.53zm25.406.469c-2.186 0-4.1-.495-5.74-1.484a10.334 10.334 0 0 1-3.826-4.022c-.912-1.692-1.367-3.566-1.367-5.623 0-2.134.455-4.022 1.367-5.662.937-1.665 2.199-2.98 3.787-3.943 1.614-.963 3.41-1.445 5.389-1.445 1.666 0 3.124.273 4.373.82 1.276.547 2.356 1.302 3.241 2.265.885.963 1.562 2.07 2.03 3.319.469 1.223.703 2.55.703 3.983 0 .364-.026.742-.078 1.132-.026.39-.091.729-.195 1.015h-16.4v-3.905h13.51l-2.42 1.836c.234-1.198.169-2.265-.196-3.202a4.435 4.435 0 0 0-1.718-2.226c-.781-.547-1.731-.82-2.85-.82-1.068 0-2.018.273-2.851.82-.833.52-1.471 1.302-1.913 2.343-.417 1.015-.573 2.252-.469 3.71-.104 1.301.065 2.46.508 3.475.469.989 1.145 1.757 2.03 2.303.912.547 1.953.82 3.124.82 1.172 0 2.161-.247 2.968-.741a5.303 5.303 0 0 0 1.952-1.992l4.139 2.03c-.416 1.016-1.067 1.914-1.952 2.695-.885.78-1.939 1.393-3.163 1.835-1.197.443-2.525.664-3.983.664zm13.835-.469V55.893h5.115v29.56h-5.115zm20.225.469c-2.083 0-3.983-.482-5.701-1.445a11.13 11.13 0 0 1-4.061-3.944c-.989-1.666-1.484-3.566-1.484-5.7 0-2.135.495-4.035 1.484-5.701a11.13 11.13 0 0 1 4.061-3.944c1.692-.963 3.592-1.445 5.701-1.445 2.082 0 3.97.482 5.662 1.445a10.834 10.834 0 0 1 4.022 3.944c1.015 1.64 1.522 3.54 1.522 5.7 0 2.135-.507 4.035-1.522 5.701a11.137 11.137 0 0 1-4.061 3.944c-1.692.963-3.567 1.445-5.623 1.445zm0-4.686c1.145 0 2.147-.273 3.006-.82.886-.546 1.575-1.301 2.07-2.265.521-.989.781-2.095.781-3.319 0-1.25-.26-2.342-.781-3.28-.495-.963-1.184-1.718-2.07-2.264-.859-.573-1.861-.86-3.006-.86-1.172 0-2.2.287-3.085.86-.885.546-1.588 1.301-2.109 2.264-.494.938-.741 2.03-.741 3.28 0 1.224.247 2.33.741 3.32.521.963 1.224 1.718 2.109 2.264.885.547 1.913.82 3.085.82zm25.472 4.686c-2.082 0-3.983-.482-5.701-1.445a11.137 11.137 0 0 1-4.061-3.944c-.989-1.666-1.483-3.566-1.483-5.7 0-2.135.494-4.035 1.483-5.701a11.137 11.137 0 0 1 4.061-3.944c1.692-.963 3.593-1.445 5.701-1.445 2.083 0 3.97.482 5.662 1.445a10.827 10.827 0 0 1 4.022 3.944c1.015 1.64 1.523 3.54 1.523 5.7 0 2.135-.508 4.035-1.523 5.701a11.13 11.13 0 0 1-4.061 3.944c-1.692.963-3.566 1.445-5.623 1.445zm0-4.686c1.146 0 2.148-.273 3.007-.82a5.612 5.612 0 0 0 2.069-2.265c.521-.989.781-2.095.781-3.319 0-1.25-.26-2.342-.781-3.28a5.613 5.613 0 0 0-2.069-2.264c-.859-.573-1.861-.86-3.007-.86-1.171 0-2.199.287-3.085.86-.885.546-1.587 1.301-2.108 2.264-.495.938-.742 2.03-.742 3.28 0 1.224.247 2.33.742 3.32.521.963 1.223 1.718 2.108 2.264.886.547 1.914.82 3.085.82z" fill="#293056"/><path d="M299.976 54.238 331.214 23l31.238 31.238V105l-31.238-7.81-31.238 7.81v-8.786" stroke="#1570EF" stroke-width="5.857" stroke-linecap="round" stroke-linejoin="round"/></svg>