<svg width="258" height="92" viewBox="0 0 258 92" fill="none" xmlns="http://www.w3.org/2000/svg">
<rect x="0.670898" width="257" height="92" rx="10" fill="#F8F8F8" fill-opacity="0.1"/>
<path d="M20.205 53.9091V50.0341L29.9209 34.7273H33.2618V40.0909H31.2845L25.1595 49.7841V49.9659H38.9664V53.9091H20.205ZM31.3754 58V52.7273L31.4664 51.0114V34.7273H36.08V58H31.3754ZM44.6823 58.2955C43.9323 58.2955 43.2883 58.0303 42.7504 57.5C42.2201 56.9621 41.955 56.3182 41.955 55.5682C41.955 54.8258 42.2201 54.1894 42.7504 53.6591C43.2883 53.1288 43.9323 52.8636 44.6823 52.8636C45.4095 52.8636 46.0459 53.1288 46.5914 53.6591C47.1368 54.1894 47.4095 54.8258 47.4095 55.5682C47.4095 56.0682 47.2807 56.5265 47.0232 56.9432C46.7732 57.3523 46.4436 57.6818 46.0345 57.9318C45.6254 58.1742 45.1747 58.2955 44.6823 58.2955ZM58.5573 34.7273V58H53.6368V39.3977H53.5004L48.1709 42.7386V38.375L53.9323 34.7273H58.5573ZM74.2703 33.6364L66.7703 61.5H62.5999L70.0999 33.6364H74.2703ZM85.0573 58.3182C83.4512 58.3182 82.0194 58.0227 80.7618 57.4318C79.5118 56.8409 78.5194 56.0265 77.7845 54.9886C77.0497 53.9508 76.6671 52.7614 76.6368 51.4205H81.4095C81.4626 52.322 81.8414 53.053 82.5459 53.6136C83.2504 54.1742 84.0876 54.4545 85.0573 54.4545C85.83 54.4545 86.5118 54.2841 87.1027 53.9432C87.7012 53.5947 88.1671 53.1136 88.5004 52.5C88.8414 51.8788 89.0118 51.1667 89.0118 50.3636C89.0118 49.5455 88.8376 48.8258 88.4891 48.2045C88.1482 47.5833 87.6747 47.0985 87.0686 46.75C86.4626 46.4015 85.7694 46.2235 84.9891 46.2159C84.3073 46.2159 83.6444 46.3561 83.0004 46.6364C82.3641 46.9167 81.8679 47.2992 81.5118 47.7841L77.1368 47L78.2391 34.7273H92.4664V38.75H82.2959L81.6936 44.5795H81.83C82.2391 44.0038 82.8565 43.5265 83.6823 43.1477C84.508 42.7689 85.4323 42.5795 86.455 42.5795C87.8565 42.5795 89.1065 42.9091 90.205 43.5682C91.3035 44.2273 92.1709 45.1326 92.8073 46.2841C93.4436 47.428 93.758 48.7462 93.7504 50.2386C93.758 51.8068 93.3944 53.2008 92.6595 54.4205C91.9323 55.6326 90.9133 56.5871 89.6027 57.2841C88.2997 57.9735 86.7845 58.3182 85.0573 58.3182Z" fill="white"/>
<path d="M160.574 58V57.233L163.455 54.0795C163.793 53.7102 164.071 53.3892 164.29 53.1165C164.509 52.8409 164.671 52.5824 164.776 52.3409C164.884 52.0966 164.938 51.8409 164.938 51.5739C164.938 51.267 164.864 51.0014 164.716 50.777C164.571 50.5526 164.373 50.3793 164.12 50.2571C163.867 50.1349 163.583 50.0739 163.267 50.0739C162.932 50.0739 162.64 50.1435 162.39 50.2827C162.142 50.419 161.951 50.6108 161.814 50.858C161.681 51.1051 161.614 51.3949 161.614 51.7273H160.608C160.608 51.2159 160.726 50.767 160.962 50.3807C161.198 49.9943 161.519 49.6932 161.925 49.4773C162.334 49.2614 162.793 49.1534 163.302 49.1534C163.813 49.1534 164.266 49.2614 164.661 49.4773C165.056 49.6932 165.366 49.9844 165.59 50.3509C165.814 50.7173 165.927 51.125 165.927 51.5739C165.927 51.8949 165.868 52.2088 165.752 52.5156C165.638 52.8196 165.439 53.1591 165.155 53.5341C164.874 53.9062 164.483 54.3608 163.983 54.8977L162.023 56.9943V57.0625H166.08V58H160.574ZM170.567 58.1193C170.067 58.1193 169.617 58.0199 169.216 57.821C168.816 57.6222 168.495 57.3494 168.253 57.0028C168.012 56.6562 167.88 56.2614 167.857 55.8182H168.88C168.919 56.2131 169.098 56.5398 169.417 56.7983C169.738 57.054 170.121 57.1818 170.567 57.1818C170.925 57.1818 171.243 57.098 171.522 56.9304C171.803 56.7628 172.023 56.5327 172.182 56.2401C172.344 55.9446 172.425 55.6108 172.425 55.2386C172.425 54.858 172.341 54.5185 172.174 54.2202C172.009 53.919 171.782 53.6818 171.492 53.5085C171.202 53.3352 170.871 53.2472 170.499 53.2443C170.232 53.2415 169.958 53.2827 169.677 53.3679C169.395 53.4503 169.164 53.5568 168.982 53.6875L167.993 53.5682L168.522 49.2727H173.056V50.2102H169.408L169.101 52.7841H169.152C169.331 52.642 169.556 52.5241 169.826 52.4304C170.096 52.3366 170.377 52.2898 170.669 52.2898C171.204 52.2898 171.679 52.4176 172.097 52.6733C172.517 52.9261 172.847 53.2727 173.086 53.7131C173.327 54.1534 173.448 54.6562 173.448 55.2216C173.448 55.7784 173.323 56.2756 173.073 56.7131C172.826 57.1477 172.485 57.4915 172.05 57.7443C171.616 57.9943 171.121 58.1193 170.567 58.1193ZM175.563 58.0682C175.352 58.0682 175.172 57.9929 175.021 57.8423C174.871 57.6918 174.796 57.5114 174.796 57.3011C174.796 57.0909 174.871 56.9105 175.021 56.7599C175.172 56.6094 175.352 56.5341 175.563 56.5341C175.773 56.5341 175.953 56.6094 176.104 56.7599C176.254 56.9105 176.33 57.0909 176.33 57.3011C176.33 57.4403 176.294 57.5682 176.223 57.6847C176.155 57.8011 176.063 57.8949 175.946 57.9659C175.832 58.0341 175.705 58.0682 175.563 58.0682ZM180.643 58.1193C180.058 58.1193 179.541 58.0156 179.092 57.8082C178.646 57.598 178.298 57.3097 178.048 56.9432C177.798 56.5739 177.674 56.1534 177.677 55.6818C177.674 55.3125 177.747 54.9716 177.895 54.6591C178.042 54.3437 178.244 54.081 178.5 53.8707C178.758 53.6577 179.047 53.5227 179.365 53.4659V53.4148C178.947 53.3068 178.615 53.0724 178.368 52.7116C178.12 52.348 177.998 51.9347 178.001 51.4716C177.998 51.0284 178.111 50.6321 178.338 50.2827C178.565 49.9332 178.878 49.6577 179.275 49.456C179.676 49.2543 180.132 49.1534 180.643 49.1534C181.149 49.1534 181.601 49.2543 181.998 49.456C182.396 49.6577 182.709 49.9332 182.936 50.2827C183.166 50.6321 183.282 51.0284 183.285 51.4716C183.282 51.9347 183.156 52.348 182.906 52.7116C182.659 53.0724 182.331 53.3068 181.922 53.4148V53.4659C182.237 53.5227 182.521 53.6577 182.774 53.8707C183.027 54.081 183.228 54.3437 183.379 54.6591C183.53 54.9716 183.606 55.3125 183.609 55.6818C183.606 56.1534 183.478 56.5739 183.226 56.9432C182.976 57.3097 182.628 57.598 182.182 57.8082C181.738 58.0156 181.226 58.1193 180.643 58.1193ZM180.643 57.1818C181.038 57.1818 181.379 57.1179 181.666 56.9901C181.953 56.8622 182.174 56.6818 182.331 56.4489C182.487 56.2159 182.566 55.9432 182.569 55.6307C182.566 55.3011 182.481 55.0099 182.314 54.7571C182.146 54.5043 181.917 54.3054 181.628 54.1605C181.341 54.0156 181.013 53.9432 180.643 53.9432C180.271 53.9432 179.939 54.0156 179.646 54.1605C179.356 54.3054 179.128 54.5043 178.96 54.7571C178.795 55.0099 178.714 55.3011 178.717 55.6307C178.714 55.9432 178.79 56.2159 178.943 56.4489C179.099 56.6818 179.322 56.8622 179.612 56.9901C179.902 57.1179 180.245 57.1818 180.643 57.1818ZM180.643 53.0398C180.956 53.0398 181.233 52.9773 181.474 52.8523C181.718 52.7273 181.91 52.5526 182.049 52.3281C182.189 52.1037 182.26 51.8409 182.263 51.5398C182.26 51.2443 182.19 50.9872 182.054 50.7685C181.917 50.5469 181.728 50.3764 181.487 50.2571C181.245 50.1349 180.964 50.0739 180.643 50.0739C180.316 50.0739 180.031 50.1349 179.787 50.2571C179.542 50.3764 179.353 50.5469 179.22 50.7685C179.086 50.9872 179.021 51.2443 179.024 51.5398C179.021 51.8409 179.088 52.1037 179.224 52.3281C179.363 52.5526 179.555 52.7273 179.799 52.8523C180.044 52.9773 180.325 53.0398 180.643 53.0398ZM185.396 58V49.2727H186.453V53.6023H186.555L190.475 49.2727H191.856L188.191 53.2102L191.856 58H190.578L187.543 53.9432L186.453 55.1705V58H185.396ZM196.599 58V49.2727H199.548C200.229 49.2727 200.789 49.3892 201.227 49.6222C201.664 49.8523 201.988 50.169 202.198 50.5724C202.408 50.9759 202.514 51.4347 202.514 51.9489C202.514 52.4631 202.408 52.919 202.198 53.3168C201.988 53.7145 201.666 54.027 201.231 54.2543C200.796 54.4787 200.241 54.5909 199.565 54.5909H197.178V53.6364H199.531C199.997 53.6364 200.372 53.5682 200.656 53.4318C200.943 53.2955 201.15 53.1023 201.278 52.8523C201.408 52.5994 201.474 52.2983 201.474 51.9489C201.474 51.5994 201.408 51.294 201.278 51.0327C201.147 50.7713 200.938 50.5696 200.651 50.4276C200.364 50.2827 199.985 50.2102 199.514 50.2102H197.656V58H196.599ZM200.707 54.0795L202.854 58H201.627L199.514 54.0795H200.707ZM206.064 58.1534C205.65 58.1534 205.273 58.0753 204.935 57.919C204.597 57.7599 204.329 57.5312 204.13 57.233C203.931 56.9318 203.831 56.5682 203.831 56.142C203.831 55.767 203.905 55.4631 204.053 55.2301C204.201 54.9943 204.398 54.8097 204.645 54.6761C204.892 54.5426 205.165 54.4432 205.464 54.3778C205.765 54.3097 206.067 54.2557 206.371 54.2159C206.769 54.1648 207.091 54.1264 207.339 54.1009C207.589 54.0724 207.77 54.0256 207.884 53.9602C208 53.8949 208.059 53.7812 208.059 53.6193V53.5852C208.059 53.1648 207.944 52.8381 207.714 52.6051C207.486 52.3722 207.141 52.2557 206.678 52.2557C206.198 52.2557 205.821 52.3608 205.549 52.571C205.276 52.7812 205.084 53.0057 204.973 53.2443L204.019 52.9034C204.189 52.5057 204.417 52.196 204.701 51.9744C204.988 51.75 205.3 51.5937 205.638 51.5057C205.979 51.4148 206.314 51.3693 206.644 51.3693C206.854 51.3693 207.096 51.3949 207.368 51.446C207.644 51.4943 207.91 51.5952 208.165 51.7486C208.424 51.902 208.638 52.1335 208.809 52.4432C208.979 52.7528 209.064 53.1676 209.064 53.6875V58H208.059V57.1136H208.008C207.939 57.2557 207.826 57.4077 207.667 57.5696C207.508 57.7315 207.296 57.8693 207.032 57.983C206.767 58.0966 206.445 58.1534 206.064 58.1534ZM206.218 57.25C206.616 57.25 206.951 57.1719 207.223 57.0156C207.499 56.8594 207.706 56.6577 207.846 56.4105C207.988 56.1634 208.059 55.9034 208.059 55.6307V54.7102C208.016 54.7614 207.922 54.8082 207.777 54.8509C207.635 54.8906 207.471 54.9261 207.283 54.9574C207.098 54.9858 206.918 55.0114 206.742 55.0341C206.569 55.054 206.428 55.071 206.32 55.0852C206.059 55.1193 205.814 55.1747 205.587 55.2514C205.363 55.3253 205.181 55.4375 205.042 55.5881C204.905 55.7358 204.837 55.9375 204.837 56.1932C204.837 56.5426 204.966 56.8068 205.225 56.9858C205.486 57.1619 205.817 57.25 206.218 57.25ZM213.747 51.4545V52.3068H210.354V51.4545H213.747ZM211.343 49.8864H212.349V56.125C212.349 56.4091 212.39 56.6222 212.472 56.7642C212.558 56.9034 212.666 56.9972 212.796 57.0455C212.93 57.0909 213.07 57.1136 213.218 57.1136C213.329 57.1136 213.42 57.108 213.491 57.0966C213.562 57.0824 213.619 57.071 213.661 57.0625L213.866 57.9659C213.798 57.9915 213.703 58.017 213.58 58.0426C213.458 58.071 213.303 58.0852 213.116 58.0852C212.832 58.0852 212.553 58.0241 212.281 57.902C212.011 57.7798 211.786 57.5938 211.607 57.3438C211.431 57.0938 211.343 56.7784 211.343 56.3977V49.8864ZM215.259 58V51.4545H216.265V58H215.259ZM215.771 50.3636C215.575 50.3636 215.406 50.2969 215.264 50.1634C215.124 50.0298 215.055 49.8693 215.055 49.6818C215.055 49.4943 215.124 49.3338 215.264 49.2003C215.406 49.0668 215.575 49 215.771 49C215.967 49 216.134 49.0668 216.274 49.2003C216.416 49.3338 216.487 49.4943 216.487 49.6818C216.487 49.8693 216.416 50.0298 216.274 50.1634C216.134 50.2969 215.967 50.3636 215.771 50.3636ZM219.113 54.0625V58H218.107V51.4545H219.079V52.4773H219.164C219.317 52.1449 219.55 51.8778 219.863 51.6761C220.175 51.4716 220.579 51.3693 221.073 51.3693C221.516 51.3693 221.904 51.4602 222.236 51.642C222.569 51.821 222.827 52.0938 223.012 52.4602C223.196 52.8239 223.289 53.2841 223.289 53.8409V58H222.283V53.9091C222.283 53.3949 222.15 52.9943 221.883 52.7074C221.616 52.4176 221.249 52.2727 220.783 52.2727C220.462 52.2727 220.175 52.3423 219.922 52.4815C219.672 52.6207 219.475 52.8239 219.33 53.0909C219.185 53.358 219.113 53.6818 219.113 54.0625ZM227.769 60.5909C227.283 60.5909 226.865 60.5284 226.516 60.4034C226.166 60.2812 225.875 60.1193 225.642 59.9176C225.412 59.7188 225.229 59.5057 225.092 59.2784L225.894 58.7159C225.984 58.8352 226.1 58.9716 226.239 59.125C226.378 59.2812 226.568 59.4162 226.81 59.5298C227.054 59.6463 227.374 59.7045 227.769 59.7045C228.297 59.7045 228.733 59.5767 229.077 59.321C229.421 59.0653 229.592 58.6648 229.592 58.1193V56.7898H229.507C229.433 56.9091 229.328 57.0568 229.192 57.233C229.058 57.4062 228.865 57.5611 228.612 57.6974C228.362 57.831 228.024 57.8977 227.598 57.8977C227.07 57.8977 226.595 57.7727 226.175 57.5227C225.757 57.2727 225.426 56.9091 225.182 56.4318C224.94 55.9545 224.82 55.375 224.82 54.6932C224.82 54.0227 224.938 53.4389 225.173 52.9418C225.409 52.4418 225.737 52.0554 226.158 51.7827C226.578 51.5071 227.064 51.3693 227.615 51.3693C228.041 51.3693 228.379 51.4403 228.629 51.5824C228.882 51.7216 229.075 51.8807 229.209 52.0597C229.345 52.2358 229.45 52.3807 229.524 52.4943H229.627V51.4545H230.598V58.1875C230.598 58.75 230.47 59.2074 230.215 59.5597C229.962 59.9148 229.621 60.1747 229.192 60.3395C228.766 60.5071 228.291 60.5909 227.769 60.5909ZM227.734 56.9943C228.138 56.9943 228.479 56.902 228.757 56.7173C229.036 56.5327 229.247 56.267 229.392 55.9205C229.537 55.5739 229.609 55.1591 229.609 54.6761C229.609 54.2045 229.538 53.7884 229.396 53.4276C229.254 53.0668 229.044 52.7841 228.766 52.5795C228.487 52.375 228.144 52.2727 227.734 52.2727C227.308 52.2727 226.953 52.3807 226.669 52.5966C226.388 52.8125 226.176 53.1023 226.034 53.4659C225.895 53.8295 225.825 54.233 225.825 54.6761C225.825 55.1307 225.896 55.5327 226.038 55.8821C226.183 56.2287 226.396 56.5014 226.678 56.7003C226.962 56.8963 227.314 56.9943 227.734 56.9943ZM237.075 52.9205L236.172 53.1761C236.115 53.0256 236.031 52.8793 235.921 52.7372C235.813 52.5923 235.665 52.473 235.477 52.3793C235.29 52.2855 235.05 52.2386 234.757 52.2386C234.357 52.2386 234.023 52.331 233.756 52.5156C233.492 52.6974 233.359 52.929 233.359 53.2102C233.359 53.4602 233.45 53.6577 233.632 53.8026C233.814 53.9474 234.098 54.0682 234.484 54.1648L235.456 54.4034C236.041 54.5455 236.477 54.7628 236.764 55.0554C237.051 55.3452 237.195 55.7187 237.195 56.1761C237.195 56.5511 237.087 56.8864 236.871 57.1818C236.658 57.4773 236.359 57.7102 235.976 57.8807C235.592 58.0511 235.146 58.1364 234.638 58.1364C233.97 58.1364 233.418 57.9915 232.98 57.7017C232.543 57.4119 232.266 56.9886 232.149 56.4318L233.104 56.1932C233.195 56.5455 233.367 56.8097 233.619 56.9858C233.875 57.1619 234.209 57.25 234.621 57.25C235.09 57.25 235.462 57.1506 235.737 56.9517C236.016 56.75 236.155 56.5085 236.155 56.2273C236.155 56 236.075 55.8097 235.916 55.6562C235.757 55.5 235.513 55.3835 235.183 55.3068L234.092 55.0511C233.493 54.9091 233.053 54.6889 232.771 54.3906C232.493 54.0895 232.354 53.7131 232.354 53.2614C232.354 52.892 232.457 52.5653 232.665 52.2812C232.875 51.9972 233.161 51.7741 233.521 51.6122C233.885 51.4503 234.297 51.3693 234.757 51.3693C235.405 51.3693 235.913 51.5114 236.283 51.7955C236.655 52.0795 236.919 52.4545 237.075 52.9205Z" fill="white" fill-opacity="0.7"/>
</svg>
